<?xml version="1.0" encoding="UTF-8" standalone="no"?>
<!-- Created with Inkscape (http://www.inkscape.org/) -->

<svg
   width="1200"
   height="1200"
   viewBox="0 0 317.49999 317.50001"
   version="1.1"
   id="svg8"
   inkscape:version="1.3 (1:1.3+202307231459+0e150ed6c4)"
   sodipodi:docname="trans righs are human right(white text with black outline).svg"
   enable-background="new"
   inkscape:export-filename="../../Pictures/trams_right{Prate.png"
   inkscape:export-xdpi="96"
   inkscape:export-ydpi="96"
   xmlns:inkscape="http://www.inkscape.org/namespaces/inkscape"
   xmlns:sodipodi="http://sodipodi.sourceforge.net/DTD/sodipodi-0.dtd"
   xmlns="http://www.w3.org/2000/svg"
   xmlns:svg="http://www.w3.org/2000/svg"
   xmlns:rdf="http://www.w3.org/1999/02/22-rdf-syntax-ns#"
   xmlns:cc="http://creativecommons.org/ns#"
   xmlns:dc="http://purl.org/dc/elements/1.1/">
  <defs
     id="defs2">
    <rect
       x="2012.4683"
       y="1057.3619"
       width="1210.5957"
       height="406.26814"
       id="rect2" />
    <rect
       x="783.68479"
       y="809.07158"
       width="17.492502"
       height="209.10767"
       id="rect1" />
    <filter
       inkscape:collect="always"
       style="color-interpolation-filters:sRGB"
       id="filter2316"
       x="-0.048550881"
       width="1.0971018"
       y="-0.12361016"
       height="1.2472203">
      <feGaussianBlur
         inkscape:collect="always"
         stdDeviation="2.2839262"
         id="feGaussianBlur2318" />
    </filter>
  </defs>
  <sodipodi:namedview
     id="base"
     pagecolor="#ffffff"
     bordercolor="#666666"
     borderopacity="1.0"
     inkscape:pageopacity="0.0"
     inkscape:pageshadow="2"
     inkscape:zoom="0.98994948"
     inkscape:cx="602.556"
     inkscape:cy="159.09903"
     inkscape:document-units="mm"
     inkscape:current-layer="layer2"
     showgrid="false"
     units="px"
     inkscape:snap-page="true"
     inkscape:snap-bbox="false"
     inkscape:snap-bbox-edge-midpoints="true"
     inkscape:snap-text-baseline="true"
     inkscape:lockguides="false"
     inkscape:window-width="1920"
     inkscape:window-height="1032"
     inkscape:window-x="0"
     inkscape:window-y="0"
     inkscape:window-maximized="1"
     inkscape:showpageshadow="2"
     inkscape:pagecheckerboard="0"
     inkscape:deskcolor="#d1d1d1">
    <inkscape:grid
       type="xygrid"
       id="grid841"
       originx="0"
       originy="0"
       spacingy="1"
       spacingx="1"
       units="px"
       visible="false" />
  </sodipodi:namedview>
  <metadata
     id="metadata5">
    <rdf:RDF>
      <cc:Work
         rdf:about="">
        <dc:format>image/svg+xml</dc:format>
        <dc:type
           rdf:resource="http://purl.org/dc/dcmitype/StillImage" />
      </cc:Work>
    </rdf:RDF>
  </metadata>
  <g
     inkscape:label="Flag"
     inkscape:groupmode="layer"
     id="layer1"
     transform="translate(0,20.500025)">
    <rect
       y="96.128227"
       x="0.8540113"
       height="82.041985"
       width="316.24902"
       id="rect832-3"
       style="fill:#ffffff;fill-opacity:1;stroke:none;stroke-width:1.98266;stroke-miterlimit:4;stroke-dasharray:1.98266, 1.98266;stroke-dashoffset:0;stroke-opacity:1" />
    <rect
       style="opacity:1;fill:#5bcefa;fill-opacity:1;stroke:none;stroke-width:1.84687;stroke-miterlimit:4;stroke-dasharray:1.84687, 1.84687;stroke-dashoffset:0;stroke-opacity:1"
       id="rect826"
       width="317.5"
       height="70.908775"
       x="0"
       y="-20.500025" />
    <rect
       style="opacity:1;fill:#f5a9b8;fill-opacity:1;stroke:none;stroke-width:1.59545;stroke-miterlimit:4;stroke-dasharray:1.59545, 1.59545;stroke-dashoffset:0;stroke-opacity:1"
       id="rect830"
       width="317.5"
       height="52.916668"
       x="-0.13004594"
       y="49.964478" />
    <rect
       y="163.64964"
       x="0"
       height="52.916668"
       width="317.5"
       id="rect832"
       style="opacity:1;fill:#f5a9b8;fill-opacity:1;stroke:none;stroke-width:1.59545;stroke-miterlimit:4;stroke-dasharray:1.59545, 1.59545;stroke-dashoffset:0;stroke-opacity:1" />
    <rect
       y="216.6637"
       x="-0.31509483"
       height="80.336296"
       width="317.5"
       id="rect836"
       style="opacity:1;fill:#5bcefa;fill-opacity:1;stroke:none;stroke-width:1.96582;stroke-miterlimit:4;stroke-dasharray:1.96582, 1.96582;stroke-dashoffset:0;stroke-opacity:1" />
  </g>
  <g
     inkscape:groupmode="layer"
     id="layer2"
     inkscape:label="Text">
    <text
       xml:space="preserve"
       style="font-style:normal;font-weight:normal;font-size:16.8323px;line-height:1.25;font-family:sans-serif;letter-spacing:0px;word-spacing:0px;fill:#ffffff;fill-opacity:1;stroke:none;stroke-width:0.225431"
       x="153.34717"
       y="290.37082"
       id="text855"
       transform="scale(1.0181056,0.98221639)"><tspan
         sodipodi:role="line"
         id="tspan853"
         x="153.34717"
         y="290.37082"
         style="font-style:normal;font-variant:normal;font-weight:bold;font-stretch:normal;font-family:'Open Sans';-inkscape-font-specification:'Open Sans';text-align:center;text-anchor:middle;fill:#ffffff;stroke-width:0.225431">This really isn't that difficult.</tspan></text>
    <text
       xml:space="preserve"
       style="font-style:normal;font-weight:normal;font-size:50.6007px;line-height:1.11;font-family:sans-serif;letter-spacing:0px;word-spacing:0px;fill:#ffffff;fill-opacity:1;stroke:#000000;stroke-width:1.29107;stroke-opacity:1;stroke-linecap:round;stroke-linejoin:miter;paint-order:fill markers stroke"
       x="54.122921"
       y="272.67993"
       id="text2240-3-7"
       transform="scale(1.0735415,0.93149638)"><tspan
         sodipodi:role="line"
         x="54.122921"
         y="272.67993"
         style="font-style:normal;font-variant:normal;font-weight:800;font-stretch:normal;font-family:'Open Sans';-inkscape-font-specification:'Open Sans Ultra-Bold';fill:#ffffff;fill-opacity:1;stroke:#000000;stroke-width:1.29107;stroke-opacity:1;stroke-linecap:round;stroke-linejoin:miter;paint-order:fill markers stroke"
         id="tspan2238-6-5">Rights </tspan></text>
    <text
       id="text2268-3"
       y="196.71642"
       x="-288.83365"
       style="font-style:normal;font-weight:normal;font-size:70.5556px;line-height:1.11;font-family:sans-serif;letter-spacing:0px;word-spacing:0px;opacity:0.25;fill:#000000;fill-opacity:1;stroke:#000000;stroke-width:2;filter:url(#filter2316)"
       xml:space="preserve"><tspan
         id="tspan2266-5"
         style="font-style:normal;font-variant:normal;font-weight:800;font-stretch:normal;font-family:'Open Sans';-inkscape-font-specification:'Open Sans Ultra-Bold';fill:#000000;stroke:#000000;stroke-width:2"
         y="196.71642"
         x="-288.83365"
         sodipodi:role="line" /></text>
    <text
       id="text859"
       y="55.795235"
       x="69.095978"
       style="font-style:normal;font-weight:normal;font-size:58.9605px;line-height:1.11;font-family:sans-serif;letter-spacing:0px;word-spacing:0px;fill:#ffffff;fill-opacity:1;stroke:#000000;stroke-width:1.50437;stroke-opacity:1;stroke-linecap:round;stroke-linejoin:miter;paint-order:fill markers stroke"
       xml:space="preserve"
       transform="scale(1.0067816,0.99326408)"><tspan
         id="tspan2220"
         style="font-style:normal;font-variant:normal;font-weight:800;font-stretch:normal;font-family:'Open Sans';-inkscape-font-specification:'Open Sans Ultra-Bold';fill:#ffffff;fill-opacity:1;stroke:#000000;stroke-width:1.50437;stroke-opacity:1;stroke-linecap:round;stroke-linejoin:miter;paint-order:fill markers stroke"
         y="55.795235"
         x="69.095978"
         sodipodi:role="line">Trans</tspan></text>
    <text
       id="text2228"
       y="110.18192"
       x="48.010918"
       style="font-style:normal;font-weight:normal;font-size:58.3449px;line-height:1.25;font-family:sans-serif;letter-spacing:0px;word-spacing:0px;fill:#ffffff;fill-opacity:1;stroke:#000000;stroke-width:1.357;stroke-dasharray:none;stroke-opacity:1;stroke-linecap:round;stroke-linejoin:miter;paint-order:fill markers stroke"
       xml:space="preserve"
       transform="scale(1.025983,0.97467502)"><tspan
         style="font-style:normal;font-variant:normal;font-weight:800;font-stretch:normal;font-family:'Open Sans';-inkscape-font-specification:'Open Sans Ultra-Bold';fill:#ffffff;fill-opacity:1;stroke:#000000;stroke-width:1.357;stroke-dasharray:none;stroke-opacity:1;stroke-linecap:round;stroke-linejoin:miter;paint-order:fill markers stroke"
         y="110.18192"
         x="48.010918"
         id="tspan2226"
         sodipodi:role="line">Rights</tspan></text>
    <text
       xml:space="preserve"
       style="font-style:normal;font-weight:normal;font-size:53.2036px;line-height:1.11;font-family:sans-serif;letter-spacing:0px;word-spacing:0px;fill:#ffffff;fill-opacity:1;stroke:#000000;stroke-width:1.357;stroke-opacity:1;stroke-dasharray:none;stroke-linecap:round;stroke-linejoin:miter;paint-order:fill markers stroke"
       x="100.14358"
       y="171.95769"
       id="text2240"
       transform="scale(1.0442548,0.95762068)"><tspan
         sodipodi:role="line"
         x="100.14358"
         y="171.95769"
         style="font-style:normal;font-variant:normal;font-weight:800;font-stretch:normal;font-family:'Open Sans';-inkscape-font-specification:'Open Sans Ultra-Bold';fill:#ffffff;fill-opacity:1;stroke:#000000;stroke-width:1.357;stroke-opacity:1;stroke-dasharray:none;stroke-linecap:round;stroke-linejoin:miter;paint-order:fill markers stroke"
         id="tspan2238">Are </tspan></text>
    <text
       xml:space="preserve"
       style="font-style:normal;font-weight:normal;font-size:49.5702px;line-height:1.11;font-family:sans-serif;letter-spacing:0px;word-spacing:0px;fill:#ffffff;fill-opacity:1;stroke:#000000;stroke-width:1.26478;stroke-opacity:1;stroke-linecap:round;stroke-linejoin:miter;paint-order:fill markers stroke"
       x="57.891094"
       y="209.52457"
       id="text2240-3"><tspan
         sodipodi:role="line"
         x="57.891094"
         y="209.52457"
         style="font-style:normal;font-variant:normal;font-weight:800;font-stretch:normal;font-family:'Open Sans';-inkscape-font-specification:'Open Sans Ultra-Bold';fill:#ffffff;fill-opacity:1;stroke:#000000;stroke-width:1.26478;stroke-opacity:1;stroke-linecap:round;stroke-linejoin:miter;paint-order:fill markers stroke"
         id="tspan2238-6">Human </tspan></text>
    <g
       id="layer3-7"
       inkscape:label="topic"
       transform="matrix(0.07145069,0,0,0.07145069,94.088496,333.0228)">
      <g
         id="g1708"
         transform="matrix(2.7781249,0,0,2.7781249,54.583573,-648.15343)">
        <g
           style="display:none"
           id="Background__x28_for_preview_purposes_x29_">
          <rect
             id="rect1517"
             height="222.79401"
             width="619.85303"
             style="display:inline;fill:#231f20;stroke:#ffffff"
             y="-37.528999"
             x="-46.441002" />
        </g>
        <g
           id="Text">
          <g
             id="g1532">
            <path
               id="path1520"
               d="m 167.668,79.513 v 16.65 H 156.404 V 42.084 h 11.264 v 3.428 c 1.936,-1.936 3.754,-3.148 5.457,-3.638 1.702,-0.49 3.778,-0.735 6.226,-0.735 4.314,0 7.882,1.924 10.704,5.771 2.822,3.848 4.221,8.78 4.198,14.796 -0.023,6.04 -1.458,10.646 -4.302,13.817 -2.729,3.055 -6.25,5.025 -10.564,5.912 -0.7,0.14 -3.032,0.082 -6.996,-0.175 -1.633,-0.114 -3.207,-0.698 -4.723,-1.747 z m 7.486,-29.278 c -2.402,0 -4.256,0.991 -5.562,2.974 -1.282,1.958 -1.924,4.792 -1.924,8.5 v 9.725 c 0.443,1.166 2.938,1.749 7.486,1.749 2.425,0 4.272,-0.979 5.545,-2.938 1.269,-1.959 1.905,-4.804 1.905,-8.536 0,-3.731 -0.641,-6.576 -1.924,-8.535 -1.282,-1.96 -3.124,-2.939 -5.526,-2.939 z"
               style="fill:#ffffff"
               inkscape:connector-curvature="0" />
            <path
               id="path1522"
               d="m 202.686,26.833 h 11.264 v 10.214 h -11.264 z m 0,15.251 h 11.264 v 39.178 h -11.264 z"
               style="fill:#ffffff"
               inkscape:connector-curvature="0" />
            <path
               id="path1524"
               d="m 238.51,56.496 c -1.562,2.519 -2.344,4.757 -2.344,6.716 v 18.05 H 224.903 V 42.084 h 11.263 v 6.437 c 1.446,-2.565 3.113,-4.431 5.002,-5.597 1.866,-1.189 4.116,-1.784 6.751,-1.784 0.374,0 0.781,0.012 1.225,0.035 0.163,0 0.804,0.082 1.924,0.245 v 8.535 c -5.411,-0.42 -9.597,1.761 -12.558,6.541 z"
               style="fill:#ffffff"
               inkscape:connector-curvature="0" />
            <path
               id="path1526"
               d="m 289.865,78.988 c -4.454,2.286 -9.958,3.428 -16.51,3.428 -8.045,0 -13.292,-1.224 -15.741,-3.672 -2.285,-2.286 -3.428,-5.364 -3.428,-9.235 0,-4.594 1.422,-7.964 4.267,-10.109 2.845,-2.146 7.309,-3.218 13.395,-3.218 h 6.646 v -0.979 c 0,-1.982 -0.704,-3.435 -2.115,-4.354 -1.411,-0.923 -3.598,-1.383 -6.56,-1.383 -2.425,0 -4.673,0.268 -6.749,0.805 -2.076,0.536 -4.011,1.341 -5.807,2.414 v -9.55 c 2.425,-0.653 4.851,-1.143 7.276,-1.469 2.588,-0.35 5.023,-0.524 7.308,-0.524 6.39,0 10.984,1.388 13.782,4.163 2.822,2.798 4.235,7.334 4.235,13.607 v 20.076 z m -17.21,-15.356 c -2.332,0 -4.104,0.443 -5.317,1.329 -1.236,0.909 -1.833,2.215 -1.786,3.918 0.047,1.539 0.527,2.775 1.437,3.708 0.723,0.746 2.052,1.201 3.988,1.364 3.545,0.303 6.026,0.082 7.448,-0.665 0.047,-0.023 0.07,-2.764 0.07,-8.22 v -1.434 z"
               style="fill:#ffffff"
               inkscape:connector-curvature="0" />
            <path
               id="path1528"
               d="m 295.883,51.04 v -1.61 l 15.146,-18.469 h 1.749 v 11.124 h 11.613 v 8.955 h -11.613 v 16.615 c 0,1.819 0.315,3.043 0.945,3.673 0.652,0.653 1.947,0.979 3.882,0.979 h 5.807 v 8.955 h -9.654 c -4.454,0 -7.614,-1.026 -9.479,-3.079 -1.866,-2.052 -2.798,-5.562 -2.798,-10.529 V 51.04 Z"
               style="fill:#ffffff"
               inkscape:connector-curvature="0" />
            <path
               id="path1530"
               d="m 366.615,61.568 v 3.568 h -26.34 c 0.256,2.938 1.208,5.142 2.85,6.611 1.646,1.469 3.937,2.204 6.875,2.204 2.378,0 4.808,-0.389 7.294,-1.173 2.481,-0.779 5.03,-1.964 7.642,-3.549 v 9.654 c -2.659,1.12 -5.324,1.966 -7.992,2.537 -2.672,0.569 -5.335,0.856 -7.994,0.856 -6.389,0 -11.352,-1.803 -14.882,-5.403 -3.536,-3.605 -5.301,-8.658 -5.301,-15.165 0,-6.39 1.737,-11.415 5.212,-15.076 3.475,-3.661 8.255,-5.492 14.342,-5.492 5.55,0 9.986,1.854 13.311,5.562 3.321,3.708 4.983,8.663 4.983,14.866 z m -11.578,-4.162 c 0,-2.379 -0.625,-4.295 -1.87,-5.755 -1.25,-1.455 -2.887,-2.185 -4.916,-2.185 -2.168,0 -3.936,0.683 -5.298,2.045 -1.367,1.366 -2.223,3.33 -2.572,5.895 z"
               style="fill:#ffffff"
               inkscape:connector-curvature="0" />
          </g>
          <g
             id="g1544">
            <path
               id="path1534"
               d="m 382.347,79.233 v 16.93 h -6.471 V 42.084 h 6.471 v 5.492 c 1.749,-2.588 3.556,-4.309 5.422,-5.16 1.866,-0.851 4.232,-1.277 7.102,-1.277 4.757,0 8.621,1.889 11.597,5.667 2.971,3.778 4.459,8.745 4.459,14.901 0,6.157 -1.488,10.972 -4.459,14.447 -2.976,3.475 -6.84,5.212 -11.597,5.212 -2.869,0 -4.921,-0.1 -6.157,-0.296 -1.237,-0.197 -3.359,-0.811 -6.367,-1.837 z m 21.897,-17.525 c 0,-4.734 -0.975,-8.448 -2.922,-11.14 -1.947,-2.696 -4.622,-4.041 -8.026,-4.041 -2.915,0 -5.375,0.781 -7.381,2.343 -1.959,1.539 -3.148,4.291 -3.568,8.255 v 15.811 c 3.335,2.029 6.984,3.043 10.949,3.043 3.404,0 6.079,-1.206 8.026,-3.622 1.948,-2.41 2.922,-5.961 2.922,-10.649 z"
               style="fill:#ffffff"
               inkscape:connector-curvature="0" />
            <path
               id="path1536"
               d="m 434.889,81.926 c -5.224,0.094 -9.293,-1.084 -12.208,-3.533 -2.262,-1.912 -3.393,-4.757 -3.393,-8.535 0,-4.408 1.474,-7.731 4.424,-9.97 2.95,-2.239 7.353,-3.358 13.206,-3.358 h 9.024 v -0.629 c 0,-2.962 -0.975,-5.254 -2.922,-6.873 -1.947,-1.623 -4.681,-2.432 -8.201,-2.432 -2.239,0 -4.42,0.268 -6.542,0.804 -2.122,0.536 -4.162,1.341 -6.121,2.414 v -5.946 c 2.355,-0.91 4.641,-1.592 6.856,-2.046 2.215,-0.455 4.372,-0.682 6.471,-0.682 5.667,0 9.899,1.469 12.698,4.408 2.798,2.938 4.197,7.345 4.197,13.222 v 0.14 l -0.035,19.659 c -4.477,2.145 -10.295,3.264 -17.454,3.357 z m 4.652,-20.358 c -5.2,0 -8.803,0.595 -10.809,1.784 -2.006,1.189 -3.009,3.218 -3.009,6.087 0,2.262 0.781,4.116 2.345,5.562 1.562,1.445 3.579,2.168 6.051,2.168 0.07,0 0.141,0 0.21,0 5.527,0 9.398,-0.618 11.613,-1.854 0,-6.623 0,-10.727 0,-12.313 v -1.434 z"
               style="fill:#ffffff"
               inkscape:connector-curvature="0" />
            <path
               id="path1538"
               d="m 485.194,47.506 c -0.723,-0.419 -1.504,-0.66 -2.344,-0.716 -0.84,-0.061 -1.771,-0.03 -2.798,0.086 -3.521,0.443 -6.285,2.168 -8.29,5.177 -2.006,3.008 -3.009,6.728 -3.009,11.159 v 18.05 h -6.472 V 42.084 h 6.472 v 5.771 c 1.353,-2.378 3.113,-4.092 5.282,-5.142 2.169,-1.05 4.804,-1.574 7.905,-1.574 0.443,0 0.933,0.029 1.47,0.087 0.536,0.058 1.131,0.146 1.783,0.262 v 6.018 z"
               style="fill:#ffffff"
               inkscape:connector-curvature="0" />
            <path
               id="path1540"
               d="m 490.549,47.087 v -5.072 h 4.723 v -4.932 l 6.471,-6.122 V 42.085 H 515 v 5.002 h -13.258 v 21.268 c 0,3.195 0.437,5.247 1.312,6.157 0.873,0.909 2.652,1.364 5.334,1.364 H 515 v 5.387 h -6.611 c -4.968,0 -8.396,-0.928 -10.284,-2.78 -1.889,-1.856 -2.833,-5.231 -2.833,-10.128 V 47.087 Z"
               style="fill:#ffffff"
               inkscape:connector-curvature="0" />
            <path
               id="path1542"
               d="m 527.842,98.437 6.996,-17.805 -15.846,-38.548 h 6.821 l 12.243,30.643 12.242,-30.643 h 6.821 l -22.457,56.353 z"
               style="fill:#ffffff"
               inkscape:connector-curvature="0" />
          </g>
          <text
             xml:space="preserve"
             style="font-style:normal;font-weight:normal;font-size:31.0937px;line-height:1.25;font-family:sans-serif;letter-spacing:0px;word-spacing:0px;display:inline;opacity:0.92;fill:#ffffff;fill-opacity:1;stroke:none;stroke-width:0.583006;enable-background:new"
             x="153.84314"
             y="119.97987"
             id="text459"><tspan
               sodipodi:role="line"
               id="tspan457"
               style="font-style:normal;font-variant:normal;font-weight:normal;font-stretch:normal;font-size:31.0937px;font-family:Arial;-inkscape-font-specification:Arial;fill:#ffffff;stroke-width:0.583006"
               x="153.84314"
               y="119.97987">ukpirate.party</tspan></text>
        </g>
        <g
           id="Signet">
          <polygon
             id="polygon1627"
             points="78.534,64.283 79.021,66.699 77.016,65.269 75.431,67.153 75.301,64.695 72.836,64.629 74.682,62.996 73.194,61.03 75.622,61.449 76.23,59.064 77.416,61.223 79.662,60.211 78.711,62.486 80.903,63.611 "
             style="fill:#ffffff" />
          <polygon
             id="polygon1629"
             points="90.61,49.664 91.098,52.08 89.093,50.65 87.507,52.534 87.378,50.076 84.913,50.01 86.758,48.377 85.271,46.411 87.699,46.83 88.307,44.445 89.493,46.604 91.738,45.592 90.789,47.867 92.979,48.992 "
             style="fill:#ffffff" />
          <polygon
             id="polygon1631"
             points="103.958,60.47 104.446,62.885 102.441,61.455 100.855,63.34 100.726,60.881 98.261,60.815 100.106,59.183 98.619,57.217 101.047,57.635 101.655,55.25 102.841,57.409 105.086,56.397 104.136,58.672 106.328,59.798 "
             style="fill:#ffffff" />
          <polygon
             id="polygon1633"
             points="92.518,84.624 93.005,87.04 91,85.609 89.415,87.494 89.285,85.036 86.82,84.969 88.665,83.336 87.178,81.37 89.605,81.789 90.213,79.404 91.4,81.563 93.646,80.551 92.695,82.827 94.886,83.952 "
             style="fill:#ffffff" />
          <polygon
             id="polygon1635"
             points="96.75,68.619 97.313,70.197 95.718,69.683 94.393,70.705 94.39,69.033 93.012,68.088 94.599,67.566 95.071,65.961 96.059,67.312 97.73,67.266 "
             style="fill:#ffffff" />
          <polygon
             id="polygon1585"
             points="94.774,85.282 94.359,87.717 92.997,85.655 90.834,86.85 91.599,84.499 89.317,83.552 91.63,82.684 90.946,80.311 93.067,81.579 94.499,79.564 94.83,82.013 97.298,81.873 95.59,83.659 97.234,85.504 "
             style="fill:#ffffff" />
          <polygon
             id="polygon1587"
             points="106,60.465 105.585,62.9 104.224,60.838 102.062,62.033 102.825,59.684 100.542,58.737 102.855,57.87 102.173,55.494 104.294,56.762 105.725,54.748 106.056,57.196 108.524,57.061 106.815,58.845 108.46,60.689 "
             style="fill:#ffffff" />
          <polygon
             id="polygon1589"
             points="93.593,49.832 93.177,52.266 91.817,50.205 89.652,51.398 90.417,49.048 88.134,48.101 90.448,47.233 89.765,44.859 91.886,46.128 93.316,44.112 93.647,46.562 96.115,46.422 94.407,48.208 96.053,50.051 "
             style="fill:#ffffff" />
          <polygon
             id="polygon1591"
             points="80.594,64.603 80.178,67.037 78.818,64.976 76.654,66.169 77.418,63.819 75.135,62.874 77.45,62.004 76.766,59.63 78.887,60.899 80.318,58.884 80.649,61.333 83.118,61.193 81.408,62.979 83.055,64.826 "
             style="fill:#ffffff" />
          <polygon
             id="polygon1593"
             points="99.312,68.59 99.527,70.255 98.076,69.411 96.562,70.134 96.911,68.492 95.758,67.275 97.427,67.1 98.229,65.626 98.91,67.16 100.559,67.466 "
             style="fill:#ffffff" />
          <g
             id="g1609">
            <path
               id="path1595"
               d="M 135.039,89.912 C 128.733,125.113 95.081,148.545 59.874,142.237 24.667,135.931 1.237,102.28 7.544,67.079 13.848,31.873 47.5,8.449 82.709,14.756 c 35.206,6.305 58.634,39.954 52.33,75.156 z"
               style="fill:#ffffff;stroke:#ffffff;stroke-width:5;stroke-miterlimit:10"
               inkscape:connector-curvature="0" />
            <path
               id="path1597"
               d="m 81.105,23.712 c -30.26,-5.419 -59.186,14.72 -64.604,44.976 -5.42,30.26 14.716,59.188 44.976,64.61 30.259,5.415 59.183,-14.727 64.602,-44.984 5.42,-30.255 -14.715,-59.182 -44.974,-64.602 z m 53.932,66.206 C 128.731,125.124 95.08,148.556 59.872,142.252 24.664,135.944 1.235,102.291 7.543,67.083 13.847,31.877 47.501,8.448 82.709,14.755 c 35.206,6.306 58.634,39.959 52.328,75.163 z"
               style="stroke:#ffffff;stroke-width:5;stroke-miterlimit:10"
               inkscape:connector-curvature="0" />
            <g
               id="g1607">
              <polygon
                 id="polygon1599"
                 points="51.237,33.772 46.998,33.014 47.327,98.379 54.451,95.273 53.188,92.129 "
                 style="stroke:#ffffff;stroke-width:5;stroke-miterlimit:10" />
              <path
                 id="path1601"
                 d="m 41.057,45.816 c 0,0 60.699,-23.026 69.619,18.67 0,0 5.716,19.558 -22.992,26.528 0,0 -19.617,4.877 -21.554,4.893 -1.947,0.02 -1.947,0.02 -1.947,0.02 0,0 -19.291,3.84 -14.798,27.627 0,0 -14.917,-21.275 12.979,-38.168 0,0 10.796,-9.016 7.42,-22.749 -0.001,0 -3.343,-16.313 -28.727,-16.821 z"
                 style="stroke:#ffffff;stroke-width:5;stroke-miterlimit:10"
                 inkscape:connector-curvature="0" />
              <polygon
                 id="polygon1603"
                 points="47.304,93.659 47.251,104.929 54.873,96.991 "
                 style="stroke:#ffffff;stroke-width:5;stroke-miterlimit:10" />
              <path
                 id="path1605"
                 d="m 81.912,92.428 c 0,0 -29.423,4.918 -32.373,17.679 -2.95,12.763 -3.591,-19.303 15.273,-20.748 18.864,-1.433 1.617,-0.877 1.617,-0.877 l 17.984,-1.609 -2.268,4.242"
                 style="stroke:#ffffff;stroke-width:5;stroke-miterlimit:10"
                 inkscape:connector-curvature="0" />
            </g>
          </g>
          <g
             id="g1625">
            <path
               id="path1611"
               d="M 135.039,89.912 C 128.733,125.113 95.081,148.545 59.874,142.237 24.667,135.931 1.237,102.28 7.544,67.079 13.848,31.873 47.5,8.449 82.709,14.756 c 35.206,6.305 58.634,39.954 52.33,75.156 z"
               style="fill:#ffffff"
               inkscape:connector-curvature="0" />
            <path
               id="path1613"
               d="m 81.105,23.712 c -30.26,-5.419 -59.186,14.72 -64.604,44.976 -5.42,30.26 14.716,59.188 44.976,64.61 30.259,5.415 59.183,-14.727 64.602,-44.984 5.42,-30.255 -14.715,-59.182 -44.974,-64.602 z m 53.932,66.206 C 128.731,125.124 95.08,148.556 59.872,142.252 24.664,135.944 1.235,102.291 7.543,67.083 13.847,31.877 47.501,8.448 82.709,14.755 c 35.206,6.306 58.634,39.959 52.328,75.163 z"
               inkscape:connector-curvature="0" />
            <g
               id="g1623">
              <polygon
                 id="polygon1615"
                 points="51.237,33.772 46.998,33.014 47.327,98.379 54.451,95.273 53.188,92.129 " />
              <path
                 id="path1617"
                 d="m 41.057,45.816 c 0,0 60.699,-23.026 69.619,18.67 0,0 5.716,19.558 -22.992,26.528 0,0 -19.617,4.877 -21.554,4.893 -1.947,0.02 -1.947,0.02 -1.947,0.02 0,0 -19.291,3.84 -14.798,27.627 0,0 -14.917,-21.275 12.979,-38.168 0,0 10.796,-9.016 7.42,-22.749 -0.001,0 -3.343,-16.313 -28.727,-16.821 z"
                 inkscape:connector-curvature="0" />
              <polygon
                 id="polygon1619"
                 points="47.304,93.659 47.251,104.929 54.873,96.991 " />
              <path
                 id="path1621"
                 d="m 81.912,92.428 c 0,0 -29.423,4.918 -32.373,17.679 -2.95,12.763 -3.591,-19.303 15.273,-20.748 18.864,-1.433 1.617,-0.877 1.617,-0.877 l 17.984,-1.609 -2.268,4.242"
                 inkscape:connector-curvature="0" />
            </g>
          </g>
        </g>
      </g>
    </g>
    <text
       xml:space="preserve"
       transform="scale(0.26458333)"
       id="text1"
       style="font-style:normal;font-weight:normal;font-size:40px;line-height:1.25;font-family:sans-serif;letter-spacing:0px;word-spacing:0px;white-space:pre;shape-inside:url(#rect1);display:inline;fill:#000000;fill-opacity:1;stroke:none" />
    <text
       xml:space="preserve"
       transform="scale(0.26458333)"
       id="text2"
       style="font-style:normal;font-weight:normal;font-size:40px;line-height:1.25;font-family:sans-serif;letter-spacing:0px;word-spacing:0px;white-space:pre;shape-inside:url(#rect2);display:inline;fill:#000000;fill-opacity:1;stroke:none" />
  </g>
  <g
     inkscape:groupmode="layer"
     id="layer3"
     inkscape:label="Tags"
     style="display:inline;opacity:1" />
</svg>
