<?xml version="1.0" encoding="UTF-8" standalone="no"?>
<!-- Created with Inkscape (http://www.inkscape.org/) -->

<svg
   width="1200"
   height="900"
   viewBox="0 0 317.49999 238.12501"
   version="1.1"
   id="svg1164"
   sodipodi:docname="drug-problem.svg"
   inkscape:version="1.2.2 (1:1.2.2+202305151915+b0a8486541)"
   xmlns:inkscape="http://www.inkscape.org/namespaces/inkscape"
   xmlns:sodipodi="http://sodipodi.sourceforge.net/DTD/sodipodi-0.dtd"
   xmlns="http://www.w3.org/2000/svg"
   xmlns:svg="http://www.w3.org/2000/svg"
   xmlns:rdf="http://www.w3.org/1999/02/22-rdf-syntax-ns#"
   xmlns:cc="http://creativecommons.org/ns#"
   xmlns:dc="http://purl.org/dc/elements/1.1/">
  <defs
     id="defs1158">
    <clipPath
       id="clipPath7713-0-5"
       clipPathUnits="userSpaceOnUse">
      <rect
         y="921.51117"
         x="639.93164"
         height="56.568542"
         width="685.89355"
         id="rect7715-0-3"
         style="fill:#ffffff;fill-opacity:1;stroke-width:1;stroke-miterlimit:4;stroke-dasharray:none" />
    </clipPath>
    <clipPath
       id="clipPath7713-0"
       clipPathUnits="userSpaceOnUse">
      <rect
         y="921.51117"
         x="639.93164"
         height="56.568542"
         width="685.89355"
         id="rect7715-0"
         style="fill:#ffffff;fill-opacity:1;stroke-width:1;stroke-miterlimit:4;stroke-dasharray:none" />
    </clipPath>
    <clipPath
       id="clipPath7240-01"
       clipPathUnits="userSpaceOnUse">
      <rect
         transform="scale(1,-1)"
         y="-18.123487"
         x="-290.53363"
         height="15.7"
         width="148.60001"
         id="rect7242-2"
         style="opacity:0.30303034;fill:#ffffff;fill-opacity:1;stroke-width:1;stroke-miterlimit:4;stroke-dasharray:none" />
    </clipPath>
    <clipPath
       id="clipPath7713-0-7"
       clipPathUnits="userSpaceOnUse">
      <rect
         y="921.51117"
         x="639.93164"
         height="56.568542"
         width="685.89355"
         id="rect7715-0-2"
         style="fill:#ffffff;fill-opacity:1;stroke-width:1;stroke-miterlimit:4;stroke-dasharray:none" />
    </clipPath>
    <clipPath
       id="clipPath7234-24"
       clipPathUnits="userSpaceOnUse">
      <rect
         transform="scale(1,-1)"
         y="-18.557667"
         x="-439.04663"
         height="20.799999"
         width="478"
         id="rect7236-9"
         style="opacity:0.31601736;fill:#ffffff;fill-opacity:1;stroke-width:1;stroke-miterlimit:4;stroke-dasharray:none" />
    </clipPath>
  </defs>
  <sodipodi:namedview
     id="base"
     pagecolor="#ffffff"
     bordercolor="#666666"
     borderopacity="1.0"
     inkscape:pageopacity="0.0"
     inkscape:pageshadow="2"
     inkscape:zoom="0.84500001"
     inkscape:cx="362.72189"
     inkscape:cy="503.55029"
     inkscape:document-units="px"
     inkscape:current-layer="g9395"
     showgrid="true"
     units="px"
     inkscape:snap-text-baseline="true"
     inkscape:snap-page="true"
     inkscape:window-width="1360"
     inkscape:window-height="747"
     inkscape:window-x="1920"
     inkscape:window-y="0"
     inkscape:window-maximized="1"
     inkscape:snap-bbox="false"
     inkscape:snap-bbox-edge-midpoints="true"
     inkscape:snap-nodes="true"
     showguides="false"
     inkscape:showpageshadow="2"
     inkscape:pagecheckerboard="0"
     inkscape:deskcolor="#d1d1d1">
    <inkscape:grid
       type="xygrid"
       id="grid5444" />
  </sodipodi:namedview>
  <metadata
     id="metadata1161">
    <rdf:RDF>
      <cc:Work
         rdf:about="">
        <dc:format>image/svg+xml</dc:format>
        <dc:type
           rdf:resource="http://purl.org/dc/dcmitype/StillImage" />
        <dc:title />
      </cc:Work>
    </rdf:RDF>
  </metadata>
  <g
     inkscape:label="Layer 1"
     inkscape:groupmode="layer"
     id="layer1"
     transform="translate(0,-58.874992)">
    <rect
       style="opacity:1;fill:#000000;fill-opacity:1;fill-rule:nonzero;stroke:none;stroke-width:4;stroke-linecap:round;stroke-linejoin:round;stroke-miterlimit:4;stroke-dasharray:none;stroke-dashoffset:0;stroke-opacity:1"
       id="rect5450"
       width="317.5"
       height="238.12502"
       x="0"
       y="58.874992" />
    <g
       id="g9411"
       transform="translate(-0.45483779)">
      <path
         style="fill:#ffffff;stroke-width:0.26458332"
         id="path4"
         d="m 88.428646,105.92118 3.720686,-0.74412 v -0.0828 l -3.803367,-0.4134 0.248062,-0.66148 -4.134103,-0.4134 0.661457,-0.49609 -4.299462,-0.0828 0.248062,-0.99219 -4.630192,1.07487 0.24803,-0.90951 -2.315095,0.90951 -0.248029,-0.33072 4.878236,-2.23244 -1.074867,-0.661417 5.126285,-2.97656 -1.074865,-0.74416 3.803367,-3.803337 -1.074859,0.0828 3.307278,-3.968735 -0.826825,-0.4134 3.059237,-3.72071 h -0.165375 l -3.968734,2.56314 -0.330729,-0.90949 -4.299463,2.81119 0.165376,-1.07489 -4.216781,3.307295 -0.578807,-1.15755 -3.555325,4.79554 -0.41341,-1.24025 -2.811187,4.630207 -0.165374,-0.16531 1.405595,-3.224567 H 70.2386 l 2.067051,-6.779915 -1.570959,0.57875 1.570959,-7.689407 -1.65364,0.49609 -0.413411,-7.027974 -0.826818,1.074871 -0.992184,-6.779913 -1.15755,0.496093 -1.074864,-6.201164 H 66.02181 l -0.992184,6.201164 -1.157548,-0.496093 -0.992185,6.779913 -0.826817,-1.074871 -0.413409,7.027974 -1.65364,-0.49609 1.570957,7.689407 -1.570957,-0.57875 2.067049,6.779915 H 60.97821 l 1.405594,3.224567 -0.165373,0.16531 -2.893871,-4.630207 -0.496092,1.15757 -3.472642,-4.71286 -0.578773,1.15753 -4.216782,-3.307275 0.165375,1.07489 -4.299464,-2.81121 -0.330728,0.90951 -3.968733,-2.56314 -0.08268,0.0828 3.059232,3.72066 -0.82682,0.41344 3.307279,3.968725 -1.074864,-0.0828 3.803369,3.803347 -1.074865,0.74412 5.12628,2.97655 -1.074865,0.661457 4.878238,2.23243 -0.33073,0.24813 -2.232412,-0.74413 0.248029,0.90951 -4.630188,-1.15757 0.248062,0.99219 -4.299465,0.0828 0.661456,0.4961 -4.134099,0.4134 0.24803,0.66147 -3.80337,0.4134 v 0.0828 l 3.638009,0.66143 -0.330731,0.66147 4.051418,0.74412 -0.744137,0.4961 4.216782,0.41343 -0.248032,0.9095 4.712874,-0.66146 -0.413411,0.9095 4.216779,-0.9922 -0.08268,0.57879 3.472642,-1.24022 0.08268,0.16533 -2.149732,0.90949 0.578775,0.33074 -2.232413,1.24021 0.413408,0.33076 -1.653637,1.57092 h 0.413408 l -1.488276,1.65366 0.33073,0.1653 -1.405594,1.57096 v 0.0826 l 1.73632,-1.07485 0.08268,0.41339 1.901687,-1.15754 -0.08268,0.4134 1.901683,-1.40559 0.165374,0.49609 1.653641,-1.98437 0.165375,0.49609 1.32291,-1.98437 0.24803,0.24813 1.240231,-2.39781 -0.413409,7.93748 h 0.661453 v 0 0 h 0.661458 l -0.413411,-7.93748 1.322911,2.39781 0.248029,-0.24813 1.322911,1.98437 0.165374,-0.49609 1.653642,1.98437 0.165373,-0.49609 1.901687,1.40559 -0.08268,-0.4134 1.901683,1.15754 0.08268,-0.41339 1.736322,1.07485 v -0.0826 l -1.488277,-1.57096 0.330728,-0.1653 -1.488275,-1.65366 h 0.413411 l -1.653642,-1.57092 0.413412,-0.33076 -2.232414,-1.24021 0.413408,-0.24813 -2.067048,-0.99219 0.08268,-0.1653 3.472644,1.24022 -0.08268,-0.5788 4.216781,0.99219 -0.413411,-0.90949 4.712872,0.66147 -0.330725,-0.90949 4.216779,-0.41345 -0.744137,-0.49608 4.051415,-0.74413 z"
         inkscape:connector-curvature="0" />
      <text
         id="text5420"
         y="106.49999"
         x="105.83334"
         style="font-style:normal;font-weight:normal;font-size:3.52778px;line-height:1.25;font-family:sans-serif;text-align:end;letter-spacing:0px;word-spacing:0px;text-anchor:end;fill:#ffffff;fill-opacity:1;stroke:none;stroke-width:0.264583"
         xml:space="preserve"><tspan
           style="font-style:normal;font-variant:normal;font-weight:bold;font-stretch:normal;font-size:35.2778px;font-family:'Open Sans';-inkscape-font-specification:'Open Sans';text-align:start;text-anchor:start;fill:#ffffff;stroke-width:0.264583"
           y="106.49999"
           x="105.83334"
           id="tspan5418"
           sodipodi:role="line">Drug.</tspan></text>
    </g>
    <g
       transform="matrix(0.43877833,0,0,0.43877833,38.064021,130.01194)"
       id="g146"
       style="fill:#ffffff;stroke-width:0.60299999">
      <g
         id="g144"
         style="fill:#ffffff;stroke-width:0.60299999">
        <path
           inkscape:connector-curvature="0"
           d="m 124.2,8.7 v -5 H 3.8 v 5 H 16.3 V 119.3 H 3.8 v 5 h 120.4 v -5 H 111.7 V 8.7 Z m -102.9,0 h 17.6 v 74 c 2.2,0.9 4,2.7 5,4.8 V 8.7 H 61.5 V 119.3 H 43.9 V 95.8 c -1,2.2 -2.8,3.9 -5,4.8 v 18.7 H 21.3 Z m 85.4,110.6 H 89.1 v -18.7 c -2.2,-1 -4,-2.9 -5,-5.1 v 23.9 H 66.5 V 8.7 H 84.1 V 88 c 1,-2.3 2.8,-4.1 5,-5.1 V 8.7 h 17.6 z"
           id="path134"
           style="fill:#ffffff;stroke-width:0.60299999" />
        <circle
           cx="35.099998"
           cy="91.699997"
           r="8.3000002"
           id="circle136"
           style="fill:#ffffff;stroke-width:0.60299999" />
        <circle
           cx="93.099998"
           cy="91.699997"
           r="8.3000002"
           id="circle138"
           style="fill:#ffffff;stroke-width:0.60299999" />
        <path
           inkscape:connector-curvature="0"
           d="m 68,32.3 v 75.5 c 5.8,-0.2 10.8,-0.5 14.6,-2 V 75.1 C 81.9,74.2 81.4,73.6 81.1,73.3 81,73.2 80.9,73.1 80.9,73.1 78.4,70.9 75.7,69.6 75.7,69.6 73.7,68.6 71.8,68.1 70.5,67.9 76.8,65.6 81.6,60 82.6,53.1 V 47.8 C 81.5,40.1 75.6,33.9 68,32.3 Z"
           id="path140"
           style="fill:#ffffff;stroke-width:0.60299999" />
        <path
           inkscape:connector-curvature="0"
           d="M 60,108 V 32.4 c -8.2,1.9 -14.3,9.3 -14.3,18.1 0,8.1 5.1,14.9 12.3,17.5 -2.5,0.5 -6.2,1.6 -9.8,4.4 -1,0.7 -1.9,1.5 -2.7,2.4 v 31.5 c 3.8,1.5 8.8,1.7 14.5,1.7 z"
           id="path142"
           style="fill:#ffffff;stroke-width:0.60299999" />
      </g>
    </g>
    <text
       id="text5442"
       y="172.64583"
       x="105.83334"
       style="font-style:normal;font-weight:normal;font-size:3.52778px;line-height:1.25;font-family:sans-serif;text-align:end;letter-spacing:0px;word-spacing:0px;text-anchor:end;fill:#ffffff;fill-opacity:1;stroke:none;stroke-width:0.264583"
       xml:space="preserve"><tspan
         style="font-style:normal;font-variant:normal;font-weight:bold;font-stretch:normal;font-size:35.2778px;font-family:'Open Sans';-inkscape-font-specification:'Open Sans';text-align:start;text-anchor:start;fill:#ffffff;stroke-width:0.264583"
         y="172.64583"
         x="105.83334"
         id="tspan5440"
         sodipodi:role="line">Problem.</tspan></text>
    <g
       id="g9395">
      <rect
         y="201.74998"
         x="24.112865"
         height="21.166676"
         width="268.66974"
         id="rect9390"
         style="opacity:1;fill:#0073ae;fill-opacity:1;fill-rule:nonzero;stroke:none;stroke-width:4.24881;stroke-linecap:round;stroke-linejoin:round;stroke-miterlimit:4;stroke-dasharray:none;stroke-dashoffset:0;stroke-opacity:1" />
      <text
         id="text5448"
         y="216.15067"
         x="158.48955"
         style="font-style:normal;font-weight:normal;font-size:3.52778px;line-height:1.25;font-family:sans-serif;text-align:end;letter-spacing:0px;word-spacing:0px;text-anchor:end;fill:#ffffff;fill-opacity:1;stroke:none;stroke-width:0.264583"
         xml:space="preserve"><tspan
           id="tspan9386"
           style="font-style:normal;font-variant:normal;font-weight:bold;font-stretch:normal;font-size:14.1111px;font-family:'Open Sans';-inkscape-font-specification:'Open Sans';text-align:center;text-anchor:middle;fill:#ffffff;stroke-width:0.264583"
           y="216.15067"
           x="158.48955"
           sodipodi:role="line">Less moralising—more legalising!</tspan></text>
    </g>
    <text
       xml:space="preserve"
       style="font-style:normal;font-weight:normal;font-size:3.52778px;line-height:1.25;font-family:sans-serif;text-align:end;letter-spacing:0px;word-spacing:0px;text-anchor:end;fill:#4d4d4d;fill-opacity:1;stroke:none;stroke-width:0.264583"
       x="-294.35416"
       y="314.85416"
       id="text7854"
       transform="rotate(-90)"><tspan
         sodipodi:role="line"
         id="tspan7852"
         x="-294.35416"
         y="314.85416"
         style="font-style:normal;font-variant:normal;font-weight:normal;font-stretch:normal;font-size:4.23333px;font-family:'Open Sans Condensed';-inkscape-font-specification:'Open Sans Condensed, ';text-align:start;text-anchor:start;fill:#4d4d4d;stroke-width:0.264583">PPAU_AUTH_TAG</tspan></text>
    <text
       id="text7858"
       y="314.85416"
       x="-62.314579"
       style="font-style:normal;font-weight:normal;font-size:3.52778px;line-height:1.25;font-family:sans-serif;text-align:end;letter-spacing:0px;word-spacing:0px;text-anchor:end;fill:#4d4d4d;fill-opacity:1;stroke:none;stroke-width:0.264583"
       xml:space="preserve"
       transform="rotate(-90)"><tspan
         style="font-style:normal;font-variant:normal;font-weight:normal;font-stretch:normal;font-size:4.23333px;font-family:'Open Sans Condensed';-inkscape-font-specification:'Open Sans Condensed, ';text-align:end;text-anchor:end;fill:#4d4d4d;stroke-width:0.264583"
         y="314.85416"
         x="-61.520824"
         sodipodi:role="line"
         id="tspan7860">'Cannabis' by Mooms, AU from the Noun Project.  'jail' by SBTS from the Noun Project. </tspan></text>
    <rect
       style="display:inline;fill:#000000;fill-opacity:0;stroke-width:0.28222224;stroke-miterlimit:4;stroke-dasharray:none"
       id="rect7736"
       width="458.89334"
       height="331.89334"
       x="-345.58768"
       y="2.8413706"
       transform="scale(-1,1)" />
    <g
       id="g2130"
       transform="translate(43.618514)">
      <g
         id="g1573"
         style="display:inline"
         transform="matrix(0.35876812,0,0,0.35876812,13.513638,222.12172)">
        <path
           id="path1561"
           d="m 170.345,78.778 v 16.65 H 159.081 V 41.349 h 11.264 v 3.428 c 1.936,-1.936 3.754,-3.148 5.457,-3.638 1.702,-0.49 3.778,-0.735 6.226,-0.735 4.314,0 7.882,1.924 10.704,5.771 2.822,3.848 4.221,8.78 4.198,14.796 -0.023,6.04 -1.458,10.646 -4.302,13.817 -2.729,3.055 -6.25,5.025 -10.564,5.912 -0.7,0.14 -3.032,0.082 -6.996,-0.175 -1.633,-0.115 -3.208,-0.698 -4.723,-1.747 z M 177.831,49.5 c -2.402,0 -4.256,0.991 -5.562,2.974 -1.282,1.958 -1.924,4.792 -1.924,8.5 v 9.725 c 0.443,1.166 2.938,1.749 7.486,1.749 2.425,0 4.272,-0.979 5.545,-2.938 1.269,-1.959 1.905,-4.804 1.905,-8.536 0,-3.731 -0.641,-6.576 -1.924,-8.535 -1.282,-1.96 -3.125,-2.939 -5.526,-2.939 z"
           style="fill:#ffffff"
           inkscape:connector-curvature="0" />
        <path
           id="path1563"
           d="m 205.362,26.098 h 11.264 v 10.214 h -11.264 z m 0,15.251 h 11.264 v 39.178 h -11.264 z"
           style="fill:#ffffff"
           inkscape:connector-curvature="0" />
        <path
           id="path1565"
           d="m 241.186,55.761 c -1.562,2.519 -2.344,4.757 -2.344,6.716 v 18.05 H 227.579 V 41.349 h 11.263 v 6.437 c 1.446,-2.565 3.113,-4.431 5.002,-5.597 1.866,-1.189 4.116,-1.784 6.751,-1.784 0.374,0 0.781,0.012 1.225,0.035 0.163,0 0.804,0.082 1.924,0.245 v 8.535 c -5.411,-0.42 -9.597,1.76 -12.558,6.541 z"
           style="fill:#ffffff"
           inkscape:connector-curvature="0" />
        <path
           id="path1567"
           d="m 292.541,78.253 c -4.454,2.286 -9.958,3.428 -16.51,3.428 -8.045,0 -13.292,-1.224 -15.741,-3.672 -2.285,-2.286 -3.428,-5.364 -3.428,-9.235 0,-4.594 1.422,-7.964 4.267,-10.109 2.845,-2.146 7.309,-3.218 13.395,-3.218 h 6.646 v -0.979 c 0,-1.982 -0.704,-3.435 -2.115,-4.354 -1.411,-0.923 -3.598,-1.383 -6.56,-1.383 -2.425,0 -4.673,0.268 -6.749,0.805 -2.076,0.536 -4.011,1.341 -5.807,2.414 V 42.4 c 2.425,-0.653 4.851,-1.143 7.276,-1.469 2.588,-0.35 5.023,-0.524 7.308,-0.524 6.39,0 10.984,1.388 13.782,4.163 2.822,2.798 4.235,7.334 4.235,13.607 v 20.076 z m -17.21,-15.356 c -2.332,0 -4.104,0.443 -5.317,1.329 -1.236,0.909 -1.833,2.215 -1.786,3.918 0.047,1.539 0.527,2.775 1.437,3.708 0.723,0.746 2.052,1.201 3.988,1.364 3.545,0.303 6.026,0.082 7.448,-0.665 0.047,-0.023 0.07,-2.764 0.07,-8.22 v -1.434 z"
           style="fill:#ffffff"
           inkscape:connector-curvature="0" />
        <path
           id="path1569"
           d="m 298.56,50.304 v -1.609 l 15.146,-18.469 h 1.749 V 41.35 h 11.613 v 8.955 H 315.455 V 66.92 c 0,1.819 0.315,3.043 0.945,3.673 0.652,0.653 1.947,0.979 3.882,0.979 h 5.807 v 8.955 h -9.654 c -4.454,0 -7.614,-1.026 -9.479,-3.079 -1.866,-2.052 -2.798,-5.562 -2.798,-10.529 V 50.304 Z"
           style="fill:#ffffff"
           inkscape:connector-curvature="0" />
        <path
           id="path1571"
           d="m 369.292,60.833 v 3.568 h -26.34 c 0.256,2.938 1.208,5.142 2.85,6.611 1.646,1.469 3.937,2.204 6.875,2.204 2.378,0 4.808,-0.389 7.294,-1.173 2.481,-0.779 5.03,-1.964 7.642,-3.549 v 9.654 c -2.659,1.12 -5.324,1.966 -7.992,2.537 -2.672,0.569 -5.335,0.856 -7.994,0.856 -6.389,0 -11.352,-1.803 -14.882,-5.403 -3.536,-3.605 -5.301,-8.658 -5.301,-15.165 0,-6.39 1.737,-11.415 5.212,-15.076 3.475,-3.661 8.255,-5.492 14.342,-5.492 5.55,0 9.986,1.854 13.311,5.562 3.32,3.707 4.983,8.663 4.983,14.866 z M 357.713,56.67 c 0,-2.379 -0.625,-4.295 -1.87,-5.755 -1.25,-1.455 -2.887,-2.185 -4.916,-2.185 -2.168,0 -3.936,0.683 -5.298,2.045 -1.367,1.366 -2.223,3.33 -2.572,5.895 z"
           style="fill:#ffffff"
           inkscape:connector-curvature="0" />
      </g>
      <g
         id="g1585"
         style="display:inline"
         transform="matrix(0.35876812,0,0,0.35876812,13.513638,222.12172)">
        <path
           id="path1575"
           d="m 385.023,78.498 v 16.93 h -6.471 V 41.349 h 6.471 v 5.492 c 1.749,-2.588 3.556,-4.309 5.422,-5.16 1.866,-0.851 4.232,-1.277 7.102,-1.277 4.757,0 8.621,1.889 11.597,5.667 2.971,3.778 4.459,8.745 4.459,14.901 0,6.157 -1.488,10.972 -4.459,14.447 -2.976,3.475 -6.84,5.212 -11.597,5.212 -2.869,0 -4.921,-0.1 -6.157,-0.296 -1.237,-0.198 -3.359,-0.811 -6.367,-1.837 z M 406.92,60.973 c 0,-4.734 -0.975,-8.448 -2.922,-11.14 -1.947,-2.696 -4.622,-4.041 -8.026,-4.041 -2.915,0 -5.375,0.781 -7.381,2.343 -1.959,1.539 -3.148,4.291 -3.568,8.255 v 15.811 c 3.335,2.029 6.984,3.043 10.949,3.043 3.404,0 6.079,-1.206 8.026,-3.622 1.948,-2.41 2.922,-5.962 2.922,-10.649 z"
           style="fill:#ffffff"
           inkscape:connector-curvature="0" />
        <path
           id="path1577"
           d="m 437.565,81.191 c -5.224,0.094 -9.293,-1.084 -12.208,-3.533 -2.262,-1.912 -3.393,-4.757 -3.393,-8.535 0,-4.408 1.474,-7.731 4.424,-9.97 2.95,-2.239 7.353,-3.358 13.206,-3.358 h 9.024 v -0.629 c 0,-2.962 -0.975,-5.254 -2.922,-6.873 -1.947,-1.623 -4.681,-2.432 -8.201,-2.432 -2.239,0 -4.42,0.268 -6.542,0.804 -2.122,0.536 -4.162,1.341 -6.121,2.414 v -5.946 c 2.355,-0.91 4.641,-1.592 6.856,-2.046 2.215,-0.455 4.372,-0.682 6.471,-0.682 5.667,0 9.899,1.469 12.698,4.408 2.798,2.938 4.197,7.345 4.197,13.222 v 0.14 l -0.035,19.659 c -4.477,2.145 -10.295,3.264 -17.454,3.357 z m 4.652,-20.358 c -5.2,0 -8.803,0.595 -10.809,1.784 -2.006,1.189 -3.009,3.218 -3.009,6.087 0,2.262 0.781,4.116 2.345,5.562 1.562,1.445 3.579,2.168 6.051,2.168 0.07,0 0.141,0 0.21,0 5.527,0 9.398,-0.618 11.613,-1.854 0,-6.623 0,-10.727 0,-12.313 v -1.434 z"
           style="fill:#ffffff"
           inkscape:connector-curvature="0" />
        <path
           id="path1579"
           d="m 487.871,46.771 c -0.723,-0.419 -1.504,-0.66 -2.344,-0.716 -0.84,-0.061 -1.771,-0.03 -2.798,0.086 -3.521,0.443 -6.285,2.168 -8.29,5.177 -2.006,3.008 -3.009,6.728 -3.009,11.159 v 18.05 h -6.472 V 41.349 h 6.472 v 5.771 c 1.353,-2.378 3.113,-4.092 5.282,-5.142 2.169,-1.05 4.804,-1.574 7.905,-1.574 0.443,0 0.933,0.029 1.47,0.087 0.536,0.058 1.131,0.146 1.783,0.262 v 6.018 z"
           style="fill:#ffffff"
           inkscape:connector-curvature="0" />
        <path
           id="path1581"
           d="M 493.225,46.352 V 41.28 h 4.723 v -4.932 l 6.471,-6.122 V 41.35 h 13.258 v 5.002 H 504.419 V 67.62 c 0,3.195 0.437,5.247 1.312,6.157 0.873,0.909 2.652,1.364 5.334,1.364 h 6.611 v 5.387 h -6.611 c -4.968,0 -8.396,-0.928 -10.284,-2.78 -1.889,-1.856 -2.833,-5.231 -2.833,-10.128 V 46.352 Z"
           style="fill:#ffffff"
           inkscape:connector-curvature="0" />
        <path
           id="path1583"
           d="m 530.518,97.702 6.996,-17.805 -15.846,-38.548 h 6.821 l 12.243,30.643 12.242,-30.643 h 6.821 l -22.457,56.353 z"
           style="fill:#ffffff"
           inkscape:connector-curvature="0" />
      </g>
      <text
         xml:space="preserve"
         style="font-style:normal;font-weight:normal;font-size:14.1111px;line-height:1.25;font-family:sans-serif;letter-spacing:0px;word-spacing:0px;display:inline;fill:#000000;fill-opacity:1;stroke:none;stroke-width:0.264584"
         x="68.832443"
         y="267.15378"
         id="text459"><tspan
           sodipodi:role="line"
           id="tspan457"
           style="font-style:normal;font-variant:normal;font-weight:normal;font-stretch:normal;font-size:14.1111px;font-family:Arial;-inkscape-font-specification:Arial;fill:#ffffff;stroke-width:0.264584"
           x="68.832443"
           y="267.15378">ukpirate.party</tspan></text>
      <g
         id="Signet"
         style="display:inline"
         transform="matrix(0.35876812,0,0,0.35876812,13.513638,222.12172)">
        <polygon
           id="polygon1606"
           points="98.266,82.923 99.911,84.769 97.45,84.546 97.035,86.982 95.673,84.919 93.51,86.115 94.275,83.763 91.993,82.817 94.307,81.949 93.623,79.575 95.743,80.844 97.175,78.829 97.506,81.277 99.975,81.138 "
           style="fill:#ffffff" />
        <polygon
           id="polygon1608"
           points="109.492,58.109 111.137,59.954 108.676,59.73 108.261,62.165 106.9,60.103 104.738,61.297 105.501,58.949 103.218,58.002 105.532,57.135 104.85,54.758 106.971,56.027 108.401,54.012 108.732,56.46 111.201,56.325 "
           style="fill:#ffffff" />
        <polygon
           id="polygon1610"
           points="97.083,47.473 98.729,49.315 96.269,49.096 95.853,51.531 94.493,49.469 92.328,50.663 93.093,48.312 90.81,47.366 93.125,46.498 92.441,44.124 94.562,45.393 95.993,43.377 96.324,45.827 98.791,45.687 "
           style="fill:#ffffff" />
        <polygon
           id="polygon1612"
           points="84.084,62.244 85.731,64.091 83.271,63.867 82.854,66.301 81.495,64.24 79.331,65.434 80.094,63.083 77.811,62.139 80.126,61.269 79.442,58.895 81.563,60.164 82.994,58.149 83.325,60.597 85.794,60.458 "
           style="fill:#ffffff" />
        <polygon
           id="polygon1614"
           points="100.103,66.364 100.905,64.891 101.586,66.425 103.235,66.731 101.988,67.854 102.204,69.52 100.752,68.675 99.238,69.398 99.587,67.757 98.434,66.54 "
           style="fill:#ffffff" />
        <g
           id="g1634">
          <path
             id="path1616"
             d="M 137.716,89.588 C 131.41,124.789 97.758,148.221 62.551,141.913 27.344,135.607 3.914,101.956 10.221,66.755 16.525,31.549 50.177,8.125 85.386,14.432 c 35.205,6.305 58.634,39.955 52.33,75.156 z"
             style="fill:#ffffff;stroke:#ffffff;stroke-width:5;stroke-miterlimit:10"
             inkscape:connector-curvature="0" />
          <g
             id="g1622">
            <path
               id="path1618"
               d="m 83.782,23.389 c -30.26,-5.419 -59.186,14.72 -64.604,44.976 -5.42,30.26 14.716,59.188 44.976,64.61 30.259,5.415 59.183,-14.727 64.602,-44.984 5.42,-30.256 -14.715,-59.182 -44.974,-64.602 z m 53.931,66.206 C 131.407,124.801 97.756,148.233 62.548,141.929 27.34,135.622 3.912,101.968 10.22,66.76 16.524,31.554 50.178,8.125 85.386,14.432 c 35.205,6.305 58.634,39.959 52.327,75.163 z"
               inkscape:connector-curvature="0" />
            <path
               id="path1620"
               d="m 74.038,145.454 c -3.973,0 -7.986,-0.357 -11.929,-1.063 C 44.423,141.222 29.029,131.357 18.765,116.612 8.499,101.866 4.591,84.004 7.759,66.319 13.508,34.211 41.32,10.907 73.89,10.907 c 3.976,0 7.992,0.358 11.937,1.065 17.684,3.167 33.076,13.032 43.341,27.776 10.265,14.745 14.173,32.604 11.006,50.288 -5.751,32.111 -33.566,55.418 -66.136,55.418 z M 73.89,15.907 c -30.145,0 -55.887,21.572 -61.209,51.294 -2.933,16.371 0.685,32.904 10.187,46.554 9.502,13.648 23.751,22.781 40.122,25.714 3.652,0.654 7.37,0.985 11.048,0.985 30.146,0 55.891,-21.574 61.215,-51.299 2.932,-16.37 -0.686,-32.901 -10.188,-46.55 -9.502,-13.649 -23.75,-22.78 -40.12,-25.711 -3.654,-0.655 -7.374,-0.987 -11.055,-0.987 z m 0.133,120.448 c -0.002,0 0.001,0 0,0 -3.435,0 -6.904,-0.31 -10.311,-0.919 C 32.143,129.78 11.061,99.494 16.715,67.924 21.687,40.159 45.738,20.007 73.903,20.007 c 3.437,0 6.908,0.31 10.318,0.92 15.292,2.739 28.601,11.27 37.478,24.021 8.876,12.75 12.255,28.193 9.516,43.483 -4.972,27.768 -29.027,47.924 -57.192,47.924 z M 73.905,25.007 c -25.74,0 -47.722,18.42 -52.267,43.798 -5.169,28.856 14.101,56.539 42.956,61.708 3.117,0.558 6.289,0.841 9.428,0.841 25.742,0 47.726,-18.422 52.272,-43.805 2.504,-13.976 -0.585,-28.091 -8.698,-39.746 C 109.483,36.15 97.318,28.353 83.341,25.85 80.221,25.291 77.046,25.007 73.905,25.007 Z"
               style="fill:#ffffff"
               inkscape:connector-curvature="0" />
          </g>
          <g
             id="g1632">
            <polygon
               id="polygon1624"
               points="49.674,32.691 50.004,98.056 57.128,94.95 55.864,91.806 53.914,33.449 "
               style="stroke:#ffffff;stroke-width:5;stroke-miterlimit:10" />
            <path
               id="path1626"
               d="m 43.733,45.493 c 0,0 60.699,-23.026 69.619,18.67 0,0 5.716,19.558 -22.992,26.528 0,0 -19.617,4.877 -21.554,4.893 -1.947,0.02 -1.947,0.02 -1.947,0.02 0,0 -19.291,3.84 -14.798,27.627 0,0 -14.917,-21.275 12.979,-38.168 0,0 10.796,-9.016 7.42,-22.749 0,-10e-4 -3.342,-16.313 -28.727,-16.821 z"
               style="stroke:#ffffff;stroke-width:5;stroke-miterlimit:10"
               inkscape:connector-curvature="0" />
            <polygon
               id="polygon1628"
               points="49.928,104.606 57.549,96.667 49.981,93.335 "
               style="stroke:#ffffff;stroke-width:5;stroke-miterlimit:10" />
            <path
               id="path1630"
               d="m 84.589,92.105 c 0,0 -29.423,4.918 -32.373,17.679 -2.95,12.763 -3.591,-19.303 15.273,-20.748 18.864,-1.433 1.617,-0.877 1.617,-0.877 L 87.09,86.55 84.822,90.792"
               style="stroke:#ffffff;stroke-width:5;stroke-miterlimit:10"
               inkscape:connector-curvature="0" />
          </g>
        </g>
        <g
           id="g1652">
          <path
             id="path1636"
             d="M 137.715,89.176 C 131.409,124.377 97.757,147.809 62.55,141.501 27.343,135.195 3.913,101.544 10.22,66.343 16.524,31.137 50.176,7.713 85.385,14.02 c 35.206,6.305 58.634,39.955 52.33,75.156 z"
             style="fill:#ffffff"
             inkscape:connector-curvature="0" />
          <g
             id="g1640">
            <path
               id="path1638"
               d="m 83.781,22.977 c -30.26,-5.419 -59.186,14.72 -64.604,44.976 -5.42,30.26 14.716,59.188 44.976,64.61 30.259,5.415 59.183,-14.727 64.602,-44.984 5.42,-30.256 -14.715,-59.183 -44.974,-64.602 z m 53.932,66.206 C 131.407,124.389 97.756,147.821 62.548,141.517 27.34,135.209 3.912,101.556 10.22,66.348 16.524,31.142 50.178,7.713 85.386,14.02 c 35.205,6.305 58.633,39.959 52.327,75.163 z"
               inkscape:connector-curvature="0" />
          </g>
          <g
             id="g1650">
            <polygon
               id="polygon1642"
               points="49.674,32.279 50.003,97.644 57.127,94.538 55.864,91.394 53.913,33.037 " />
            <path
               id="path1644"
               d="m 43.733,45.081 c 0,0 60.699,-23.026 69.619,18.67 0,0 5.716,19.558 -22.992,26.528 0,0 -19.617,4.877 -21.554,4.893 -1.947,0.02 -1.947,0.02 -1.947,0.02 0,0 -19.291,3.84 -14.798,27.627 0,0 -14.917,-21.275 12.979,-38.168 0,0 10.796,-9.016 7.42,-22.749 C 72.459,61.901 69.118,45.589 43.733,45.081 Z"
               inkscape:connector-curvature="0" />
            <polygon
               id="polygon1646"
               points="49.928,104.194 57.549,96.255 49.98,92.923 " />
            <path
               id="path1648"
               d="m 84.588,91.693 c 0,0 -29.423,4.918 -32.373,17.679 -2.95,12.763 -3.591,-19.303 15.273,-20.748 18.864,-1.433 1.617,-0.877 1.617,-0.877 l 17.984,-1.609 -2.268,4.242"
               inkscape:connector-curvature="0" />
          </g>
        </g>
      </g>
    </g>
  </g>
</svg>
