<?xml version="1.0" encoding="UTF-8" standalone="no"?>
<!-- Created with Inkscape (http://www.inkscape.org/) -->

<svg
   width="210mm"
   height="297mm"
   viewBox="0 0 744.09448819 1052.3622047"
   id="svg2"
   version="1.1"
   inkscape:version="1.2.2 (1:1.2.2+202305151915+b0a8486541)"
   sodipodi:docname="nothing-to-hide.svg"
   inkscape:export-filename="/Users/alexjago/Dropbox/_PPAU/Artwork/__Unauthorised/nothing-to-hide/nothing-to-hide-both-para.png"
   inkscape:export-xdpi="90"
   inkscape:export-ydpi="90"
   xmlns:inkscape="http://www.inkscape.org/namespaces/inkscape"
   xmlns:sodipodi="http://sodipodi.sourceforge.net/DTD/sodipodi-0.dtd"
   xmlns="http://www.w3.org/2000/svg"
   xmlns:svg="http://www.w3.org/2000/svg"
   xmlns:rdf="http://www.w3.org/1999/02/22-rdf-syntax-ns#"
   xmlns:cc="http://creativecommons.org/ns#"
   xmlns:dc="http://purl.org/dc/elements/1.1/">
  <defs
     id="defs4">
    <clipPath
       clipPathUnits="userSpaceOnUse"
       id="clipPath8758">
      <rect
         style="opacity:1;fill:#ffffff;fill-opacity:1;fill-rule:evenodd;stroke:none;stroke-width:0.37795275;stroke-linecap:round;stroke-linejoin:round;stroke-miterlimit:4;stroke-dasharray:0.37795275, 1.13385826;stroke-dashoffset:0;stroke-opacity:1"
         id="rect8760"
         width="732.11151"
         height="766.16107"
         x="-199.81206"
         y="8.5267887" />
    </clipPath>
    <clipPath
       clipPathUnits="userSpaceOnUse"
       id="clipPath9161">
      <rect
         style="opacity:1;fill:#ffffff;fill-opacity:1;fill-rule:evenodd;stroke:none;stroke-width:0.37795275;stroke-linecap:round;stroke-linejoin:round;stroke-miterlimit:4;stroke-dasharray:0.37795275, 1.13385826;stroke-dashoffset:0;stroke-opacity:1"
         id="rect9163"
         width="440"
         height="620"
         x="140"
         y="12.362205" />
    </clipPath>
    <clipPath
       clipPathUnits="userSpaceOnUse"
       id="clipPath9197">
      <rect
         style="opacity:1;fill:#ffffff;fill-opacity:1;fill-rule:evenodd;stroke:none;stroke-width:0.37795275;stroke-linecap:round;stroke-linejoin:round;stroke-miterlimit:4;stroke-dasharray:0.37795275, 1.13385826;stroke-dashoffset:0;stroke-opacity:1"
         id="rect9199"
         width="400"
         height="620"
         x="160"
         y="12.362205" />
    </clipPath>
    <inkscape:perspective
       id="perspective5964"
       inkscape:persp3d-origin="607.4361 : 444.11906 : 1"
       inkscape:vp_z="1214.8722 : 666.17859 : 1"
       inkscape:vp_y="0 : 1000 : 0"
       inkscape:vp_x="0 : 666.17859 : 1"
       sodipodi:type="inkscape:persp3d" />
  </defs>
  <sodipodi:namedview
     id="base"
     pagecolor="#ffffff"
     bordercolor="#666666"
     borderopacity="1.0"
     inkscape:pageopacity="1"
     inkscape:pageshadow="2"
     inkscape:zoom="1.8173401"
     inkscape:cx="427.82306"
     inkscape:cy="748.07132"
     inkscape:document-units="px"
     inkscape:current-layer="Text-4"
     showgrid="true"
     inkscape:snap-bbox="true"
     inkscape:snap-bbox-edge-midpoints="false"
     inkscape:window-width="1352"
     inkscape:window-height="743"
     inkscape:window-x="-103"
     inkscape:window-y="543"
     inkscape:window-maximized="0"
     inkscape:snap-text-baseline="true"
     inkscape:snap-nodes="true"
     inkscape:bbox-nodes="true"
     inkscape:snap-intersection-paths="true"
     inkscape:snap-smooth-nodes="true"
     inkscape:showpageshadow="2"
     inkscape:pagecheckerboard="0"
     inkscape:deskcolor="#d1d1d1">
    <inkscape:grid
       type="xygrid"
       id="grid8133" />
  </sodipodi:namedview>
  <metadata
     id="metadata7">
    <rdf:RDF>
      <cc:Work
         rdf:about="">
        <dc:format>image/svg+xml</dc:format>
        <dc:type
           rdf:resource="http://purl.org/dc/dcmitype/StillImage" />
        <dc:title />
      </cc:Work>
    </rdf:RDF>
  </metadata>
  <g
     inkscape:label="Humans"
     inkscape:groupmode="layer"
     id="layer1"
     style="display:inline"
     sodipodi:insensitive="true">
    <text
       xml:space="preserve"
       style="color:#000000;font-style:normal;font-variant:normal;font-weight:normal;font-stretch:normal;font-size:9.10236px;line-height:0%;font-family:sans-serif;-inkscape-font-specification:sans-serif;text-indent:0;text-align:start;text-decoration:none;text-decoration-line:none;text-decoration-style:solid;text-decoration-color:#000000;letter-spacing:0px;word-spacing:0px;text-transform:none;writing-mode:lr-tb;direction:ltr;baseline-shift:baseline;text-anchor:start;white-space:normal;clip-rule:nonzero;display:inline;overflow:visible;visibility:visible;opacity:1;isolation:auto;mix-blend-mode:normal;color-interpolation:sRGB;color-interpolation-filters:linearRGB;solid-color:#000000;solid-opacity:1;fill:#000000;fill-opacity:1;fill-rule:nonzero;stroke:none;stroke-width:1px;stroke-linecap:butt;stroke-linejoin:miter;stroke-miterlimit:4;stroke-dasharray:none;stroke-dashoffset:0;stroke-opacity:1;marker:none;color-rendering:auto;image-rendering:auto;shape-rendering:auto;text-rendering:auto;enable-background:accumulate"
       x="110.27188"
       y="603.99292"
       id="text8176"
       transform="scale(0.99979942,1.0002006)"><tspan
         sodipodi:role="line"
         id="tspan8178"
         x="110.27188"
         y="603.99292"
         style="font-size:18.2047px;line-height:10;stroke-width:1px"> </tspan></text>
    <path
       inkscape:connector-curvature="0"
       style="display:inline;fill:none;fill-rule:evenodd;stroke:#000000;stroke-width:5.625;stroke-linecap:round;stroke-linejoin:round;stroke-miterlimit:4;stroke-dasharray:none;enable-background:new"
       id="path2632"
       d="m 533.28546,223.64318 c 1.45459,-7.71213 2.90918,-14.41838 2.27278,-22.84821 m 46.44355,-44.89061 c 1.37155,3.52069 -2.85721,8.40373 -7.08596,13.28677 4.90148,-1.36755 9.81342,-4.13923 13.34862,-9.72954 m 1.30393,12.64736 c -2.11693,2.79255 -4.21837,3.47894 -6.31448,3.46328 m -41.47979,34.09255 c 2.76372,4.23319 1.32989,9.1371 4.78724,14.07756 m -2.23126,18.23767 c -10.48104,-0.0783 -30.06631,2.58378 -32.12615,-2.34624 m 39.79142,5.21186 c 4.17159,2.83953 9.12506,-5.54856 13.30184,-3.41108 m 13.28635,-1.30494 c 23.74648,1.58157 36.3756,-5.34499 43.38372,-8.101 m -67.79781,2.30191 c 5.53269,7.76432 11.31999,-18.87187 15.55387,-24.45695 M 650.127,487.09765 c 4.97422,-11.19637 4.35859,-22.43441 7.94057,-34.34311 10.71474,-31.51405 11.64733,-63.10107 4.19499,-94.75083 -7.43151,-34.45792 2.62607,-71.59356 -14.61368,-102.61429 -6.87821,-14.79527 -31.24033,-27.61486 -57.69344,-41.15218 -8.34326,-5.67904 -9.63682,-19.7305 -8.79779,-38.68066 m 50.60747,243.30118 c -4.03658,-21.09289 -19.33592,-31.03644 -19.24243,-43.6734 -3.34813,-19.68349 22.54123,-24.40472 2.77673,-91.95299 m 15.47346,80.85592 c 1.26242,18.26377 2.51956,37.22956 0.98705,55.47249 -4.32751,18.22201 -1.68836,39.30438 -3.9352,59.64817 -6.36134,9.7818 -9.93806,20.98855 -10.73037,33.62017 -2.87278,10.50992 -3.64434,20.33348 -1.60525,28.07168 7.68085,0.75949 10.59529,-15.36679 14.21886,-32.89206 -0.74033,5.61117 -0.78193,11.2276 -1.51694,16.13674 3.42613,9.15283 4.76121,17.58786 -0.19225,25.97593 -2.89368,13.31807 0.59481,14.04626 4.8028,11.97136 1.35073,6.3289 3.45736,4.94051 6.97698,1.45631 2.1013,-0.68644 4.90149,-1.36747 8.44707,-8.36197 1.4027,-0.69163 2.8105,-2.08529 4.23395,-5.58513 4.93789,-6.28188 4.98979,-13.30235 3.64434,-20.33334 0.11425,-15.4451 -1.87287,-30.20383 -7.3484,-45.69075 M 622.58034,338.04877 c 1.35584,5.62685 8.88603,26.74578 15.77982,39.4349 m -67.40293,-51.05396 c 29.79087,34.62494 67.79774,-2.30192 43.57078,-33.37486 m -12.11224,31.50358 c 4.20274,-1.37279 4.92232,-4.17577 4.24953,-7.69125 -2.8105,2.08528 -4.9379,6.28193 -4.24953,7.69125 z m -100.63301,1.35455 c 4.19243,0.0313 5.6055,-2.0644 4.23922,-6.28714 m 33.47679,8.67514 c -28.15711,27.87326 -62.92227,4.4446 -41.66947,-34.71367 0.72477,-3.50504 1.45466,-7.71213 0.0831,-11.23283 m 4.4808,55.49859 c -0.82865,17.54605 -7.26265,37.15647 -9.48872,54.69218 m 41.82518,-175.2101 c -7.75877,9.7713 -16.20072,17.43123 -26.70764,20.8632 -21.00359,5.45982 -34.38336,19.40167 -35.96785,44.66507 2.50919,38.63368 -0.48311,65.29076 -7.58991,81.38573 -7.81074,16.79176 -10.03156,33.62539 -8.75876,50.48505 -0.2546,34.40044 6.46258,70.95934 -7.73545,101.04318 -2.12732,4.19667 -2.15334,7.70683 0.61564,11.23797 5.5275,8.4664 8.24976,18.31598 15.87864,26.096 3.47285,2.83432 6.24182,6.36539 9.71468,9.19977 m 22.6217,-129.71764 c 2.05466,5.632 4.81326,10.56725 8.2758,14.80567 m 89.91557,-63.92059 c 0.052,-7.02054 2.18974,-12.62124 6.40286,-15.39816 m -62.5923,54.29541 c -0.0208,2.80829 3.46766,3.53634 4.87554,2.14269 0.71944,-2.80295 -2.76905,-3.53114 -4.87554,-2.14269 z m 54.2725,31.29733 c 2.12732,-4.1966 3.55084,-7.69638 4.28066,-11.9035 m -19.89689,44.7851 1.40262,-0.69164 m -7.03407,6.26631 c -10.53812,7.64431 -15.49677,16.73441 -15.57988,27.96726 -9.71994,-8.49768 -19.43462,-17.69745 -26.31803,-31.79073 -6.21594,-9.87569 -13.83963,-18.35766 -21.46857,-26.13767 m -52.11652,55.07581 c 3.4417,7.04663 3.38461,14.76925 6.82112,22.51784 2.07542,2.82386 4.16634,3.54159 6.94058,6.37065 M 506.57,339.99053 c 5.38211,28.1238 -5.93277,46.29361 -20.72553,62.33126 -7.08085,12.58461 -10.6836,27.30166 -10.8083,44.15087 1.94033,21.07717 -7.99773,42.06558 -8.85233,63.12199 2.00685,32.53385 10.85171,64.67305 21.31616,92.76756 m 69.44109,-81.55825 c 1.7896,41.4366 -6.0055,56.12229 -4.06509,77.19947 m 33.55476,-1.85612 c -2.04427,-7.03611 -23.39845,-48.61896 -28.80651,-73.23254 M 658.125,602.36221 c -0.35432,-16.9144 2.27821,-37.16314 -2.15097,-55.54377 m -6.13796,-20.40595 c -4.21838,3.47893 -4.9482,7.68599 -2.89887,14.02008 -0.75058,7.01527 -3.59748,14.01496 -7.14307,21.00939 m 9.84457,-8.35152 2.97154,-23.8489 m -20.51259,33.54713 c 4.25997,-9.09536 9.229,-19.58957 9.28097,-26.61017 -1.36629,-4.22278 -0.63647,-8.42983 0.79737,-13.33371 M 522.80698,128.78276 c 14.04218,-9.02227 20.44505,-24.42042 20.50221,-32.142981 -10.50692,3.431961 -18.93841,9.687781 -28.84021,25.761881 -7.03401,6.26627 -0.81301,15.43992 -6.52757,32.24738 -7.80549,16.08977 19.96193,40.87033 2.89105,81.46403 m 112.52704,-3.37196 c -2.00268,-12.65258 -6.77953,-28.13425 -5.28854,-40.76073 1.62082,-30.17775 -2.36372,-58.29111 -18.98263,-78.77587 -10.3771,-14.119317 -20.05552,-28.233408 -31.26118,-24.806662 -18.87613,1.263175 -25.93103,10.337638 -28.12063,22.958912 1.29874,13.3494 8.95876,16.91707 20.12809,18.40469 10.44975,4.29059 11.80054,10.61949 13.84994,16.95361 5.53277,7.76432 11.81612,8.51335 16.6657,14.1663 1.2728,16.85966 -1.67798,37.90031 3.09361,54.08403"
       sodipodi:nodetypes="cccccccccccccccccccccccccccccccccccccccccccccccccccccccccccccccccccccccccccccccccccccccccccccccccccccccccccccccccc" />
    <path
       inkscape:connector-curvature="0"
       style="display:inline;fill:none;fill-rule:evenodd;stroke:#000000;stroke-width:4.6875;stroke-linecap:round;stroke-linejoin:round;enable-background:new"
       id="path2644"
       d="m 522.7966,132.31535 c -2.83646,5.35712 -2.87805,11.9311 -2.22081,17.31322 -2.11701,2.67357 -0.74554,6.04426 -0.0676,8.73781 -2.17929,10.73926 1.25722,18.15778 5.38723,26.25343 3.4417,6.74639 6.89379,12.1485 11.04989,16.88346 28.65315,-0.46725 40.61992,-11.80869 42.86676,-31.28576" />
    <path
       inkscape:connector-curvature="0"
       style="display:inline;fill:none;fill-rule:evenodd;stroke:#000000;stroke-width:5.625;stroke-linecap:round;stroke-linejoin:round;stroke-miterlimit:4;stroke-dasharray:none;enable-background:new"
       id="path2666"
       d="m 233.58399,499.10983 c -0.78698,11.87797 6.79518,25.91541 10.19011,39.22266 3.28001,22.43728 3.11133,45.94961 5.6009,68.71722"
       sodipodi:nodetypes="ccc" />
    <path
       sodipodi:nodetypes="ccccccccccccccccccccccccccccccccccccccccccccccccccccccccccccccccccccccccccccccccccccccccccccccccccccccccccccccccccccccccccccccccccccccccccccccccccccccccccccccccccccccccccccccccccc"
       inkscape:connector-curvature="0"
       style="display:inline;fill:none;fill-rule:evenodd;stroke:#000000;stroke-width:5.625;stroke-linecap:round;stroke-linejoin:round;stroke-miterlimit:4;stroke-dasharray:none;enable-background:new"
       id="path2694"
       d="m 315.62868,455.30869 c -4.18397,-2.11423 -1.19217,-50.33552 -13.72688,-60.87226 5.62136,-7.66657 4.97956,-21.64988 1.55143,-37.74177 -6.93901,-11.91194 -1.97943,-28.66861 5.07931,-46.11574 M 292.93466,194.47505 c -0.71298,3.49228 1.37183,6.29693 6.26023,7.01593 M 188.53908,91.9895 c -4.12979,-15.395678 2.81583,-23.869083 6.28256,-8.354087 m 61.38456,35.892717 c 4.90831,-4.17418 9.12356,-9.74927 9.83661,-13.24156 m -3.59642,25.15067 c -11.23403,13.23586 -25.96765,27.85552 -35.74147,25.71851 -16.77555,1.32961 -22.29431,-16.16885 -29.90918,-33.67587 1.4231,-6.28552 -1.34908,-11.88913 -3.42243,-17.48989 1.42309,-6.285539 1.45444,-13.974816 -2.7409,-13.292905 m -116.730421,9.310105 4.888334,0.71898 M 303.83296,606.25266 c 0.73302,-8.38552 4.25813,-16.06048 9.88233,-24.42608 5.65263,-15.35577 8.5075,-30.02388 7.86861,-44.70616 m -98.10661,68.80421 c 0.0855,-20.97077 0.86974,-41.9387 -1.81968,-67.81398 3.54785,-13.26728 4.99669,-25.84414 4.35211,-39.12842 M 151.69438,389.73981 c -7.71469,6.95894 -7.0559,15.23926 -5.00537,26.43228 2.05068,11.19296 -7.08141,23.03934 -7.12699,34.22369 -1.53159,32.84859 7.42099,65.0409 7.98579,97.89789 -1.51155,27.95532 7.5009,45.46813 20.72574,58.10466 m 86.08723,-156.12027 c 18.23583,-16.70247 17.42943,-39.88676 28.65778,-51.72454 m -34.46946,56.48133 2.10486,-2.08848 m -78.76445,-46.59868 c 12.52895,11.9348 12.40353,42.69199 29.84078,50.45252 m 30.73341,1.66422 c -5.62412,8.36553 -3.55638,15.3643 -2.196,24.45731 2.04783,11.89206 -11.93001,12.53404 -13.28748,2.74193 -2.76088,-8.39968 4.26083,-16.75945 0.79551,-23.76398 m 24.47609,-4.79342 c -4.20957,4.17704 -6.3285,9.76075 -3.56776,18.16042 2.74359,12.59379 0.60468,23.07064 -14.76782,23.00798 -11.18269,0.65343 -14.65654,-4.25401 -16.71845,-12.65098 -2.05067,-11.19295 4.23232,-9.76921 -0.59054,-26.56585 m 138.33735,4.05982 c 0.65311,11.18741 1.30629,22.37452 -0.83554,33.55047 0.67017,6.99301 -2.14751,12.57387 -5.66401,18.15181 -4.24383,12.56534 -11.95575,18.82525 -21.06502,25.0794 -2.79785,0.68771 -5.59,-0.0228 -7.68341,-0.7304 -2.09618,-0.009 -4.19243,-0.0171 -5.58708,-0.72186 -4.88841,-0.71902 -4.87696,-3.51507 -3.46524,-7.00446 10.55533,-18.13191 13.40458,-31.40203 11.35099,-41.89588 m 25.09499,14.78213 c -5.62427,8.36547 -7.75465,16.74522 -7.08725,24.43747 m -17.51141,10.41398 c 11.92141,-10.43688 14.09473,-29.30202 19.01143,-35.57331 m -4.87113,-4.91313 c -7.02176,8.35985 -7.09294,25.83546 -21.12197,39.05985 M 322.639,449.74497 c -6.31449,6.26552 -17.52563,13.90927 -21.07079,26.47738 -1.42593,6.98461 -15.43222,14.6169 -14.75053,18.81386 2.03631,14.6881 20.29212,-6.90758 31.47766,-8.26006 m 4.77117,-141.88506 c -4.96527,18.1547 -3.65045,38.43219 -0.24224,59.41719 2.7665,7.00168 -0.12256,30.05809 -0.88971,46.83183 m 8.73266,-85.2469 c 0.73587,-9.08444 -2.72653,-16.788 -11.78169,-23.81534 -7.64345,-10.51676 -5.49886,-22.39164 -10.35299,-31.49895 -3.4538,-9.8006 0.12549,-30.75712 -2.60958,-45.44808 m 44.05794,-8.90766 c 11.77608,25.2134 4.68599,50.34981 6.74235,60.14473 0.63881,14.6824 13.07085,50.38407 4.5691,79.00981 -7.77178,20.93947 -7.87714,46.80346 -14.96155,70.54183 M 145.91014,264.47778 c 0.61613,20.2746 4.03011,39.86158 10.2361,60.15901 4.13541,13.99761 1.28908,26.56867 -2.25309,38.43783 -8.43335,11.84928 -4.97671,22.45956 2.67819,30.18026 m 61.53514,-10.93334 c 2.79216,0.71041 3.43836,0.0171 4.14572,-2.07718 m 12.27042,-83.94823 c 12.56883,2.14839 20.75995,49.71638 34.02461,52.56667 m -82.45193,-0.33651 c 24.48178,-6.19142 10.70358,-54.48125 41.44267,-52.95771 M 206.65539,275.9103 c -34.94014,0.55643 -61.47813,-3.04706 -58.55209,-35.19084 0.0314,-7.68929 -0.65027,-11.8863 -2.72078,-18.18609 m 85.76893,43.69038 c -4.21532,5.5751 -10.51829,9.04456 -19.60197,9.00748 m 102.19645,-43.62225 c -9.2177,32.81713 -5.76953,44.0158 -44.89646,43.15708 -13.27903,0.64485 -29.34153,-1.51782 -32.81253,-7.12429 m -9.46028,-79.02986 c 3.47945,3.50941 6.9789,2.1256 9.7938,-2.75617 m -12.52887,-11.93477 7.66613,4.92455 13.35034,-18.12049 m -79.05516,23.44463 c 9.81378,-7.64936 19.6218,-13.90067 29.42421,-18.75393 6.30304,-3.46946 7.04452,-13.95199 7.0987,-27.23348 m 10.98604,47.57938 c -10.47826,-0.7418 -20.26645,0.61633 -29.35873,2.67632 -15.37805,1.33531 -18.82046,-11.26141 -44.02374,0.51937 -16.80988,9.71791 -23.13561,18.77959 -23.8714,27.86407 m 6.98181,1.42657 c -9.77389,-2.13701 -22.38843,6.899 -30.105964,14.55691 m 4.711655,44.05859 c 1.514313,-28.65435 -17.232064,-58.09043 -12.922751,-86.73339 0.07129,-17.47564 2.23311,-33.54467 11.362367,-44.69201 5.612823,-5.56939 9.132173,-11.84637 10.552423,-17.43288 4.21539,-5.57509 7.72613,-9.755 11.23133,-12.53683 5.63273,-10.46256 -7.64914,-9.11871 -19.564862,-0.0799 -2.11331,4.1856 -7.021695,8.35978 -13.327437,12.52827 -15.395327,5.52948 -16.827022,13.91208 -15.466493,23.00512 -0.68737,-2.79895 -2.076339,-4.90173 -2.766561,-7.00166 m -14.739159,16.0177 c -6.44545,38.42075 -13.663876,95.01333 -4.677174,118.81729 m 76.174626,-2.48526 c -4.21518,5.57509 -15.41501,10.42265 -21.73228,17.38723 m 33.8362,-72.56179 c 18.12469,10.55953 17.34887,29.43039 5.39327,48.25559 -6.3457,13.95486 -23.13547,18.7796 -38.53072,24.30905 -15.40655,8.32558 -25.89356,9.68085 -35.670228,8.24288 -20.956743,-1.4836 -19.530733,-8.46816 -17.329045,-34.32356 m 81.810343,-13.64686 8.41344,-6.95604 m 29.98333,15.5012 c 3.47369,4.90744 10.47541,1.44083 4.19819,-1.38094 m -6.74236,-60.14474 c 2.795,0.0114 5.5986,-2.07427 7.00741,-4.86466 m 60.66548,31.00524 c 1.40318,-1.39234 2.11046,-3.48657 1.426,-6.98455 m -1.48587,21.66409 c 0.7016,-0.69617 2.10763,-2.78754 2.11623,-4.88462 m 49.51107,24.66839 c -5.59562,1.37523 -0.0228,5.5922 3.4823,2.81036 m -43.69598,-79.86862 c 13.27626,0.0542 27.22545,6.40246 40.52154,1.56346 m 59.04842,84.82453 c 2.15619,-14.67098 6.41708,-31.43049 2.97751,-44.72623 -6.87346,-27.98955 -25.66257,-46.94026 -52.23768,-41.45643 M 274.63584,55.291906 c 11.81313,16.126068 11.76741,27.310478 3.34835,35.664573 1.34617,12.588181 -2.86631,17.464241 -8.47046,20.936541 -0.0143,3.49514 -2.1276,7.68074 -3.53932,11.17018 -6.32856,9.76069 -2.90335,26.55157 -1.57134,42.63486 M 256.48839,50.324581 c 2.17609,-19.564174 -11.74182,-33.601722 -35.54475,-22.514274 -4.22108,6.973152 -8.41059,6.257009 -13.30476,6.936081 -6.98451,-0.727552 -9.10074,4.157076 -11.21405,8.342673 -1.42317,6.285537 -7.71761,7.657916 -11.92148,10.436907 -2.81207,4.182749 -3.52795,8.374048 -0.75008,12.57961 -6.32295,8.362653 -7.75465,16.745252 -0.0998,24.465908 -1.42316,6.285527 1.36331,8.394017 4.15539,9.104446 -1.41456,4.188458 -0.7301,7.686428 2.74942,11.195818 0.66449,8.39116 3.44804,11.19868 6.93326,13.31 M 54.770757,166.93959 C 46.457139,149.42973 38.8422,131.92271 42.407191,114.46133 37.587252,96.965716 38.343022,82.988045 44.645921,79.518586 c 4.888406,0.718987 2.720915,18.186079 6.856324,32.183704 0.06271,-15.378555 -0.544753,-37.750251 10.657928,-43.296821 5.581395,2.119886 -3.576437,20.257493 -0.151083,37.048371 3.567902,-18.160413 6.448295,-39.119792 12.061114,-44.689176 7.68049,1.429432 -2.903281,26.551577 2.623872,41.952956 2.843559,-11.87203 0.131169,-32.155189 7.834487,-36.317961 7.651982,8.419667 1.945238,37.056921 6.762261,55.251551 M 67.613311,101.98153 c -2.800688,1.38663 -4.894024,0.67906 -5.604221,3.47231 m -13.304689,6.93607 6.300125,-2.77043 M 302.0639,183.32771 c -9.03511,-11.92051 -31.358,-21.09911 -38.29694,-33.01106 m 10.7805,-73.354951 c 2.05637,9.794923 -0.77859,19.569885 -8.50465,29.324871 0.72434,-6.288387 2.15042,-13.27294 -6.90474,-20.300268 -10.46135,-4.93596 -12.51771,-14.730875 -6.865,-30.086632 -11.23404,13.235871 -21.02791,15.99204 -30.09161,11.061785 m 34.35826,-29.219343 c 11.19138,-2.75048 16.03691,8.453908 17.3631,25.935252 m -43.31937,-0.875837 c -11.15142,-7.035893 -23.13845,19.478607 -34.30978,17.3359" />
    <path
       inkscape:connector-curvature="0"
       style="display:inline;fill:none;fill-rule:evenodd;stroke:#000000;stroke-width:3.75;stroke-linecap:round;stroke-linejoin:miter;stroke-miterlimit:4;stroke-dasharray:none;stroke-opacity:1;enable-background:new"
       id="path4286"
       d="m 235.13179,115.76137 c 1.66512,3.06601 2.23554,8.5964 -2.19109,7.83876 -2.10919,-0.36099 -4.26836,-0.64272 -5.40444,0.0629 -1.8784,1.16666 -3.46082,1.66629 -5.46728,0.75441 -1.84236,-0.8373 -3.83147,-0.6582 -6.34705,-0.56581 -3.95041,0.1451 -3.32099,-3.44754 -1.13117,-7.66983" />
    <path
       inkscape:connector-curvature="0"
       style="display:inline;fill:none;fill-rule:evenodd;stroke:#000000;stroke-width:3.75;stroke-linecap:round;stroke-linejoin:miter;stroke-miterlimit:4;stroke-dasharray:none;stroke-opacity:1;enable-background:new"
       id="path4288"
       d="m 220.91221,141.72251 c 2.50841,1.51016 5.7273,1.51172 8.7095,0.17781" />
    <path
       inkscape:connector-curvature="0"
       style="display:inline;fill:none;fill-rule:evenodd;stroke:#000000;stroke-width:3.75;stroke-linecap:round;stroke-linejoin:miter;stroke-miterlimit:4;stroke-dasharray:none;stroke-opacity:1;enable-background:new"
       id="path4290"
       d="m 221.00059,116.81044 c 0.4445,-3.85587 1.4654,-7.71498 1.25687,-11.5676 -0.14866,-2.74682 -0.86676,-4.96289 -1.2568,-7.041163" />
    <path
       inkscape:connector-curvature="0"
       style="display:inline;fill:none;fill-rule:evenodd;stroke:#000000;stroke-width:3.75;stroke-linecap:round;stroke-linejoin:miter;stroke-miterlimit:4;stroke-dasharray:none;stroke-opacity:1;enable-background:new"
       id="path4292"
       d="m 252.92454,94.429626 c -1.97638,-1.468808 -3.80069,-1.854461 -5.53014,-2.011759 -1.31815,-0.119887 -2.99941,-0.279255 -4.776,-0.251465 -1.4659,0.02291 -1.95398,-0.291152 -4.49417,-0.17782 -1.73678,0.07748 -4.01099,0.879464 -4.8065,1.938106" />
    <path
       inkscape:connector-curvature="0"
       style="display:inline;fill:none;fill-rule:evenodd;stroke:#000000;stroke-width:3.75;stroke-linecap:round;stroke-linejoin:miter;stroke-miterlimit:4;stroke-dasharray:none;stroke-opacity:1;enable-background:new"
       id="path4294"
       d="m 200.91594,91.489476 c 2.0875,2.207923 5.282,1.068952 7.73189,0.444542 2.6885,-0.685219 7.35394,-0.772907 9.77596,3.022869" />
    <path
       inkscape:connector-curvature="0"
       style="display:inline;fill:none;fill-rule:evenodd;stroke:#000000;stroke-width:3.75;stroke-linecap:round;stroke-linejoin:miter;stroke-miterlimit:4;stroke-dasharray:none;stroke-opacity:1;enable-background:new"
       id="path4296"
       d="m 531.94405,170.75073 c 3.07555,4.07061 7.10545,3.8471 11.1859,0.88015 5.38105,1.66364 6.67986,-0.74624 5.78154,-5.02941" />
    <path
       inkscape:connector-curvature="0"
       style="display:inline;fill:none;fill-rule:evenodd;stroke:#000000;stroke-width:3.75;stroke-linecap:round;stroke-linejoin:miter;stroke-miterlimit:4;stroke-dasharray:none;stroke-opacity:1;enable-background:new"
       id="path4298"
       d="m 538.8975,189.19939 c 1.98924,0.93579 5.29828,1.1465 7.72741,0.0629" />
    <path
       inkscape:connector-curvature="0"
       style="display:inline;fill:none;fill-rule:evenodd;stroke:#000000;stroke-width:3.75;stroke-linecap:round;stroke-linejoin:miter;stroke-miterlimit:4;stroke-dasharray:none;stroke-opacity:1;enable-background:new"
       id="path4300"
       d="m 530.40535,149.48627 c -1.20226,-1.88761 -3.24647,-2.06254 -5.12253,-2.15274 -1.15676,0.0326 -2.28032,0.66512 -3.89624,-0.22097" />
    <path
       inkscape:connector-curvature="0"
       style="display:inline;fill:none;fill-rule:evenodd;stroke:#000000;stroke-width:3.75;stroke-linecap:round;stroke-linejoin:miter;stroke-miterlimit:4;stroke-dasharray:none;stroke-opacity:1;enable-background:new"
       id="path4302"
       d="m 560.51758,147.3856 c -1.26739,-1.43538 -4.2631,-1.25995 -6.07596,-1.15319 -2.29105,0.28231 -4.30881,0.41406 -5.65583,1.40466 -1.3441,0.74186 -2.45607,1.37493 -3.32618,1.16844" />
    <path
       inkscape:connector-curvature="0"
       style="display:inline;fill:none;fill-rule:evenodd;stroke:#000000;stroke-width:3.75;stroke-linecap:round;stroke-linejoin:miter;stroke-miterlimit:4;stroke-dasharray:none;stroke-opacity:1;enable-background:new"
       id="path4304"
       d="m 536.12723,153.7835 c 1.11596,3.50002 0.49222,7.00005 0.36438,10.50008" />
    <path
       inkscape:connector-curvature="0"
       style="display:inline;fill:#000000;fill-opacity:1;fill-rule:evenodd;stroke:none;stroke-width:0.46875;stroke-linecap:butt;stroke-linejoin:miter;stroke-miterlimit:4;stroke-dasharray:none;stroke-opacity:1;enable-background:new"
       id="path4308"
       d="m 552.80772,183.54519 c 1.85125,-0.61917 1.97275,-2.02931 0.43541,-2.86141 -1.12754,-0.61028 -2.49817,-0.34005 -3.8289,0 -1.23021,0.31435 -3.43041,0.66657 -4.14757,0.10417 -1.81492,-1.42325 -3.5042,-1.64398 -4.9017,-0.85858 -0.89001,0.5002 -2.41819,0.55296 -3.39351,0.25148 -2.11203,-0.65286 -2.86368,0.6431 -5.27873,1.57615 -1.90755,0.73699 -0.97987,3.57296 2.01093,2.59467 1.38904,-0.45436 2.99259,-0.14496 4.14757,0.12574 1.28544,0.30126 2.68629,0.59665 3.95461,0.22989 1.54574,-0.44698 3.54579,-1.28976 4.592,-1.00587 1.83219,0.49715 4.58296,0.45477 6.40989,-0.15624 z" />
    <path
       inkscape:connector-curvature="0"
       style="display:inline;fill:none;fill-rule:evenodd;stroke:#000000;stroke-width:3.75;stroke-linecap:round;stroke-linejoin:miter;stroke-miterlimit:4;stroke-dasharray:none;stroke-opacity:1;enable-background:new"
       id="path4310"
       d="m 549.66555,158.17724 c 0.1518,-4.40806 7.45142,-5.6282 12.31714,-2.89191" />
    <path
       inkscape:connector-curvature="0"
       style="display:inline;fill:#000000;fill-opacity:1;fill-rule:evenodd;stroke:none;stroke-width:3.75;stroke-linecap:round;stroke-linejoin:round;stroke-miterlimit:4;stroke-dasharray:none;stroke-opacity:1;enable-background:new"
       id="path4312"
       d="m 558.33771,156.10257 c 0.003,1.07981 -0.66709,2.0787 -1.75716,2.61936 -1.09008,0.54065 -2.43392,0.54065 -3.52399,0 -1.09008,-0.54066 -1.7602,-1.53955 -1.75716,-2.61936 -0.003,-1.07982 0.66708,-2.0787 1.75716,-2.61937 1.09007,-0.54065 2.43391,-0.54065 3.52399,0 1.09007,0.54067 1.76019,1.53955 1.75716,2.61937 z" />
    <path
       inkscape:connector-curvature="0"
       style="display:inline;fill:none;fill-rule:evenodd;stroke:#000000;stroke-width:3.75;stroke-linecap:round;stroke-linejoin:miter;stroke-miterlimit:4;stroke-dasharray:none;stroke-opacity:1;enable-background:new"
       id="path4314"
       d="m 534.08068,158.93164 c -3.53761,-5.31973 -7.0052,-4.94111 -11.3421,-4.65218" />
    <path
       inkscape:connector-curvature="0"
       style="display:inline;fill:#000000;fill-opacity:1;fill-rule:evenodd;stroke:none;stroke-width:3.75;stroke-linecap:round;stroke-linejoin:round;stroke-miterlimit:4;stroke-dasharray:none;stroke-opacity:1;enable-background:new"
       id="path4316"
       d="m 531.43099,157.82 c -0.23119,1.05476 -1.10195,1.88443 -2.28331,2.17565 -1.18135,0.29121 -2.49319,-4.2e-4 -3.44007,-0.76476 -0.94688,-0.76435 -1.38444,-1.88489 -1.14733,-2.93833 0.23119,-1.05476 1.10195,-1.88443 2.28331,-2.17565 1.18134,-0.29121 2.49319,4.2e-4 3.44007,0.76477 0.94688,0.76434 1.38444,1.88488 1.14733,2.93832 z" />
    <path
       inkscape:connector-curvature="0"
       style="display:inline;fill:#000000;fill-opacity:1;fill-rule:evenodd;stroke:none;stroke-width:0.46875;stroke-linecap:butt;stroke-linejoin:miter;stroke-miterlimit:4;stroke-dasharray:none;stroke-opacity:1;enable-background:new"
       id="path4318"
       d="m 235.32866,136.04789 c 5.51151,-1.35182 4.43125,-3.8763 0.31425,-4.14925 -0.81769,-0.0542 -2.3453,-0.59758 -3.33065,-0.75441 -1.37823,-0.21937 -3.29069,-0.31491 -4.6503,-1e-5 -1.28488,0.29759 -2.90285,1.03426 -4.77607,1e-5 -1.59209,-0.87907 -4.24631,-0.42698 -5.53006,0.25146 -1.45814,0.77064 -5.40444,1.00588 -5.40444,1.00588 -2.54438,1.74042 -2.22408,3.16241 -0.2514,4.40073 0,0 2.73563,-0.35993 3.89624,-0.5182 1.80873,-0.24667 4.28741,-1.20626 5.78147,-0.31434 1.5869,0.94735 4.40785,0.56559 6.15856,-0.026 2.34047,-0.79091 5.77621,0.59868 7.7924,0.10416 z" />
    <path
       inkscape:connector-curvature="0"
       style="display:inline;fill:none;fill-rule:evenodd;stroke:#000000;stroke-width:4.6875;stroke-linecap:round;stroke-linejoin:round;stroke-miterlimit:4;stroke-dasharray:none;stroke-opacity:1;enable-background:new"
       id="path4320"
       d="m 235.45437,102.85387 c 1.86453,-4.719427 10.08494,-8.240044 13.82526,-0.88015" />
    <path
       inkscape:connector-curvature="0"
       style="display:inline;fill:#000000;fill-opacity:1;fill-rule:evenodd;stroke:none;stroke-width:3.75;stroke-linecap:round;stroke-linejoin:round;stroke-miterlimit:4;stroke-dasharray:none;stroke-opacity:1;enable-background:new"
       id="path4322"
       d="m 247.26876,100.59064 c 0,1.87493 -2.08199,3.39486 -4.65034,3.39486 -2.56837,0 -4.65036,-1.51993 -4.65036,-3.39486 0,-1.874941 2.08199,-3.394868 4.65036,-3.394868 2.56835,0 4.65034,1.519927 4.65034,3.394868 z" />
    <path
       inkscape:connector-curvature="0"
       style="display:inline;fill:none;fill-rule:evenodd;stroke:#000000;stroke-width:4.6875;stroke-linecap:round;stroke-linejoin:round;stroke-miterlimit:4;stroke-dasharray:none;stroke-opacity:1;enable-background:new"
       id="path4324"
       d="m 217.50457,102.94598 c -3.1463,-5.145949 -10.64535,-5.312775 -13.83359,-1.58771" />
    <path
       inkscape:connector-curvature="0"
       style="display:inline;fill:#000000;fill-opacity:1;fill-rule:evenodd;stroke:none;stroke-width:3.75;stroke-linecap:round;stroke-linejoin:round;stroke-miterlimit:4;stroke-dasharray:none;stroke-opacity:1;enable-background:new"
       id="path4326"
       d="m 215.09362,101.34504 c 0,1.87494 -2.02572,3.39487 -4.52467,3.39487 -2.49896,0 -4.52467,-1.51993 -4.52467,-3.39487 0,-1.87493 2.02571,-3.394858 4.52467,-3.394858 2.49895,0 4.52467,1.519928 4.52467,3.394858 z" />
  </g>
  <g
     inkscape:groupmode="layer"
     id="layer2"
     inkscape:label="Nothing to hide"
     style="display:inline"
     sodipodi:insensitive="true">
    <rect
       y="433.61221"
       x="165.79724"
       height="112.49999"
       width="450"
       id="rect8154"
       style="opacity:1;fill:#000000;fill-opacity:1;fill-rule:evenodd;stroke:none;stroke-width:0.37795275;stroke-linecap:round;stroke-linejoin:round;stroke-miterlimit:4;stroke-dasharray:0.37795275, 1.13385826;stroke-dashoffset:0;stroke-opacity:1" />
    <text
       id="text8156"
       y="516.68713"
       x="388.62537"
       style="color:#000000;font-style:normal;font-variant:normal;font-weight:normal;font-stretch:normal;line-height:0%;font-family:sans-serif;-inkscape-font-specification:sans-serif;text-indent:0;text-align:center;text-decoration:none;text-decoration-line:none;text-decoration-style:solid;text-decoration-color:#000000;letter-spacing:0px;word-spacing:0px;text-transform:none;writing-mode:lr-tb;direction:ltr;baseline-shift:baseline;text-anchor:middle;white-space:normal;clip-rule:nonzero;display:inline;overflow:visible;visibility:visible;opacity:1;isolation:auto;mix-blend-mode:normal;color-interpolation:sRGB;color-interpolation-filters:linearRGB;solid-color:#000000;solid-opacity:1;fill:#ffffff;fill-opacity:1;fill-rule:nonzero;stroke:none;stroke-width:1px;stroke-linecap:butt;stroke-linejoin:miter;stroke-miterlimit:4;stroke-dasharray:none;stroke-dashoffset:0;stroke-opacity:1;marker:none;color-rendering:auto;image-rendering:auto;shape-rendering:auto;text-rendering:auto;enable-background:accumulate"
       xml:space="preserve"><tspan
         style="font-style:italic;font-variant:normal;font-weight:800;font-stretch:normal;font-size:75px;line-height:10;font-family:'Open Sans';-inkscape-font-specification:'Open Sans Ultra-Bold Italic';text-align:center;text-anchor:middle;fill:#ffffff"
         y="516.68713"
         x="388.62537"
         id="tspan8158"
         sodipodi:role="line">TO HIDE&quot;</tspan></text>
    <rect
       style="opacity:1;fill:#000000;fill-opacity:1;fill-rule:evenodd;stroke:none;stroke-width:0.37795275;stroke-linecap:round;stroke-linejoin:round;stroke-miterlimit:4;stroke-dasharray:0.37795275, 1.13385826;stroke-dashoffset:0;stroke-opacity:1"
       id="rect8866"
       width="450"
       height="112.50001"
       x="165.79724"
       y="246.11221" />
    <text
       xml:space="preserve"
       style="color:#000000;font-style:normal;font-variant:normal;font-weight:normal;font-stretch:normal;line-height:0%;font-family:sans-serif;-inkscape-font-specification:sans-serif;text-indent:0;text-align:start;text-decoration:none;text-decoration-line:none;text-decoration-style:solid;text-decoration-color:#000000;letter-spacing:0px;word-spacing:0px;text-transform:none;writing-mode:lr-tb;direction:ltr;baseline-shift:baseline;text-anchor:start;white-space:normal;clip-rule:nonzero;display:inline;overflow:visible;visibility:visible;opacity:1;isolation:auto;mix-blend-mode:normal;color-interpolation:sRGB;color-interpolation-filters:linearRGB;solid-color:#000000;solid-opacity:1;fill:#ffffff;fill-opacity:1;fill-rule:nonzero;stroke:none;stroke-width:1px;stroke-linecap:butt;stroke-linejoin:miter;stroke-miterlimit:4;stroke-dasharray:none;stroke-dashoffset:0;stroke-opacity:1;marker:none;color-rendering:auto;image-rendering:auto;shape-rendering:auto;text-rendering:auto;enable-background:accumulate"
       x="387.88586"
       y="329.18716"
       id="text8139"><tspan
         sodipodi:role="line"
         id="tspan8141"
         x="387.88586"
         y="329.18716"
         style="font-style:italic;font-variant:normal;font-weight:800;font-stretch:normal;font-size:75px;line-height:10;font-family:'Open Sans';-inkscape-font-specification:'Open Sans Ultra-Bold Italic';text-align:center;text-anchor:middle;fill:#ffffff">&quot;NOTHING</tspan></text>
  </g>
  <g
     inkscape:groupmode="layer"
     id="layer10"
     inkscape:label="Text"
     style="display:inline"
     sodipodi:insensitive="true">
    <g
       inkscape:groupmode="layer"
       id="layer12"
       inkscape:label="Paragraph"
       style="display:inline">
      <text
         xml:space="preserve"
         style="color:#000000;font-style:normal;font-variant:normal;font-weight:normal;font-stretch:normal;font-size:42.5668px;line-height:125%;font-family:sans-serif;-inkscape-font-specification:sans-serif;text-indent:0;text-align:start;text-decoration:none;text-decoration-line:none;text-decoration-style:solid;text-decoration-color:#000000;letter-spacing:0px;word-spacing:0px;text-transform:none;writing-mode:lr-tb;direction:ltr;baseline-shift:baseline;text-anchor:start;white-space:normal;clip-rule:nonzero;display:inline;overflow:visible;visibility:visible;opacity:1;isolation:auto;mix-blend-mode:normal;color-interpolation:sRGB;color-interpolation-filters:linearRGB;solid-color:#000000;solid-opacity:1;fill:#000000;fill-opacity:1;fill-rule:nonzero;stroke:none;stroke-width:0.886808px;stroke-linecap:butt;stroke-linejoin:miter;stroke-miterlimit:4;stroke-dasharray:none;stroke-dashoffset:0;stroke-opacity:1;marker:none;color-rendering:auto;image-rendering:auto;shape-rendering:auto;text-rendering:auto;enable-background:accumulate"
         x="385.21432"
         y="651.92053"
         id="text999"
         transform="scale(0.99037448,1.0097191)"><tspan
           sodipodi:role="line"
           x="392.62402"
           y="651.92053"
           style="font-style:italic;font-variant:normal;font-weight:bold;font-stretch:normal;font-size:42.5668px;line-height:125%;font-family:'Open Sans';-inkscape-font-specification:'Open Sans Semi-Bold Italic';text-align:center;text-anchor:middle;stroke-width:0.886808px"
           id="tspan1015"
           dx="0 0 0 0 0 0 0 0 0 0 0 0 0 0 0 0 0 0 0 0 0 0 0 0 0 0 0 0 0 -8.5133629 8.5133629"><tspan
   style="font-style:normal;stroke-width:0.886808px"
   id="tspan1087">Never means </tspan>&quot;nothing to fear.&quot;   </tspan></text>
      <text
         xml:space="preserve"
         style="color:#000000;font-style:normal;font-variant:normal;font-weight:normal;font-stretch:normal;font-size:28.3779px;line-height:125%;font-family:sans-serif;-inkscape-font-specification:sans-serif;text-indent:0;text-align:start;text-decoration:none;text-decoration-line:none;text-decoration-style:solid;text-decoration-color:#000000;letter-spacing:0px;word-spacing:0px;text-transform:none;writing-mode:lr-tb;direction:ltr;baseline-shift:baseline;text-anchor:start;white-space:normal;clip-rule:nonzero;display:inline;overflow:visible;visibility:visible;opacity:1;isolation:auto;mix-blend-mode:normal;color-interpolation:sRGB;color-interpolation-filters:linearRGB;solid-color:#000000;solid-opacity:1;fill:#000000;fill-opacity:1;fill-rule:nonzero;stroke:none;stroke-width:0.886808px;stroke-linecap:butt;stroke-linejoin:miter;stroke-miterlimit:4;stroke-dasharray:none;stroke-dashoffset:0;stroke-opacity:1;marker:none;color-rendering:auto;image-rendering:auto;shape-rendering:auto;text-rendering:auto;enable-background:accumulate"
         x="369.32104"
         y="703.06018"
         id="text1036"
         transform="scale(0.99037448,1.0097191)"><tspan
           sodipodi:role="line"
           x="369.32104"
           y="703.06018"
           style="font-style:normal;font-variant:normal;font-weight:normal;font-stretch:normal;line-height:125%;font-family:'Open Sans';-inkscape-font-specification:'Open Sans';text-align:center;text-anchor:middle;stroke-width:0.886808px"
           id="tspan1038"
           dx="0 0 0 0 0 0 0 0 0 0 0 0 0 0 0 0 0 0 0 0 0 0 0 0 0 0 0 0 0 0 0 0 0 0 0 0 0 -2.8377879 2.8377879">Retroactive law changes, 'bad apples', foreign </tspan><tspan
           sodipodi:role="line"
           x="369.32104"
           y="738.53253"
           style="font-style:normal;font-variant:normal;font-weight:normal;font-stretch:normal;line-height:125%;font-family:'Open Sans';-inkscape-font-specification:'Open Sans';text-align:center;text-anchor:middle;stroke-width:0.886808px"
           id="tspan1042">hackers — the only way for your data to be </tspan><tspan
           sodipodi:role="line"
           x="369.32104"
           y="774.00494"
           style="font-style:normal;font-variant:normal;font-weight:normal;font-stretch:normal;line-height:125%;font-family:'Open Sans';-inkscape-font-specification:'Open Sans';text-align:center;text-anchor:middle;stroke-width:0.886808px"
           id="tspan1052">safe is if it's never collected in the first place.</tspan></text>
      <text
         id="text1062"
         y="833.42072"
         x="377.73651"
         style="color:#000000;font-style:normal;font-variant:normal;font-weight:normal;font-stretch:normal;font-size:42.5668px;line-height:0%;font-family:sans-serif;-inkscape-font-specification:sans-serif;text-indent:0;text-align:start;text-decoration:none;text-decoration-line:none;text-decoration-style:solid;text-decoration-color:#000000;letter-spacing:0px;word-spacing:0px;text-transform:none;writing-mode:lr-tb;direction:ltr;baseline-shift:baseline;text-anchor:start;white-space:normal;clip-rule:nonzero;display:inline;overflow:visible;visibility:visible;opacity:1;isolation:auto;mix-blend-mode:normal;color-interpolation:sRGB;color-interpolation-filters:linearRGB;solid-color:#000000;solid-opacity:1;fill:#000000;fill-opacity:1;fill-rule:nonzero;stroke:none;stroke-width:0.94593px;stroke-linecap:butt;stroke-linejoin:miter;stroke-miterlimit:4;stroke-dasharray:none;stroke-dashoffset:0;stroke-opacity:1;marker:none;color-rendering:auto;image-rendering:auto;shape-rendering:auto;text-rendering:auto;enable-background:accumulate"
         xml:space="preserve"
         transform="scale(0.99037448,1.0097191)"><tspan
           style="font-style:normal;font-variant:normal;font-weight:bold;font-stretch:normal;font-size:39.9064px;line-height:10;font-family:'Open Sans';-inkscape-font-specification:'Open Sans';text-align:center;text-anchor:middle;stroke-width:0.94593px"
           y="833.42072"
           x="377.73651"
           id="tspan1060"
           sodipodi:role="line">Stand against mass surveillance.</tspan></text>
    </g>
    <g
       inkscape:groupmode="layer"
       id="layer13"
       inkscape:label="Slogans"
       style="display:none">
      <text
         xml:space="preserve"
         style="color:#000000;font-style:normal;font-variant:normal;font-weight:normal;font-stretch:normal;line-height:0%;font-family:sans-serif;-inkscape-font-specification:sans-serif;text-indent:0;text-align:start;text-decoration:none;text-decoration-line:none;text-decoration-style:solid;text-decoration-color:#000000;letter-spacing:0px;word-spacing:0px;text-transform:none;writing-mode:lr-tb;direction:ltr;baseline-shift:baseline;text-anchor:start;white-space:normal;clip-rule:nonzero;display:inline;overflow:visible;visibility:visible;opacity:1;isolation:auto;mix-blend-mode:normal;color-interpolation:sRGB;color-interpolation-filters:linearRGB;solid-color:#000000;solid-opacity:1;fill:#000000;fill-opacity:1;fill-rule:nonzero;stroke:none;stroke-width:1px;stroke-linecap:butt;stroke-linejoin:miter;stroke-miterlimit:4;stroke-dasharray:none;stroke-dashoffset:0;stroke-opacity:1;marker:none;color-rendering:auto;image-rendering:auto;shape-rendering:auto;text-rendering:auto;enable-background:accumulate"
         x="376.63672"
         y="671.35468"
         id="text8166"><tspan
           sodipodi:role="line"
           x="376.63672"
           y="671.35468"
           style="font-style:italic;font-variant:normal;font-weight:600;font-stretch:normal;font-size:56px;line-height:110%;font-family:'Open Sans';-inkscape-font-specification:'Open Sans Semi-Bold Italic';text-align:center;text-anchor:middle"
           id="tspan8231">never means </tspan><tspan
           sodipodi:role="line"
           x="376.63672"
           y="732.95465"
           style="font-style:italic;font-variant:normal;font-weight:600;font-stretch:normal;font-size:56px;line-height:110%;font-family:'Open Sans';-inkscape-font-specification:'Open Sans Semi-Bold Italic';text-align:center;text-anchor:middle"
           id="tspan8235">&quot;Nothing to fear.&quot;</tspan></text>
      <text
         xml:space="preserve"
         style="color:#000000;font-style:normal;font-variant:normal;font-weight:normal;font-stretch:normal;line-height:0%;font-family:sans-serif;-inkscape-font-specification:sans-serif;text-indent:0;text-align:start;text-decoration:none;text-decoration-line:none;text-decoration-style:solid;text-decoration-color:#000000;letter-spacing:0px;word-spacing:0px;text-transform:none;writing-mode:lr-tb;direction:ltr;baseline-shift:baseline;text-anchor:start;white-space:normal;clip-rule:nonzero;display:inline;overflow:visible;visibility:visible;opacity:1;isolation:auto;mix-blend-mode:normal;color-interpolation:sRGB;color-interpolation-filters:linearRGB;solid-color:#000000;solid-opacity:1;fill:#000000;fill-opacity:1;fill-rule:nonzero;stroke:none;stroke-width:1px;stroke-linecap:butt;stroke-linejoin:miter;stroke-miterlimit:4;stroke-dasharray:none;stroke-dashoffset:0;stroke-opacity:1;marker:none;color-rendering:auto;image-rendering:auto;shape-rendering:auto;text-rendering:auto;enable-background:accumulate"
         x="380"
         y="815.00183"
         id="text8650"><tspan
           sodipodi:role="line"
           id="tspan8652"
           x="380"
           y="815.00183"
           style="font-style:normal;font-variant:normal;font-weight:bold;font-stretch:normal;font-size:40px;line-height:10;font-family:'Open Sans';-inkscape-font-specification:'Open Sans';text-align:center;text-anchor:middle">Stand against mass surveillance.</tspan></text>
    </g>
  </g>
  <g
     inkscape:groupmode="layer"
     id="layer3"
     inkscape:label="Logos"
     style="display:inline"
     sodipodi:insensitive="true">
    <g
       inkscape:groupmode="layer"
       id="layer6"
       inkscape:label="website_bw"
       style="display:inline"
       sodipodi:insensitive="true">
      <g
         id="g9091"
         transform="translate(98.182048,849.08538)">
        <g
           id="Text-4">
          <g
             id="g8984">
            <path
               id="path8986"
               d="m 167.668,79.513 v 16.65 H 156.404 V 42.084 h 11.264 v 3.428 c 1.936,-1.936 3.754,-3.148 5.457,-3.638 1.702,-0.49 3.778,-0.735 6.226,-0.735 4.314,0 7.882,1.924 10.704,5.771 2.822,3.848 4.221,8.78 4.198,14.796 -0.023,6.04 -1.458,10.646 -4.302,13.817 -2.729,3.055 -6.25,5.025 -10.564,5.912 -0.7,0.14 -3.032,0.082 -6.996,-0.175 -1.633,-0.114 -3.207,-0.698 -4.723,-1.747 z m 7.486,-29.278 c -2.402,0 -4.256,0.991 -5.562,2.974 -1.282,1.958 -1.924,4.792 -1.924,8.5 v 9.725 c 0.443,1.166 2.938,1.749 7.486,1.749 2.425,0 4.272,-0.979 5.545,-2.938 1.269,-1.959 1.905,-4.804 1.905,-8.536 0,-3.731 -0.641,-6.576 -1.924,-8.535 -1.282,-1.96 -3.124,-2.939 -5.526,-2.939 z"
               inkscape:connector-curvature="0" />
            <path
               id="path8988"
               d="m 202.686,26.833 h 11.264 v 10.214 h -11.264 z m 0,15.251 h 11.264 v 39.178 h -11.264 z"
               inkscape:connector-curvature="0" />
            <path
               id="path8990"
               d="m 238.51,56.496 c -1.562,2.519 -2.344,4.757 -2.344,6.716 v 18.05 H 224.903 V 42.084 h 11.263 v 6.437 c 1.446,-2.565 3.113,-4.431 5.002,-5.597 1.866,-1.189 4.116,-1.784 6.751,-1.784 0.374,0 0.781,0.012 1.225,0.035 0.163,0 0.804,0.082 1.924,0.245 v 8.535 c -5.411,-0.42 -9.597,1.761 -12.558,6.541 z"
               inkscape:connector-curvature="0" />
            <path
               id="path8992"
               d="m 289.865,78.988 c -4.454,2.286 -9.958,3.428 -16.51,3.428 -8.045,0 -13.292,-1.224 -15.741,-3.672 -2.285,-2.286 -3.428,-5.364 -3.428,-9.235 0,-4.594 1.422,-7.964 4.267,-10.109 2.845,-2.146 7.309,-3.218 13.395,-3.218 h 6.646 v -0.979 c 0,-1.982 -0.704,-3.435 -2.115,-4.354 -1.411,-0.923 -3.598,-1.383 -6.56,-1.383 -2.425,0 -4.673,0.268 -6.749,0.805 -2.076,0.536 -4.011,1.341 -5.807,2.414 v -9.55 c 2.425,-0.653 4.851,-1.143 7.276,-1.469 2.588,-0.35 5.023,-0.524 7.308,-0.524 6.39,0 10.984,1.388 13.782,4.163 2.822,2.798 4.235,7.334 4.235,13.607 v 20.076 z m -17.21,-15.356 c -2.332,0 -4.104,0.443 -5.317,1.329 -1.236,0.909 -1.833,2.215 -1.786,3.918 0.047,1.539 0.527,2.775 1.437,3.708 0.723,0.746 2.052,1.201 3.988,1.364 3.545,0.303 6.026,0.082 7.448,-0.665 0.047,-0.023 0.07,-2.764 0.07,-8.22 v -1.434 z"
               inkscape:connector-curvature="0" />
            <path
               id="path8994"
               d="m 295.883,51.04 v -1.61 l 15.146,-18.469 h 1.749 v 11.124 h 11.613 v 8.955 h -11.613 v 16.615 c 0,1.819 0.315,3.043 0.945,3.673 0.652,0.653 1.947,0.979 3.882,0.979 h 5.807 v 8.955 h -9.654 c -4.454,0 -7.614,-1.026 -9.479,-3.079 -1.866,-2.052 -2.798,-5.562 -2.798,-10.529 V 51.04 Z"
               inkscape:connector-curvature="0" />
            <path
               id="path8996"
               d="m 366.615,61.568 v 3.568 h -26.34 c 0.256,2.938 1.208,5.142 2.85,6.611 1.646,1.469 3.937,2.204 6.875,2.204 2.378,0 4.808,-0.389 7.294,-1.173 2.481,-0.779 5.03,-1.964 7.642,-3.549 v 9.654 c -2.659,1.12 -5.324,1.966 -7.992,2.537 -2.672,0.569 -5.335,0.856 -7.994,0.856 -6.389,0 -11.352,-1.803 -14.882,-5.403 -3.536,-3.605 -5.301,-8.658 -5.301,-15.165 0,-6.39 1.737,-11.415 5.212,-15.076 3.475,-3.661 8.255,-5.492 14.342,-5.492 5.55,0 9.986,1.854 13.311,5.562 3.321,3.708 4.983,8.663 4.983,14.866 z m -11.578,-4.162 c 0,-2.379 -0.625,-4.295 -1.87,-5.755 -1.25,-1.455 -2.887,-2.185 -4.916,-2.185 -2.168,0 -3.936,0.683 -5.298,2.045 -1.367,1.366 -2.223,3.33 -2.572,5.895 z"
               inkscape:connector-curvature="0" />
          </g>
          <g
             id="g8998">
            <path
               id="path9000"
               d="m 382.347,79.233 v 16.93 h -6.471 V 42.084 h 6.471 v 5.492 c 1.749,-2.588 3.556,-4.309 5.422,-5.16 1.866,-0.851 4.232,-1.277 7.102,-1.277 4.757,0 8.621,1.889 11.597,5.667 2.971,3.778 4.459,8.745 4.459,14.901 0,6.157 -1.488,10.972 -4.459,14.447 -2.976,3.475 -6.84,5.212 -11.597,5.212 -2.869,0 -4.921,-0.1 -6.157,-0.296 -1.237,-0.197 -3.359,-0.811 -6.367,-1.837 z m 21.897,-17.525 c 0,-4.734 -0.975,-8.448 -2.922,-11.14 -1.947,-2.696 -4.622,-4.041 -8.026,-4.041 -2.915,0 -5.375,0.781 -7.381,2.343 -1.959,1.539 -3.148,4.291 -3.568,8.255 v 15.811 c 3.335,2.029 6.984,3.043 10.949,3.043 3.404,0 6.079,-1.206 8.026,-3.622 1.948,-2.41 2.922,-5.961 2.922,-10.649 z"
               style="fill:#231f20"
               inkscape:connector-curvature="0" />
            <path
               id="path9002"
               d="m 434.889,81.926 c -5.224,0.094 -9.293,-1.084 -12.208,-3.533 -2.262,-1.912 -3.393,-4.757 -3.393,-8.535 0,-4.408 1.474,-7.731 4.424,-9.97 2.95,-2.239 7.353,-3.358 13.206,-3.358 h 9.024 v -0.629 c 0,-2.962 -0.975,-5.254 -2.922,-6.873 -1.947,-1.623 -4.681,-2.432 -8.201,-2.432 -2.239,0 -4.42,0.268 -6.542,0.804 -2.122,0.536 -4.162,1.341 -6.121,2.414 v -5.946 c 2.355,-0.91 4.641,-1.592 6.856,-2.046 2.215,-0.455 4.372,-0.682 6.471,-0.682 5.667,0 9.899,1.469 12.698,4.408 2.798,2.938 4.197,7.345 4.197,13.222 v 0.14 l -0.035,19.659 c -4.477,2.145 -10.295,3.264 -17.454,3.357 z m 4.652,-20.358 c -5.2,0 -8.803,0.595 -10.809,1.784 -2.006,1.189 -3.009,3.218 -3.009,6.087 0,2.262 0.781,4.116 2.345,5.562 1.562,1.445 3.579,2.168 6.051,2.168 0.07,0 0.141,0 0.21,0 5.527,0 9.398,-0.618 11.613,-1.854 0,-6.623 0,-10.727 0,-12.313 v -1.434 z"
               style="fill:#231f20"
               inkscape:connector-curvature="0" />
            <path
               id="path9004"
               d="m 485.194,47.506 c -0.723,-0.419 -1.504,-0.66 -2.344,-0.716 -0.84,-0.061 -1.771,-0.03 -2.798,0.086 -3.521,0.443 -6.285,2.168 -8.29,5.177 -2.006,3.008 -3.009,6.728 -3.009,11.159 v 18.05 h -6.472 V 42.084 h 6.472 v 5.771 c 1.353,-2.378 3.113,-4.092 5.282,-5.142 2.169,-1.05 4.804,-1.574 7.905,-1.574 0.443,0 0.933,0.029 1.47,0.087 0.536,0.058 1.131,0.146 1.783,0.262 v 6.018 z"
               style="fill:#231f20"
               inkscape:connector-curvature="0" />
            <path
               id="path9006"
               d="m 490.549,47.087 v -5.072 h 4.723 v -4.932 l 6.471,-6.122 V 42.085 H 515 v 5.002 h -13.258 v 21.268 c 0,3.195 0.437,5.247 1.312,6.157 0.873,0.909 2.652,1.364 5.334,1.364 H 515 v 5.387 h -6.611 c -4.968,0 -8.396,-0.928 -10.284,-2.78 -1.889,-1.856 -2.833,-5.231 -2.833,-10.128 V 47.087 Z"
               style="fill:#231f20"
               inkscape:connector-curvature="0" />
            <path
               id="path9008"
               d="m 527.842,98.437 6.996,-17.805 -15.846,-38.548 h 6.821 l 12.243,30.643 12.242,-30.643 h 6.821 l -22.457,56.353 z"
               style="fill:#231f20"
               inkscape:connector-curvature="0" />
          </g>
          <text
             xml:space="preserve"
             style="color:#000000;font-style:normal;font-variant:normal;font-weight:normal;font-stretch:normal;font-size:5.753px;line-height:0%;font-family:sans-serif;-inkscape-font-specification:sans-serif;text-indent:0;text-align:start;text-decoration:none;text-decoration-line:none;text-decoration-style:solid;text-decoration-color:#000000;letter-spacing:0px;word-spacing:0px;text-transform:none;writing-mode:lr-tb;direction:ltr;baseline-shift:baseline;text-anchor:start;white-space:normal;clip-rule:nonzero;display:inline;overflow:visible;visibility:visible;isolation:auto;mix-blend-mode:normal;color-interpolation:sRGB;color-interpolation-filters:linearRGB;solid-color:#000000;solid-opacity:1;fill:#000000;fill-opacity:1;fill-rule:nonzero;stroke:none;stroke-width:0.479417px;stroke-linecap:butt;stroke-linejoin:miter;stroke-miterlimit:4;stroke-dasharray:none;stroke-dashoffset:0;stroke-opacity:1;marker:none;color-rendering:auto;image-rendering:auto;shape-rendering:auto;text-rendering:auto;enable-background:accumulate"
             x="241.4908"
             y="111.5939"
             id="text9754"><tspan
               sodipodi:role="line"
               id="tspan9756"
               x="241.4908"
               y="111.5939"
               style="font-style:normal;font-variant:normal;font-weight:bold;font-stretch:normal;font-size:20.144px;line-height:1.25;font-family:'Open Sans';-inkscape-font-specification:'Open Sans';text-align:center;text-anchor:middle;stroke-width:0.479417px">ukpirate.party/</tspan></text>
        </g>
        <g
           id="Signet-8">
          <polygon
             id="polygon9075"
             points="75.622,61.449 76.23,59.064 77.416,61.223 79.662,60.211 78.711,62.486 80.903,63.611 78.534,64.283 79.021,66.699 77.016,65.269 75.431,67.153 75.301,64.695 72.836,64.629 74.682,62.996 73.194,61.03 "
             style="fill:#ffffff" />
          <polygon
             id="polygon9077"
             points="87.699,46.83 88.307,44.445 89.493,46.604 91.738,45.592 90.789,47.867 92.979,48.992 90.61,49.664 91.098,52.08 89.093,50.65 87.507,52.534 87.378,50.076 84.913,50.01 86.758,48.377 85.271,46.411 "
             style="fill:#ffffff" />
          <polygon
             id="polygon9079"
             points="101.047,57.635 101.655,55.25 102.841,57.409 105.086,56.397 104.136,58.672 106.328,59.798 103.958,60.47 104.446,62.885 102.441,61.455 100.855,63.34 100.726,60.881 98.261,60.815 100.106,59.183 98.619,57.217 "
             style="fill:#ffffff" />
          <polygon
             id="polygon9081"
             points="89.605,81.789 90.213,79.404 91.4,81.563 93.646,80.551 92.695,82.827 94.886,83.952 92.518,84.624 93.005,87.04 91,85.609 89.415,87.494 89.285,85.036 86.82,84.969 88.665,83.336 87.178,81.37 "
             style="fill:#ffffff" />
          <polygon
             id="polygon9083"
             points="95.718,69.683 94.393,70.705 94.39,69.033 93.012,68.088 94.599,67.566 95.071,65.961 96.059,67.312 97.73,67.266 96.75,68.619 97.313,70.197 "
             style="fill:#ffffff" />
          <polygon
             id="polygon9049"
             points="93.067,81.579 94.499,79.564 94.83,82.013 97.298,81.873 95.59,83.659 97.234,85.504 94.774,85.282 94.359,87.717 92.997,85.655 90.834,86.85 91.599,84.499 89.317,83.552 91.63,82.684 90.946,80.311 "
             style="fill:#ffffff" />
          <polygon
             id="polygon9051"
             points="104.294,56.762 105.725,54.748 106.056,57.196 108.524,57.061 106.815,58.845 108.46,60.689 106,60.465 105.585,62.9 104.224,60.838 102.062,62.033 102.825,59.684 100.542,58.737 102.855,57.87 102.173,55.494 "
             style="fill:#ffffff" />
          <polygon
             id="polygon9053"
             points="91.886,46.128 93.316,44.112 93.647,46.562 96.115,46.422 94.407,48.208 96.053,50.051 93.593,49.832 93.177,52.266 91.817,50.205 89.652,51.398 90.417,49.048 88.134,48.101 90.448,47.233 89.765,44.859 "
             style="fill:#ffffff" />
          <polygon
             id="polygon9055"
             points="78.887,60.899 80.318,58.884 80.649,61.333 83.118,61.193 81.408,62.979 83.055,64.826 80.594,64.603 80.178,67.037 78.818,64.976 76.654,66.169 77.418,63.819 75.135,62.874 77.45,62.004 76.766,59.63 "
             style="fill:#ffffff" />
          <polygon
             id="polygon9057"
             points="98.076,69.411 96.562,70.134 96.911,68.492 95.758,67.275 97.427,67.1 98.229,65.626 98.91,67.16 100.559,67.466 99.312,68.59 99.527,70.255 "
             style="fill:#ffffff" />
          <g
             id="g9059">
            <path
               id="path9061"
               d="M 135.039,89.912 C 128.733,125.113 95.081,148.545 59.874,142.237 24.667,135.931 1.237,102.28 7.544,67.079 13.848,31.873 47.5,8.449 82.709,14.756 c 35.206,6.305 58.634,39.954 52.33,75.156 z"
               style="fill:#ffffff"
               inkscape:connector-curvature="0" />
            <path
               id="path9063"
               d="m 81.105,23.712 c -30.26,-5.419 -59.186,14.72 -64.604,44.976 -5.42,30.26 14.716,59.188 44.976,64.61 30.259,5.415 59.183,-14.727 64.602,-44.984 5.42,-30.255 -14.715,-59.182 -44.974,-64.602 z m 53.932,66.206 C 128.731,125.124 95.08,148.556 59.872,142.252 24.664,135.944 1.235,102.291 7.543,67.083 13.847,31.877 47.501,8.448 82.709,14.755 c 35.206,6.306 58.634,39.959 52.328,75.163 z"
               inkscape:connector-curvature="0" />
            <g
               id="g9065">
              <polygon
                 id="polygon9067"
                 points="53.188,92.129 51.237,33.772 46.998,33.014 47.327,98.379 54.451,95.273 " />
              <path
                 id="path9069"
                 d="m 41.057,45.816 c 0,0 60.699,-23.026 69.619,18.67 0,0 5.716,19.558 -22.992,26.528 0,0 -19.617,4.877 -21.554,4.893 -1.947,0.02 -1.947,0.02 -1.947,0.02 0,0 -19.291,3.84 -14.798,27.627 0,0 -14.917,-21.275 12.979,-38.168 0,0 10.796,-9.016 7.42,-22.749 -0.001,0 -3.343,-16.313 -28.727,-16.821 z"
                 inkscape:connector-curvature="0" />
              <polygon
                 id="polygon9071"
                 points="54.873,96.991 47.304,93.659 47.251,104.929 " />
              <path
                 id="path9073"
                 d="m 81.912,92.428 c 0,0 -29.423,4.918 -32.373,17.679 -2.95,12.763 -3.591,-19.303 15.273,-20.748 18.864,-1.433 1.617,-0.877 1.617,-0.877 l 17.984,-1.609 -2.268,4.242"
                 inkscape:connector-curvature="0" />
            </g>
          </g>
        </g>
      </g>
    </g>
    <g
       inkscape:groupmode="layer"
       id="layer5"
       inkscape:label="website_blue"
       style="display:none"
       sodipodi:insensitive="true">
      <g
         style="display:inline"
         id="g8596"
         transform="translate(98.182048,849.08538)">
        <g
           id="Text">
          <g
             id="g8489">
            <path
               id="path8491"
               d="m 167.668,79.513 v 16.65 H 156.404 V 42.084 h 11.264 v 3.428 c 1.936,-1.936 3.754,-3.148 5.457,-3.638 1.702,-0.49 3.778,-0.735 6.226,-0.735 4.314,0 7.882,1.924 10.704,5.771 2.822,3.848 4.221,8.78 4.198,14.796 -0.023,6.04 -1.458,10.646 -4.302,13.817 -2.729,3.055 -6.25,5.025 -10.564,5.912 -0.7,0.14 -3.032,0.082 -6.996,-0.175 -1.633,-0.114 -3.207,-0.698 -4.723,-1.747 z m 7.486,-29.278 c -2.402,0 -4.256,0.991 -5.562,2.974 -1.282,1.958 -1.924,4.792 -1.924,8.5 v 9.725 c 0.443,1.166 2.938,1.749 7.486,1.749 2.425,0 4.272,-0.979 5.545,-2.938 1.269,-1.959 1.905,-4.804 1.905,-8.536 0,-3.731 -0.641,-6.576 -1.924,-8.535 -1.282,-1.96 -3.124,-2.939 -5.526,-2.939 z"
               style="fill:#0073ae"
               inkscape:connector-curvature="0" />
            <path
               id="path8493"
               d="m 202.686,26.833 h 11.264 v 10.214 h -11.264 z m 0,15.251 h 11.264 v 39.178 h -11.264 z"
               style="fill:#0073ae"
               inkscape:connector-curvature="0" />
            <path
               id="path8495"
               d="m 238.51,56.496 c -1.562,2.519 -2.344,4.757 -2.344,6.716 v 18.05 H 224.903 V 42.084 h 11.263 v 6.437 c 1.446,-2.565 3.113,-4.431 5.002,-5.597 1.866,-1.189 4.116,-1.784 6.751,-1.784 0.374,0 0.781,0.012 1.225,0.035 0.163,0 0.804,0.082 1.924,0.245 v 8.535 c -5.411,-0.42 -9.597,1.761 -12.558,6.541 z"
               style="fill:#0073ae"
               inkscape:connector-curvature="0" />
            <path
               id="path8497"
               d="m 289.865,78.988 c -4.454,2.286 -9.958,3.428 -16.51,3.428 -8.045,0 -13.292,-1.224 -15.741,-3.672 -2.285,-2.286 -3.428,-5.364 -3.428,-9.235 0,-4.594 1.422,-7.964 4.267,-10.109 2.845,-2.146 7.309,-3.218 13.395,-3.218 h 6.646 v -0.979 c 0,-1.982 -0.704,-3.435 -2.115,-4.354 -1.411,-0.923 -3.598,-1.383 -6.56,-1.383 -2.425,0 -4.673,0.268 -6.749,0.805 -2.076,0.536 -4.011,1.341 -5.807,2.414 v -9.55 c 2.425,-0.653 4.851,-1.143 7.276,-1.469 2.588,-0.35 5.023,-0.524 7.308,-0.524 6.39,0 10.984,1.388 13.782,4.163 2.822,2.798 4.235,7.334 4.235,13.607 v 20.076 z m -17.21,-15.356 c -2.332,0 -4.104,0.443 -5.317,1.329 -1.236,0.909 -1.833,2.215 -1.786,3.918 0.047,1.539 0.527,2.775 1.437,3.708 0.723,0.746 2.052,1.201 3.988,1.364 3.545,0.303 6.026,0.082 7.448,-0.665 0.047,-0.023 0.07,-2.764 0.07,-8.22 v -1.434 z"
               style="fill:#0073ae"
               inkscape:connector-curvature="0" />
            <path
               id="path8499"
               d="m 295.883,51.04 v -1.61 l 15.146,-18.469 h 1.749 v 11.124 h 11.613 v 8.955 h -11.613 v 16.615 c 0,1.819 0.315,3.043 0.945,3.673 0.652,0.653 1.947,0.979 3.882,0.979 h 5.807 v 8.955 h -9.654 c -4.454,0 -7.614,-1.026 -9.479,-3.079 -1.866,-2.052 -2.798,-5.562 -2.798,-10.529 V 51.04 Z"
               style="fill:#0073ae"
               inkscape:connector-curvature="0" />
            <path
               id="path8501"
               d="m 366.615,61.568 v 3.568 h -26.34 c 0.256,2.938 1.208,5.142 2.85,6.611 1.646,1.469 3.937,2.204 6.875,2.204 2.378,0 4.808,-0.389 7.294,-1.173 2.481,-0.779 5.03,-1.964 7.642,-3.549 v 9.654 c -2.659,1.12 -5.324,1.966 -7.992,2.537 -2.672,0.569 -5.335,0.856 -7.994,0.856 -6.389,0 -11.352,-1.803 -14.882,-5.403 -3.536,-3.605 -5.301,-8.658 -5.301,-15.165 0,-6.39 1.737,-11.415 5.212,-15.076 3.475,-3.661 8.255,-5.492 14.342,-5.492 5.55,0 9.986,1.854 13.311,5.562 3.321,3.708 4.983,8.663 4.983,14.866 z m -11.578,-4.162 c 0,-2.379 -0.625,-4.295 -1.87,-5.755 -1.25,-1.455 -2.887,-2.185 -4.916,-2.185 -2.168,0 -3.936,0.683 -5.298,2.045 -1.367,1.366 -2.223,3.33 -2.572,5.895 z"
               style="fill:#0073ae"
               inkscape:connector-curvature="0" />
          </g>
          <g
             id="g8503">
            <path
               id="path8505"
               d="m 382.347,79.233 v 16.93 h -6.471 V 42.084 h 6.471 v 5.492 c 1.749,-2.588 3.556,-4.309 5.422,-5.16 1.866,-0.851 4.232,-1.277 7.102,-1.277 4.757,0 8.621,1.889 11.597,5.667 2.971,3.778 4.459,8.745 4.459,14.901 0,6.157 -1.488,10.972 -4.459,14.447 -2.976,3.475 -6.84,5.212 -11.597,5.212 -2.869,0 -4.921,-0.1 -6.157,-0.296 -1.237,-0.197 -3.359,-0.811 -6.367,-1.837 z m 21.897,-17.525 c 0,-4.734 -0.975,-8.448 -2.922,-11.14 -1.947,-2.696 -4.622,-4.041 -8.026,-4.041 -2.915,0 -5.375,0.781 -7.381,2.343 -1.959,1.539 -3.148,4.291 -3.568,8.255 v 15.811 c 3.335,2.029 6.984,3.043 10.949,3.043 3.404,0 6.079,-1.206 8.026,-3.622 1.948,-2.41 2.922,-5.961 2.922,-10.649 z"
               style="fill:#231f20"
               inkscape:connector-curvature="0" />
            <path
               id="path8507"
               d="m 434.889,81.926 c -5.224,0.094 -9.293,-1.084 -12.208,-3.533 -2.262,-1.912 -3.393,-4.757 -3.393,-8.535 0,-4.408 1.474,-7.731 4.424,-9.97 2.95,-2.239 7.353,-3.358 13.206,-3.358 h 9.024 v -0.629 c 0,-2.962 -0.975,-5.254 -2.922,-6.873 -1.947,-1.623 -4.681,-2.432 -8.201,-2.432 -2.239,0 -4.42,0.268 -6.542,0.804 -2.122,0.536 -4.162,1.341 -6.121,2.414 v -5.946 c 2.355,-0.91 4.641,-1.592 6.856,-2.046 2.215,-0.455 4.372,-0.682 6.471,-0.682 5.667,0 9.899,1.469 12.698,4.408 2.798,2.938 4.197,7.345 4.197,13.222 v 0.14 l -0.035,19.659 c -4.477,2.145 -10.295,3.264 -17.454,3.357 z m 4.652,-20.358 c -5.2,0 -8.803,0.595 -10.809,1.784 -2.006,1.189 -3.009,3.218 -3.009,6.087 0,2.262 0.781,4.116 2.345,5.562 1.562,1.445 3.579,2.168 6.051,2.168 0.07,0 0.141,0 0.21,0 5.527,0 9.398,-0.618 11.613,-1.854 0,-6.623 0,-10.727 0,-12.313 v -1.434 z"
               style="fill:#231f20"
               inkscape:connector-curvature="0" />
            <path
               id="path8509"
               d="m 485.194,47.506 c -0.723,-0.419 -1.504,-0.66 -2.344,-0.716 -0.84,-0.061 -1.771,-0.03 -2.798,0.086 -3.521,0.443 -6.285,2.168 -8.29,5.177 -2.006,3.008 -3.009,6.728 -3.009,11.159 v 18.05 h -6.472 V 42.084 h 6.472 v 5.771 c 1.353,-2.378 3.113,-4.092 5.282,-5.142 2.169,-1.05 4.804,-1.574 7.905,-1.574 0.443,0 0.933,0.029 1.47,0.087 0.536,0.058 1.131,0.146 1.783,0.262 v 6.018 z"
               style="fill:#231f20"
               inkscape:connector-curvature="0" />
            <path
               id="path8511"
               d="m 490.549,47.087 v -5.072 h 4.723 v -4.932 l 6.471,-6.122 V 42.085 H 515 v 5.002 h -13.258 v 21.268 c 0,3.195 0.437,5.247 1.312,6.157 0.873,0.909 2.652,1.364 5.334,1.364 H 515 v 5.387 h -6.611 c -4.968,0 -8.396,-0.928 -10.284,-2.78 -1.889,-1.856 -2.833,-5.231 -2.833,-10.128 V 47.087 Z"
               style="fill:#231f20"
               inkscape:connector-curvature="0" />
            <path
               id="path8513"
               d="m 527.842,98.437 6.996,-17.805 -15.846,-38.548 h 6.821 l 12.243,30.643 12.242,-30.643 h 6.821 l -22.457,56.353 z"
               style="fill:#231f20"
               inkscape:connector-curvature="0" />
          </g>
          <g
             id="g8515">
            <path
               id="path8517"
               d="m 159.598,122.975 v 7.09 h -2.71 v -22.646 h 2.71 v 2.299 c 0.732,-1.084 1.489,-1.804 2.271,-2.16 0.782,-0.356 1.772,-0.535 2.974,-0.535 1.992,0 3.611,0.791 4.856,2.373 1.245,1.582 1.868,3.662 1.868,6.24 0,2.578 -0.623,4.596 -1.868,6.051 -1.245,1.455 -2.864,2.182 -4.856,2.182 -1.201,0 -2.061,-0.041 -2.578,-0.123 -0.518,-0.085 -1.407,-0.341 -2.667,-0.771 z m 9.17,-7.34 c 0,-1.982 -0.408,-3.537 -1.223,-4.664 -0.815,-1.129 -1.936,-1.693 -3.362,-1.693 -1.221,0 -2.251,0.328 -3.091,0.982 -0.82,0.645 -1.318,1.797 -1.494,3.457 v 6.621 c 1.396,0.85 2.925,1.273 4.585,1.273 1.426,0 2.546,-0.504 3.362,-1.516 0.815,-1.009 1.223,-2.497 1.223,-4.46 z"
               style="fill:#231f20"
               inkscape:connector-curvature="0" />
            <path
               id="path8519"
               d="m 176.034,101.032 h 2.695 v 3.412 h -2.695 z m 0,6.386 h 2.695 v 16.406 h -2.695 z"
               style="fill:#231f20"
               inkscape:connector-curvature="0" />
            <path
               id="path8521"
               d="m 193.699,109.688 c -0.303,-0.176 -0.63,-0.275 -0.981,-0.299 -0.352,-0.025 -0.742,-0.014 -1.172,0.035 -1.475,0.186 -2.632,0.908 -3.472,2.168 -0.84,1.26 -1.26,2.818 -1.26,4.674 v 7.559 h -2.71 v -16.406 h 2.71 v 2.416 c 0.566,-0.996 1.304,-1.713 2.212,-2.152 0.908,-0.439 2.012,-0.66 3.311,-0.66 0.186,0 0.391,0.013 0.615,0.037 0.224,0.024 0.474,0.061 0.747,0.109 z"
               style="fill:#231f20"
               inkscape:connector-curvature="0" />
            <path
               id="path8523"
               d="m 203.411,124.102 c -2.188,0.039 -3.892,-0.453 -5.112,-1.479 -0.947,-0.801 -1.421,-1.992 -1.421,-3.574 0,-1.846 0.618,-3.238 1.853,-4.176 1.235,-0.938 3.079,-1.406 5.53,-1.406 h 3.779 v -0.264 c 0,-1.24 -0.408,-2.199 -1.223,-2.877 -0.815,-0.68 -1.96,-1.02 -3.435,-1.02 -0.938,0 -1.851,0.113 -2.739,0.338 -0.888,0.225 -1.743,0.561 -2.563,1.01 v -2.49 c 0.986,-0.381 1.943,-0.666 2.871,-0.856 0.928,-0.19 1.831,-0.286 2.71,-0.286 2.373,0 4.146,0.615 5.317,1.846 1.171,1.231 1.758,3.076 1.758,5.537 v 0.059 l -0.015,8.232 c -1.876,0.898 -4.312,1.367 -7.31,1.406 z m 1.948,-8.525 c -2.178,0 -3.687,0.25 -4.526,0.748 -0.839,0.498 -1.26,1.348 -1.26,2.549 0,0.947 0.327,1.723 0.981,2.328 0.654,0.605 1.499,0.908 2.534,0.908 0.029,0 0.059,0 0.088,0 2.314,0 3.936,-0.258 4.863,-0.775 0,-2.773 0,-4.492 0,-5.156 v -0.602 z"
               style="fill:#231f20"
               inkscape:connector-curvature="0" />
            <path
               id="path8525"
               d="m 214.265,109.512 v -2.123 h 1.978 v -2.066 l 2.71,-2.562 v 4.658 h 5.552 v 2.094 h -5.552 v 8.906 c 0,1.338 0.183,2.197 0.549,2.578 0.366,0.381 1.111,0.572 2.234,0.572 h 2.769 v 2.256 h -2.769 c -2.08,0 -3.516,-0.389 -4.307,-1.164 -0.791,-0.777 -1.187,-2.191 -1.187,-4.242 v -8.906 h -1.977 z"
               style="fill:#231f20"
               inkscape:connector-curvature="0" />
            <path
               id="path8527"
               d="m 242.083,114.948 v 1.318 H 229.69 c 0.117,1.855 0.676,3.27 1.677,4.24 1.001,0.973 2.395,1.457 4.182,1.457 1.035,0 2.039,-0.127 3.01,-0.381 0.971,-0.254 1.936,-0.635 2.893,-1.143 v 2.549 c -0.967,0.41 -1.958,0.723 -2.974,0.938 -1.016,0.215 -2.046,0.322 -3.091,0.322 -2.617,0 -4.69,-0.762 -6.218,-2.285 -1.528,-1.523 -2.292,-3.584 -2.292,-6.182 0,-2.686 0.725,-4.816 2.175,-6.393 1.45,-1.578 3.406,-2.367 5.867,-2.367 2.207,0 3.953,0.711 5.237,2.133 1.284,1.421 1.927,3.352 1.927,5.794 z m -2.696,-0.791 c -0.02,-1.475 -0.432,-2.652 -1.238,-3.531 -0.806,-0.879 -1.873,-1.318 -3.201,-1.318 -1.504,0 -2.708,0.426 -3.611,1.275 -0.903,0.849 -1.423,2.045 -1.56,3.588 z"
               style="fill:#231f20"
               inkscape:connector-curvature="0" />
            <path
               id="path8529"
               d="m 249.114,122.975 v 7.09 h -2.71 v -22.646 h 2.71 v 2.299 c 0.732,-1.084 1.489,-1.804 2.271,-2.16 0.782,-0.356 1.772,-0.535 2.974,-0.535 1.992,0 3.611,0.791 4.856,2.373 1.245,1.582 1.868,3.662 1.868,6.24 0,2.578 -0.623,4.596 -1.868,6.051 -1.245,1.455 -2.864,2.182 -4.856,2.182 -1.201,0 -2.061,-0.041 -2.578,-0.123 -0.519,-0.085 -1.407,-0.341 -2.667,-0.771 z m 9.17,-7.34 c 0,-1.982 -0.408,-3.537 -1.223,-4.664 -0.815,-1.129 -1.936,-1.693 -3.362,-1.693 -1.221,0 -2.251,0.328 -3.091,0.982 -0.82,0.645 -1.318,1.797 -1.494,3.457 v 6.621 c 1.396,0.85 2.925,1.273 4.585,1.273 1.426,0 2.546,-0.504 3.362,-1.516 0.815,-1.009 1.223,-2.497 1.223,-4.46 z"
               style="fill:#231f20"
               inkscape:connector-curvature="0" />
            <path
               id="path8531"
               d="m 271.057,124.102 c -2.188,0.039 -3.892,-0.453 -5.112,-1.479 -0.947,-0.801 -1.421,-1.992 -1.421,-3.574 0,-1.846 0.618,-3.238 1.853,-4.176 1.235,-0.938 3.079,-1.406 5.53,-1.406 h 3.779 v -0.264 c 0,-1.24 -0.408,-2.199 -1.223,-2.877 -0.815,-0.68 -1.96,-1.02 -3.435,-1.02 -0.938,0 -1.851,0.113 -2.739,0.338 -0.888,0.225 -1.743,0.561 -2.563,1.01 v -2.49 c 0.986,-0.381 1.943,-0.666 2.871,-0.856 0.928,-0.19 1.831,-0.286 2.71,-0.286 2.373,0 4.146,0.615 5.317,1.846 1.171,1.231 1.758,3.076 1.758,5.537 v 0.059 l -0.015,8.232 c -1.875,0.898 -4.312,1.367 -7.31,1.406 z m 1.948,-8.525 c -2.178,0 -3.687,0.25 -4.526,0.748 -0.839,0.498 -1.26,1.348 -1.26,2.549 0,0.947 0.327,1.723 0.981,2.328 0.654,0.605 1.499,0.908 2.534,0.908 0.029,0 0.059,0 0.088,0 2.314,0 3.936,-0.258 4.863,-0.775 0,-2.773 0,-4.492 0,-5.156 v -0.602 z"
               style="fill:#231f20"
               inkscape:connector-curvature="0" />
            <path
               id="path8533"
               d="m 292.063,109.688 c -0.303,-0.176 -0.63,-0.275 -0.981,-0.299 -0.352,-0.025 -0.742,-0.014 -1.172,0.035 -1.475,0.186 -2.632,0.908 -3.472,2.168 -0.84,1.26 -1.26,2.818 -1.26,4.674 v 7.559 h -2.71 v -16.406 h 2.71 v 2.416 c 0.566,-0.996 1.304,-1.713 2.212,-2.152 0.908,-0.439 2.012,-0.66 3.311,-0.66 0.186,0 0.391,0.013 0.615,0.037 0.224,0.024 0.474,0.061 0.747,0.109 z"
               style="fill:#231f20"
               inkscape:connector-curvature="0" />
            <path
               id="path8535"
               d="m 294.246,109.512 v -2.123 h 1.978 v -2.066 l 2.71,-2.562 v 4.658 h 5.552 v 2.094 h -5.552 v 8.906 c 0,1.338 0.183,2.197 0.549,2.578 0.366,0.381 1.111,0.572 2.234,0.572 h 2.769 v 2.256 h -2.769 c -2.08,0 -3.516,-0.389 -4.307,-1.164 -0.791,-0.777 -1.187,-2.191 -1.187,-4.242 v -8.906 h -1.977 z"
               style="fill:#231f20"
               inkscape:connector-curvature="0" />
            <path
               id="path8537"
               d="m 309.802,131.016 2.93,-7.455 -6.636,-16.143 h 2.856 l 5.127,12.832 5.127,-12.832 h 2.856 l -9.404,23.598 z"
               style="fill:#231f20"
               inkscape:connector-curvature="0" />
            <path
               id="path8539"
               d="m 321.887,120.104 h 3.091 v 3.721 h -3.091 z"
               style="fill:#231f20"
               inkscape:connector-curvature="0" />
            <path
               id="path8541"
               d="m 337.4,107.022 c 2.344,0 4.185,0.762 5.522,2.285 1.337,1.523 2.007,3.633 2.007,6.328 0,2.686 -0.669,4.793 -2.007,6.322 -1.338,1.527 -3.179,2.291 -5.522,2.291 -2.354,0 -4.197,-0.764 -5.53,-2.291 -1.333,-1.529 -2,-3.637 -2,-6.322 0,-2.695 0.667,-4.805 2,-6.328 1.333,-1.523 3.176,-2.285 5.53,-2.285 z m 0,2.285 c -1.445,0 -2.588,0.564 -3.428,1.693 -0.84,1.127 -1.26,2.672 -1.26,4.635 0,1.963 0.417,3.51 1.252,4.637 0.835,1.129 1.98,1.691 3.435,1.691 1.436,0 2.573,-0.566 3.413,-1.699 0.84,-1.133 1.26,-2.676 1.26,-4.629 0,-1.943 -0.42,-3.482 -1.26,-4.621 -0.839,-1.137 -1.977,-1.707 -3.412,-1.707 z"
               style="fill:#231f20"
               inkscape:connector-curvature="0" />
            <path
               id="path8543"
               d="m 357.527,109.688 c -0.303,-0.176 -0.63,-0.275 -0.981,-0.299 -0.352,-0.025 -0.742,-0.014 -1.172,0.035 -1.475,0.186 -2.632,0.908 -3.472,2.168 -0.84,1.26 -1.26,2.818 -1.26,4.674 v 7.559 h -2.71 v -16.406 h 2.71 v 2.416 c 0.566,-0.996 1.304,-1.713 2.212,-2.152 0.908,-0.439 2.012,-0.66 3.311,-0.66 0.186,0 0.391,0.013 0.615,0.037 0.224,0.024 0.474,0.061 0.747,0.109 z"
               style="fill:#231f20"
               inkscape:connector-curvature="0" />
            <path
               id="path8545"
               d="m 374.695,121.788 c 0,2.793 -0.62,4.871 -1.86,6.234 -1.24,1.361 -3.14,2.043 -5.698,2.043 -0.947,0 -1.841,-0.072 -2.681,-0.213 -0.84,-0.143 -1.655,-0.359 -2.446,-0.652 v -2.621 c 0.791,0.43 1.572,0.746 2.344,0.951 0.772,0.205 1.558,0.309 2.358,0.309 1.768,0 3.091,-0.461 3.97,-1.385 0.879,-0.922 1.318,-2.316 1.318,-4.182 v -1.334 c -0.557,0.967 -1.27,1.689 -2.139,2.168 -0.869,0.479 -1.909,0.719 -3.12,0.719 -2.012,0 -3.633,-0.768 -4.863,-2.301 -1.23,-1.533 -1.846,-3.564 -1.846,-6.094 0,-2.539 0.615,-4.574 1.846,-6.107 1.231,-1.533 2.852,-2.301 4.863,-2.301 1.211,0 2.251,0.24 3.12,0.719 0.869,0.479 1.582,1.201 2.139,2.168 v -2.49 h 2.695 z M 372,115.43 c 0,-1.953 -0.402,-3.467 -1.209,-4.541 -0.805,-1.074 -1.936,-1.611 -3.391,-1.611 -1.445,0 -2.57,0.537 -3.377,1.611 -0.805,1.074 -1.208,2.588 -1.208,4.541 0,1.943 0.403,3.453 1.208,4.527 0.807,1.074 1.932,1.611 3.377,1.611 1.455,0 2.586,-0.537 3.391,-1.611 0.806,-1.074 1.209,-2.583 1.209,-4.527 z"
               style="fill:#231f20"
               inkscape:connector-curvature="0" />
            <path
               id="path8547"
               d="m 380.627,120.104 h 3.091 v 3.721 h -3.091 z"
               style="fill:#231f20"
               inkscape:connector-curvature="0" />
            <path
               id="path8549"
               d="m 395.29,124.102 c -2.188,0.039 -3.891,-0.453 -5.111,-1.479 -0.948,-0.801 -1.421,-1.992 -1.421,-3.574 0,-1.846 0.617,-3.238 1.853,-4.176 1.234,-0.938 3.078,-1.406 5.529,-1.406 h 3.779 v -0.264 c 0,-1.24 -0.408,-2.199 -1.223,-2.877 -0.816,-0.68 -1.961,-1.02 -3.436,-1.02 -0.938,0 -1.85,0.113 -2.738,0.338 -0.888,0.225 -1.744,0.561 -2.564,1.01 v -2.49 c 0.986,-0.381 1.943,-0.666 2.871,-0.856 0.928,-0.19 1.832,-0.286 2.711,-0.286 2.373,0 4.145,0.615 5.316,1.846 1.171,1.231 1.758,3.076 1.758,5.537 v 0.059 l -0.014,8.232 c -1.874,0.898 -4.312,1.367 -7.31,1.406 z m 1.949,-8.525 c -2.178,0 -3.688,0.25 -4.527,0.748 -0.839,0.498 -1.26,1.348 -1.26,2.549 0,0.947 0.328,1.723 0.982,2.328 0.654,0.605 1.498,0.908 2.533,0.908 0.029,0 0.059,0 0.088,0 2.314,0 3.936,-0.258 4.863,-0.775 0,-2.773 0,-4.492 0,-5.156 v -0.602 z"
               style="fill:#231f20"
               inkscape:connector-curvature="0" />
            <path
               id="path8551"
               d="m 421.628,123.721 c -1.025,0.303 -2.326,0.492 -3.904,0.564 -1.576,0.074 -2.936,0.109 -4.078,0.109 -1.885,0 -3.316,-0.586 -4.293,-1.758 -0.977,-1.172 -1.465,-2.934 -1.465,-5.287 v -9.932 h 2.695 v 9.17 c 0,2.207 0.172,3.555 0.514,4.043 0.586,0.82 1.625,1.25 3.119,1.289 0.43,0.01 1.113,0.029 2.051,0.059 1.562,-0.02 2.451,-0.186 2.666,-0.498 0,-3.164 0,-4.752 0,-4.762 v -9.301 h 2.695 z"
               style="fill:#231f20"
               inkscape:connector-curvature="0" />
          </g>
        </g>
        <g
           id="Signet">
          <polygon
             id="polygon8554"
             points="93.067,81.579 94.499,79.564 94.83,82.013 97.298,81.873 95.59,83.659 97.234,85.504 94.774,85.282 94.359,87.717 92.997,85.655 90.834,86.85 91.599,84.499 89.317,83.552 91.63,82.684 90.946,80.311 "
             style="fill:#ffffff" />
          <polygon
             id="polygon8556"
             points="104.294,56.762 105.725,54.748 106.056,57.196 108.524,57.061 106.815,58.845 108.46,60.689 106,60.465 105.585,62.9 104.224,60.838 102.062,62.033 102.825,59.684 100.542,58.737 102.855,57.87 102.173,55.494 "
             style="fill:#ffffff" />
          <polygon
             id="polygon8558"
             points="91.886,46.128 93.316,44.112 93.647,46.562 96.115,46.422 94.407,48.208 96.053,50.051 93.593,49.832 93.177,52.266 91.817,50.205 89.652,51.398 90.417,49.048 88.134,48.101 90.448,47.233 89.765,44.859 "
             style="fill:#ffffff" />
          <polygon
             id="polygon8560"
             points="78.887,60.899 80.318,58.884 80.649,61.333 83.118,61.193 81.408,62.979 83.055,64.826 80.594,64.603 80.178,67.037 78.818,64.976 76.654,66.169 77.418,63.819 75.135,62.874 77.45,62.004 76.766,59.63 "
             style="fill:#ffffff" />
          <polygon
             id="polygon8562"
             points="96.911,68.492 95.758,67.275 97.427,67.1 98.229,65.626 98.91,67.16 100.559,67.466 99.312,68.59 99.527,70.255 98.076,69.411 96.562,70.134 "
             style="fill:#ffffff" />
          <g
             id="g8564">
            <path
               id="path8566"
               d="M 135.039,89.912 C 128.733,125.113 95.081,148.545 59.874,142.237 24.667,135.931 1.237,102.28 7.544,67.079 13.848,31.873 47.5,8.449 82.709,14.756 c 35.206,6.305 58.634,39.954 52.33,75.156 z"
               style="fill:#ffffff"
               inkscape:connector-curvature="0" />
            <path
               id="path8568"
               d="m 81.105,23.712 c -30.26,-5.419 -59.186,14.72 -64.604,44.976 -5.42,30.26 14.716,59.188 44.976,64.61 30.259,5.415 59.183,-14.727 64.602,-44.984 5.42,-30.255 -14.715,-59.182 -44.974,-64.602 z m 53.932,66.206 C 128.731,125.124 95.08,148.556 59.872,142.252 24.664,135.944 1.235,102.291 7.543,67.083 13.847,31.877 47.501,8.448 82.709,14.755 c 35.206,6.306 58.634,39.959 52.328,75.163 z"
               inkscape:connector-curvature="0" />
            <g
               id="g8570">
              <polygon
                 id="polygon8572"
                 points="51.237,33.772 46.998,33.014 47.327,98.379 54.451,95.273 53.188,92.129 " />
              <path
                 id="path8574"
                 d="m 41.057,45.816 c 0,0 60.699,-23.026 69.619,18.67 0,0 5.716,19.558 -22.992,26.528 0,0 -19.617,4.877 -21.554,4.893 -1.947,0.02 -1.947,0.02 -1.947,0.02 0,0 -19.291,3.84 -14.798,27.627 0,0 -14.917,-21.275 12.979,-38.168 0,0 10.796,-9.016 7.42,-22.749 -0.001,0 -3.343,-16.313 -28.727,-16.821 z"
                 inkscape:connector-curvature="0" />
              <polygon
                 id="polygon8576"
                 points="54.873,96.991 47.304,93.659 47.251,104.929 " />
              <path
                 id="path8578"
                 d="m 81.912,92.428 c 0,0 -29.423,4.918 -32.373,17.679 -2.95,12.763 -3.591,-19.303 15.273,-20.748 18.864,-1.433 1.617,-0.877 1.617,-0.877 l 17.984,-1.609 -2.268,4.242"
                 inkscape:connector-curvature="0" />
            </g>
          </g>
          <polygon
             id="polygon8580"
             points="75.622,61.449 76.23,59.064 77.416,61.223 79.662,60.211 78.711,62.486 80.903,63.611 78.534,64.283 79.021,66.699 77.016,65.269 75.431,67.153 75.301,64.695 72.836,64.629 74.682,62.996 73.194,61.03 "
             style="fill:#ffffff" />
          <polygon
             id="polygon8582"
             points="87.699,46.83 88.307,44.445 89.493,46.604 91.738,45.592 90.789,47.867 92.979,48.992 90.61,49.664 91.098,52.08 89.093,50.65 87.507,52.534 87.378,50.076 84.913,50.01 86.758,48.377 85.271,46.411 "
             style="fill:#ffffff" />
          <polygon
             id="polygon8584"
             points="101.047,57.635 101.655,55.25 102.841,57.409 105.086,56.397 104.136,58.672 106.328,59.798 103.958,60.47 104.446,62.885 102.441,61.455 100.855,63.34 100.726,60.881 98.261,60.815 100.106,59.183 98.619,57.217 "
             style="fill:#ffffff" />
          <polygon
             id="polygon8586"
             points="89.605,81.789 90.213,79.404 91.4,81.563 93.646,80.551 92.695,82.827 94.886,83.952 92.518,84.624 93.005,87.04 91,85.609 89.415,87.494 89.285,85.036 86.82,84.969 88.665,83.336 87.178,81.37 "
             style="fill:#ffffff" />
          <polygon
             id="polygon8588"
             points="94.39,69.033 93.012,68.088 94.599,67.566 95.071,65.961 96.059,67.312 97.73,67.266 96.75,68.619 97.313,70.197 95.718,69.683 94.393,70.705 "
             style="fill:#ffffff" />
        </g>
      </g>
    </g>
  </g>
  <g
     inkscape:groupmode="layer"
     id="layer4"
     inkscape:label="Tags"
     style="display:inline">
    <text
       xml:space="preserve"
       style="color:#000000;font-style:normal;font-variant:normal;font-weight:normal;font-stretch:normal;line-height:0%;font-family:sans-serif;-inkscape-font-specification:sans-serif;text-indent:0;text-align:center;text-decoration:none;text-decoration-line:none;text-decoration-style:solid;text-decoration-color:#000000;letter-spacing:0px;word-spacing:0px;text-transform:none;writing-mode:lr-tb;direction:ltr;baseline-shift:baseline;text-anchor:middle;white-space:normal;clip-rule:nonzero;display:inline;overflow:visible;visibility:visible;opacity:1;isolation:auto;mix-blend-mode:normal;color-interpolation:sRGB;color-interpolation-filters:linearRGB;solid-color:#000000;solid-opacity:1;fill:#808080;fill-opacity:1;fill-rule:nonzero;stroke:none;stroke-width:1px;stroke-linecap:butt;stroke-linejoin:miter;stroke-miterlimit:4;stroke-dasharray:none;stroke-dashoffset:0;stroke-opacity:1;marker:none;color-rendering:auto;image-rendering:auto;shape-rendering:auto;text-rendering:auto;enable-background:accumulate"
       x="370.95996"
       y="1042.3622"
       id="text8762"><tspan
         sodipodi:role="line"
         id="tspan8764"
         x="370.95996"
         y="1042.3622"
         style="font-style:normal;font-variant:normal;font-weight:300;font-stretch:condensed;font-size:11px;line-height:10;font-family:'Open Sans Condensed';-inkscape-font-specification:'Open Sans Condensed, Light Condensed';text-align:center;text-anchor:middle;fill:#808080">Artwork adapted from the Pioneer 11 plaque. https://commons.wikimedia.org/wiki/File:Pioneer_plaque_humans.svg</tspan></text>
    <text
       id="text8770"
       y="1027.3622"
       x="370.95996"
       style="color:#000000;font-style:normal;font-variant:normal;font-weight:normal;font-stretch:normal;line-height:0%;font-family:sans-serif;-inkscape-font-specification:sans-serif;text-indent:0;text-align:center;text-decoration:none;text-decoration-line:none;text-decoration-style:solid;text-decoration-color:#000000;letter-spacing:0px;word-spacing:0px;text-transform:none;writing-mode:lr-tb;direction:ltr;baseline-shift:baseline;text-anchor:middle;white-space:normal;clip-rule:nonzero;display:inline;overflow:visible;visibility:visible;opacity:1;isolation:auto;mix-blend-mode:normal;color-interpolation:sRGB;color-interpolation-filters:linearRGB;solid-color:#000000;solid-opacity:1;fill:#808080;fill-opacity:1;fill-rule:nonzero;stroke:none;stroke-width:1px;stroke-linecap:butt;stroke-linejoin:miter;stroke-miterlimit:4;stroke-dasharray:none;stroke-dashoffset:0;stroke-opacity:1;marker:none;color-rendering:auto;image-rendering:auto;shape-rendering:auto;text-rendering:auto;enable-background:accumulate"
       xml:space="preserve"><tspan
         style="font-style:normal;font-variant:normal;font-weight:300;font-stretch:condensed;font-size:11px;line-height:10;font-family:'Open Sans Condensed';-inkscape-font-specification:'Open Sans Condensed, Light Condensed';text-align:center;text-anchor:middle;fill:#808080"
         y="1027.3622"
         x="370.95996"
         id="tspan8772"
         sodipodi:role="line">PPAU_PRINT_TAG</tspan></text>
    <text
       xml:space="preserve"
       style="color:#000000;font-style:normal;font-variant:normal;font-weight:normal;font-stretch:normal;line-height:0%;font-family:sans-serif;-inkscape-font-specification:sans-serif;text-indent:0;text-align:center;text-decoration:none;text-decoration-line:none;text-decoration-style:solid;text-decoration-color:#000000;letter-spacing:0px;word-spacing:0px;text-transform:none;writing-mode:lr-tb;direction:ltr;baseline-shift:baseline;text-anchor:middle;white-space:normal;clip-rule:nonzero;display:inline;overflow:visible;visibility:visible;opacity:1;isolation:auto;mix-blend-mode:normal;color-interpolation:sRGB;color-interpolation-filters:linearRGB;solid-color:#000000;solid-opacity:1;fill:#808080;fill-opacity:1;fill-rule:nonzero;stroke:none;stroke-width:1px;stroke-linecap:butt;stroke-linejoin:miter;stroke-miterlimit:4;stroke-dasharray:none;stroke-dashoffset:0;stroke-opacity:1;marker:none;color-rendering:auto;image-rendering:auto;shape-rendering:auto;text-rendering:auto;enable-background:accumulate"
       x="370.95996"
       y="1012.3622"
       id="text8774"><tspan
         sodipodi:role="line"
         id="tspan8776"
         x="370.95996"
         y="1012.3622"
         style="font-style:normal;font-variant:normal;font-weight:300;font-stretch:condensed;font-size:11px;line-height:10;font-family:'Open Sans Condensed';-inkscape-font-specification:'Open Sans Condensed, Light Condensed';text-align:center;text-anchor:middle;fill:#808080">PPAU_AUTH_TAG</tspan></text>
  </g>
</svg>
