<?xml version="1.0" encoding="UTF-8" standalone="no"?>
<!-- Created with Inkscape (http://www.inkscape.org/) -->

<svg
   width="210mm"
   height="297mm"
   viewBox="0 0 744.09448819 1052.3622047"
   id="svg2"
   version="1.1"
   inkscape:version="1.2.2 (1:1.2.2+202305151915+b0a8486541)"
   sodipodi:docname="nothing-to-hide-woman-only.svg"
   inkscape:export-filename="/Users/alexjago/Dropbox/_PPAU/Artwork/__Unauthorised/nothing-to-hide/nothing-to-hide.png"
   inkscape:export-xdpi="90"
   inkscape:export-ydpi="90"
   xmlns:inkscape="http://www.inkscape.org/namespaces/inkscape"
   xmlns:sodipodi="http://sodipodi.sourceforge.net/DTD/sodipodi-0.dtd"
   xmlns="http://www.w3.org/2000/svg"
   xmlns:svg="http://www.w3.org/2000/svg"
   xmlns:rdf="http://www.w3.org/1999/02/22-rdf-syntax-ns#"
   xmlns:cc="http://creativecommons.org/ns#"
   xmlns:dc="http://purl.org/dc/elements/1.1/">
  <defs
     id="defs4">
    <clipPath
       clipPathUnits="userSpaceOnUse"
       id="clipPath8758">
      <rect
         style="opacity:1;fill:#ffffff;fill-opacity:1;fill-rule:evenodd;stroke:none;stroke-width:0.37795275;stroke-linecap:round;stroke-linejoin:round;stroke-miterlimit:4;stroke-dasharray:0.37795275, 1.13385826;stroke-dashoffset:0;stroke-opacity:1"
         id="rect8760"
         width="732.11151"
         height="766.16107"
         x="-199.81206"
         y="8.5267887" />
    </clipPath>
    <clipPath
       clipPathUnits="userSpaceOnUse"
       id="clipPath9161">
      <rect
         style="opacity:1;fill:#ffffff;fill-opacity:1;fill-rule:evenodd;stroke:none;stroke-width:0.37795275;stroke-linecap:round;stroke-linejoin:round;stroke-miterlimit:4;stroke-dasharray:0.37795275, 1.13385826;stroke-dashoffset:0;stroke-opacity:1"
         id="rect9163"
         width="440"
         height="620"
         x="140"
         y="12.362205" />
    </clipPath>
    <clipPath
       clipPathUnits="userSpaceOnUse"
       id="clipPath9197">
      <rect
         style="opacity:1;fill:#ffffff;fill-opacity:1;fill-rule:evenodd;stroke:none;stroke-width:0.37795275;stroke-linecap:round;stroke-linejoin:round;stroke-miterlimit:4;stroke-dasharray:0.37795275, 1.13385826;stroke-dashoffset:0;stroke-opacity:1"
         id="rect9199"
         width="400"
         height="620"
         x="160"
         y="12.362205" />
    </clipPath>
  </defs>
  <sodipodi:namedview
     id="base"
     pagecolor="#ffffff"
     bordercolor="#666666"
     borderopacity="1.0"
     inkscape:pageopacity="1"
     inkscape:pageshadow="2"
     inkscape:zoom="1.4002884"
     inkscape:cx="96.051645"
     inkscape:cy="950.51851"
     inkscape:document-units="px"
     inkscape:current-layer="Signet-8"
     showgrid="true"
     inkscape:snap-bbox="true"
     inkscape:snap-bbox-edge-midpoints="true"
     inkscape:window-width="1920"
     inkscape:window-height="1032"
     inkscape:window-x="0"
     inkscape:window-y="0"
     inkscape:window-maximized="1"
     inkscape:snap-text-baseline="true"
     inkscape:showpageshadow="2"
     inkscape:pagecheckerboard="0"
     inkscape:deskcolor="#d1d1d1">
    <inkscape:grid
       type="xygrid"
       id="grid8133" />
  </sodipodi:namedview>
  <metadata
     id="metadata7">
    <rdf:RDF>
      <cc:Work
         rdf:about="">
        <dc:format>image/svg+xml</dc:format>
        <dc:type
           rdf:resource="http://purl.org/dc/dcmitype/StillImage" />
        <dc:title />
      </cc:Work>
    </rdf:RDF>
  </metadata>
  <g
     inkscape:label="Woman"
     inkscape:groupmode="layer"
     id="layer1"
     style="display:inline">
    <text
       xml:space="preserve"
       style="color:#000000;font-style:normal;font-variant:normal;font-weight:normal;font-stretch:normal;line-height:0%;font-family:sans-serif;-inkscape-font-specification:sans-serif;text-indent:0;text-align:start;text-decoration:none;text-decoration-line:none;text-decoration-style:solid;text-decoration-color:#000000;letter-spacing:0px;word-spacing:0px;text-transform:none;writing-mode:lr-tb;direction:ltr;baseline-shift:baseline;text-anchor:start;white-space:normal;clip-rule:nonzero;display:inline;overflow:visible;visibility:visible;opacity:1;isolation:auto;mix-blend-mode:normal;color-interpolation:sRGB;color-interpolation-filters:linearRGB;solid-color:#000000;solid-opacity:1;fill:#000000;fill-opacity:1;fill-rule:nonzero;stroke:none;stroke-width:1px;stroke-linecap:butt;stroke-linejoin:miter;stroke-miterlimit:4;stroke-dasharray:none;stroke-dashoffset:0;stroke-opacity:1;marker:none;color-rendering:auto;image-rendering:auto;shape-rendering:auto;text-rendering:auto;enable-background:accumulate"
       x="160"
       y="832.36218"
       id="text8176"><tspan
         sodipodi:role="line"
         id="tspan8178"
         x="160"
         y="832.36218"
         style="font-size:24px;line-height:10"> </tspan></text>
    <text
       xml:space="preserve"
       style="color:#000000;font-style:normal;font-variant:normal;font-weight:normal;font-stretch:normal;line-height:0%;font-family:sans-serif;-inkscape-font-specification:sans-serif;text-indent:0;text-align:start;text-decoration:none;text-decoration-line:none;text-decoration-style:solid;text-decoration-color:#000000;letter-spacing:0px;word-spacing:0px;text-transform:none;writing-mode:lr-tb;direction:ltr;baseline-shift:baseline;text-anchor:start;white-space:normal;clip-rule:nonzero;display:inline;overflow:visible;visibility:visible;opacity:1;isolation:auto;mix-blend-mode:normal;color-interpolation:sRGB;color-interpolation-filters:linearRGB;solid-color:#000000;solid-opacity:1;fill:#000000;fill-opacity:1;fill-rule:nonzero;stroke:none;stroke-width:1px;stroke-linecap:butt;stroke-linejoin:miter;stroke-miterlimit:4;stroke-dasharray:none;stroke-dashoffset:0;stroke-opacity:1;marker:none;color-rendering:auto;image-rendering:auto;shape-rendering:auto;text-rendering:auto;enable-background:accumulate"
       x="40"
       y="852.36218"
       id="text8180"><tspan
         sodipodi:role="line"
         id="tspan8182"
         x="40"
         y="852.36218"
         style="font-size:24px;line-height:10"> </tspan></text>
    <g
       id="g9182"
       clip-path="url(#clipPath9197)">
      <path
         style="color:#000000;display:inline;overflow:visible;visibility:visible;fill:none;stroke:#000000;stroke-width:5.5;stroke-linecap:round;stroke-linejoin:round;stroke-miterlimit:4;stroke-dasharray:none;stroke-opacity:1;marker:none;enable-background:accumulate"
         id="path5"
         d="m 324.46257,111.25002 a 1.9422273,1.9457147 0 1 1 -3.88441,-0.0132 1.9422273,1.9457147 0 1 1 3.88441,0.0132 z"
         inkscape:connector-curvature="0" />
      <path
         style="color:#000000;display:inline;overflow:visible;visibility:visible;fill:none;stroke:#000000;stroke-width:5.5;stroke-linecap:round;stroke-linejoin:round;stroke-miterlimit:4;stroke-dasharray:none;stroke-opacity:1;marker:none;enable-background:accumulate"
         id="path7"
         d="m 356.07249,109.94057 a 1.9422273,1.9457147 0 1 1 -3.88441,-0.0132 1.9422273,1.9457147 0 1 1 3.88441,0.0132 z"
         inkscape:connector-curvature="0" />
      <path
         clip-path="none"
         style="display:inline;fill:none;stroke:#000000;stroke-width:5.19999981;stroke-linecap:round;stroke-linejoin:round;stroke-miterlimit:4;stroke-dasharray:none"
         id="path9"
         d="m 335.17971,148.96082 c 3.41535,1.40223 5.88069,1.31133 9.17021,-0.21799 m -14.62365,40.81162 c 1.68015,-9.06638 0.82873,-20.10444 2.19375,-29.28123 m 52.58099,-53.49001 c 2.51642,4.75125 -0.44055,9.99851 -7.05811,18.5088 8.27688,-4.39495 11.83467,-3.67566 15.79799,-11.90918 m 3.49545,8.61331 c 0.2056,7.64108 -8.10176,12.98431 -13.22466,11.47245 m -45.45446,39.36923 c 3.28263,4.95948 1.86329,10.72781 5.96792,16.51481 m -1.92491,22.18696 c -8.17569,-0.0276 -25.83113,0.85723 -34.33615,0.73217 -2.38402,-0.035 -4.20832,-1.11861 -3.08108,-6.59423 m 45.98135,8.68963 c 8.06106,2.7008 10.74205,-5.81111 15.6857,-4.19573 m 14.89224,-1.10421 c 28.03802,1.74422 46.37529,-5.55797 51.99006,-10.07612 m -80.05029,2.51329 c 6.56794,9.09425 13.2712,-21.97277 18.24225,-28.55382 m 95.44794,326.95479 c 6.69547,-14.17365 4.68332,-26.90737 8.85451,-40.91362 13.54222,-39.36682 13.16702,-81.96045 5.20998,-112.73657 -10.16376,-43.09935 0.90153,-93.73959 -16.15682,-118.51842 -1.93026,-2.80394 -6.82899,-11.55969 -9.82787,-14.4239 -6.20141,-5.92273 -12.19001,-8.58775 -21.7197,-14.32175 -11.2036,-6.74135 -21.45427,-14.03205 -34.48946,-18.98506 -9.00702,-3.42241 -14.41513,-14.32376 -12.92218,-36.11078 0.21947,-3.20238 0.3684,-6.00873 0.4746,-10.37459 m 57.33672,290.07298 c -4.8505,-32.26794 -19.66572,-38.8372 -21.34993,-53.58603 -2.34332,-20.52093 16.99065,-35.82018 10.50897,-63.79164 m 9.94219,44.3172 c 5.90655,24.75736 2.00274,70.46977 -1.06076,94.44548 -0.22887,1.79038 0.0928,5.97076 0.008,7.49864 -1.01706,17.50863 0.26413,5.53551 -1.16056,32.75703 -0.60812,11.62031 -9.38562,15.24613 -11.66279,27.94794 -0.54505,3.04041 -1.04754,9.28512 -0.74084,14.72016 0.16474,2.91777 -3.3543,11.87046 -3.71548,19.89247 -0.32689,7.26099 -0.94653,14.80406 2.14599,15.70103 5.13863,1.49052 6.51849,-3.64995 12.22698,-23.8045 1.36591,-4.82266 0.0697,-9.53235 2.26104,-14.43371 m -2.26104,14.43371 c 3.34765,5.03586 5.20779,12.2759 5.69365,18.08755 0.46885,5.60723 -1.06213,10.81373 -2.97082,16.00203 -1.27268,3.45941 -2.80625,6.27135 -3.3372,9.00264 -0.98325,5.05852 4.38595,5.392 6.22703,2.74453 6.30997,-9.07379 10.06793,-20.79562 10.27945,-28.81665 0.13653,-5.17702 0.61445,-10.45352 3.04469,-15.08621 m -11.48614,41.07037 c -3.87333,7.23167 2.3987,15.07257 6.52871,7.19115 1.76154,-3.36163 -0.20439,-3.51294 1.37564,-7.25109 2.48009,-5.86769 8.09356,-15.43358 6.89774,-20.63277 -1.75384,-7.62575 -2.23144,-12.62936 2.97764,-16.10713 m -10.50743,40.35298 c -0.61355,3.84544 4.27691,0.45376 5.53849,-1.20902 1.22427,-1.61364 1.84934,-3.50189 2.75793,-4.88162 1.26246,-1.91708 2.70255,-3.67554 3.76217,-9.68845 0.52933,-3.00353 1.13397,-14.20174 2.51172,-20.98794 m -2.75542,22.3135 c 5.24475,-0.008 8.34708,-5.46891 8.70332,-10.26452 0.39223,-5.28098 -1.95734,-10.63399 -3.06325,-11.23078 4.71462,-15.1075 2.41272,-36.35363 -6.24001,-55.58814 M 434.36234,323.78208 c 4.96627,5.90327 0.35194,17.42505 12.16139,32.30164 1.92718,2.42762 1.81562,7.15622 5.47654,13.55046 m -79.31082,-58.64816 c 36.9955,41.28458 81.28097,-5.01235 51.4527,-39.71175 m -8.76168,27.18947 c -1.91356,-0.38525 -7.13821,9.96993 -5.35388,10.27823 3.58714,0.61978 8.33208,-6.79128 5.26559,-8.24407 m -124.87109,9.59359 c 7.48082,3.40089 10.1983,-4.72669 5.10977,-6.76687 -0.12453,-0.0499 -0.47443,-0.0962 -0.69666,0.12673 m 39.45322,9.91124 c -16.8705,18.77912 -39.88922,17.45445 -47.15115,9.02543 -0.96363,-1.11853 -3.41851,-6.06412 -4.24594,-7.3349 -6.40069,-9.82958 -6.80483,-23.64727 2.56911,-41.29893 1.97169,-3.71287 0.75803,-10.00512 0.0855,-13.95187 m 5.92171,65.89326 c 0.42976,23.39768 -8.36492,39.43919 -11.30551,65.89514 m 4.85212,44.04581 c 2.45229,6.60613 5.37723,12.92045 9.48462,17.88272 m 107.14729,-76.25738 c -0.47209,-8.12377 2.27482,-14.83752 7.23468,-18.11971 m -10.21353,100.88478 c 2.4912,-4.94018 4.15465,-9.05811 4.99618,-14.00357 m -24.02986,53.83748 2.32208,-2.39772 m -8.41121,8.11565 c -12.58743,9.57498 -17.79716,21.90107 -18.00106,32.71309 -15.50937,-11.56166 -26.17253,-27.6964 -35.12669,-41.58716 -6.7793,-10.51679 -14.05006,-16.04646 -23.17674,-26.29896 m -59.17147,67.02919 c 3.40984,2.42185 2.90054,15.98855 7.56043,24.79651 1.92897,3.64613 5.81786,4.14335 9.10585,7.4534 2.60997,9.03683 6.95076,14.43525 4.80615,20.67208 -4.11298,-3.31265 -10.76962,-10.16455 -14.61109,-13.78989 -9.33073,-8.80569 -11.40927,-19.8296 -17.97438,-29.74847 -3.28539,-4.1349 -2.3854,-9.26968 1.09327,-13.56954 18.77522,-23.20788 6.51135,-74.91557 9.17742,-118.65705 1.2589,-20.65689 0.7676,-39.23078 9.90725,-58.99346 10.79605,-20.39943 9.83104,-58.24009 9.5759,-95.06292 1.12756,-30.31193 14.87522,-44.75889 41.5183,-52.39241 12.71455,-5.56231 24.7566,-13.41947 32.32766,-25.22251 m -33.54748,144.69823 c 7.4535,43.02432 -8.65945,52.39439 -24.08305,72.83419 -10.22699,13.55305 -13.03989,31.98985 -13.01492,53.13137 0.0438,35.36901 -13.5222,60.37474 -11.21803,81.09538 6.38642,57.43066 32.82123,130.34964 46.33718,151.68154 m 11.9172,33.57596 c -14.18083,-8.35972 -18.75584,-22.63472 -19.2893,-47.53429 m 3.90373,35.99285 c 3.62516,8.81486 6.04899,13.59204 9.66638,17.98196 m 42.67261,-0.32446 c -1.3317,-12.37555 0.80148,-19.17515 5.74797,-25.95501 m -38.54812,28.31846 c 8.24542,0.85239 10.85207,-4.93523 9.11744,-13.16499 -0.70144,-3.32744 -0.80262,-6.60069 0.0332,-9.89669 m -26.95838,-0.79131 c -16.43327,30.23528 9.84061,103.7476 19.91811,157.46553 3.12129,16.63821 6.31694,24.48625 3.76728,42.42526 M 347.485,871.06981 c 16.40174,28.0964 21.32747,43.12779 12.23776,48.04556 -7.43712,4.09852 -18.90899,9.85283 -27.12741,14.56584 m -14.69718,-40.51662 c -7.98315,6.28223 -11.65866,20.69393 -17.86266,26.13035 -7.89438,6.91769 -17.68901,9.75708 -21.05564,16.81844 -1.28849,2.70253 -1.39607,4.90542 0.51741,6.47935 m 0.51822,11.82952 c -4.98176,2.00845 -2.59579,-10.29027 -0.51822,-11.82952 l 6.96147,-5.15769 m 0,0 2.76514,4.60841 c -3.19539,5.95914 -6.26529,8.08325 -9.20839,12.3788 -2.54196,3.71021 -2.22723,6.1669 -0.32048,8.40682 M 551.296,933.91878 c 9.05914,4.36621 16.42711,11.92779 21.4567,19.29575 0.41193,1.64841 2.06922,5.46339 0.83286,9.0664 m -75.91777,-49.53827 c -8.75731,27.93462 -5.68206,28.63553 19.48193,37.35853 M 460.74721,736.78876 c -7.40081,-6.62287 -10.67793,-13.58563 -10.6502,-21.83269 m -15.2021,25.98034 c -16.0755,40.22908 24.61359,81.13287 41.49357,118.8802 9.82552,21.47622 16.75059,45.46501 29.1432,69.84414 M 440.51292,752.8221 c -2.60584,-6.28747 -3.09763,-7.61344 -5.61801,-11.88569 -5.97474,-10.12694 -13.91848,-22.11451 -18.79468,-32.00032 -9.68462,-19.63371 -15.07798,-41.97588 -25.65521,-81.16207 -2.24393,-8.31318 -32.72337,-73.36657 -34.90261,-89.48215 2.31049,48.66697 -5.62077,73.20179 -4.51972,91.29186 0.70136,11.52487 7.69996,41.39484 1.40612,55.08499 -3.20845,6.979 -4.03052,14.38465 -2.45163,15.89823 2.72801,2.61523 1.4079,10.61149 2.71909,12.84768 4.208,7.17652 7.43218,27.53177 6.08808,43.74363 -1.05419,12.71529 -2.9894,13.78006 -3.4987,24.34095 -0.78445,29.30461 -1.07599,60.77393 -6.73924,121.50765 -0.10856,1.16475 -1.98296,4.16593 -1.13251,8.01909 M 487.55495,744.68293 c 0.84648,-10.82022 -0.5042,-23.00386 -1.89151,-30.3546 -0.71174,-3.77096 -0.28473,-8.87114 -0.8991,-12.15561 -3.08854,-16.51176 -8.80992,-27.51496 -9.27034,-55.53746 -0.35639,-21.69316 1.79114,-71.05202 -3.86011,-78.36255 m 16.97605,162.71576 c 28.89058,27.97787 27.87928,131.80885 36.83522,156.99382 11.04113,31.04853 22.27943,33.92098 31.19078,58.50818 M 477.67948,738.05162 c 1.83159,-0.75939 3.24396,-4.67444 3.14773,-7.23452 M 435.53514,200.37407 c -2.42456,-14.85337 -8.48345,-30.99375 -7.62692,-50.42546 0.79979,-18.1439 2.20915,-36.47628 -1.22938,-52.632746 -3.36533,-15.812556 -12.36562,-26.406155 -20.67654,-38.935332 -9.635,-14.525327 -17.10561,-29.412206 -39.3929,-28.625184 -11.73227,0.414294 -27.64838,9.127309 -30.33683,26.988571 -1.55595,10.337104 9.14986,21.453773 21.22548,21.517692 13.85394,0.07334 13.84454,12.464333 17.55524,19.350497 5.38638,10.442072 18.52397,10.611682 21.01606,21.359232 4.59529,19.81812 -6.04632,42.3508 5.06737,61.98242 m -99.27951,770.50719 c -4.24327,9.04081 -17.9786,11.56158 -17.55832,15.11805 1.5219,12.87813 15.50734,4.99931 24.60232,-1.56784 9.74064,1.73312 15.71878,-8.1963 20.71067,-22.51484 3.35811,-9.63192 5.75081,-19.6869 12.18068,-22.63805 m -46.18792,26.9825 c -3.55463,4.96414 -9.92314,11.59488 -15.91384,15.9883 -1.66013,1.21754 -1.34313,5.36918 4.60809,3.74993 m 282.30988,-11.92398 -0.27459,2.91769 7.24733,4.70822 c 0.12331,3.00597 -0.89342,8.14562 -1.08176,9.61689 m -8.5573,-11.94526 -1.86702,3.88516 c 3.37911,2.64252 6.66474,5.87224 10.42416,8.0601 2.37267,3.69722 -4.08671,3.8495 -5.01507,6.62189 m -7.88668,-13.00995 -1.42493,3.70973 c 4.31242,4.00584 8.23739,6.69823 12.55451,9.30022 -0.35112,1.04861 -0.70387,3.43196 0.17715,5.12203 4.71316,9.04114 -9.46354,14.00154 -17.1729,9.77657 -6.46993,-3.54567 -8.51482,-9.55509 -17.42982,-11.72353 -10.00364,-2.43322 -20.23388,-38.40341 -25.44864,-44.59371 m 42.36454,35.46242 c 1.16509,5.01214 3.08814,5.72808 9.70051,8.67492 1.79908,0.80162 6.00659,0.13036 7.9859,2.40333 m -140.74771,-716.13733 -4.11728,-7.6261 m 4.522,21.20947 c 0.14787,-7.14152 -0.90421,-13.61989 -0.1632,-22.26772 M 332.53771,120.5143 c 0.63691,-5.65377 0.41185,-9.80384 -0.48611,-13.50859 m 14.46677,15.84696 c 2.47734,3.57259 -2.4522,7.99404 -7.074,5.0391 -3.93462,4.43536 -11.88063,3.70025 -12.81256,-0.91868 m -1.47139,-24.09792 c -0.40642,-2.948618 -7.88408,-3.767785 -11.18609,-2.954189 m 28.23649,1.643869 c 2.86803,-2.287646 17.06726,-4.744799 18.88856,-1.791289 m -33.91774,41.628209 3.63214,-2.62566 c 2.64565,0.84867 6.1004,2.41118 8.75885,-0.56359 1.8457,2.13416 5.8785,2.78869 10.06193,2.19189 0.56759,-0.081 1.03676,0.37483 1.73869,0.65116 m -23.17917,-0.38572 c 4.50286,1.01154 9.01366,1.85601 13.70242,-0.87699 m -26.59566,-31.56042 c 10.51651,-0.30608 12.28527,0.66149 14.71275,4.79041 m 16.88153,-0.70811 c 0.84429,-5.77026 7.77106,-6.38229 16.01072,-3.88024 m 21.65857,13.54389 c -1.14791,18.92948 -2.15889,19.9361 -14.54031,29.52398 -8.71045,6.74515 -19.53844,13.25869 -35.33967,11.6774 -4.32863,-4.38835 -11.45443,-12.38703 -15.55079,-20.64818 -4.9156,-9.9134 -10.06623,-19.88847 -6.13567,-32.80558 -0.62442,-3.39567 -1.93779,-6.80204 -0.14366,-9.749143 -0.80253,-6.60056 1.41675,-18.688356 3.66498,-20.913339 13.61543,-13.475069 16.20497,-12.367057 18.33013,-21.461384 0.65442,-2.800706 2.41102,-10.527146 5.27029,-15.370135 -2.35832,-3.649908 -25.74066,9.218412 -36.21923,31.35052 -4.75142,10.035557 -1.97314,22.07407 -6.04697,37.042521 -5.06039,18.59332 21.47486,44.63652 6.04511,83.80709 -1.50812,3.82864 -1.70172,9.92839 -2.03225,12.04425"
         inkscape:connector-curvature="0"
         sodipodi:nodetypes="cccccccccccccccccccccccscsssccsccccsccscscccscssccsscccssccccccccccccscccccccscccccccccccccsccsccscsscccccscscccccccccccscccccssccscccccccccccccccccsscssssscccccssccsccccsssssscsccscccccccccccccccccssscccccccccccccccccccccccccccccscscccccsssc" />
    </g>
  </g>
  <g
     inkscape:groupmode="layer"
     id="layer2"
     inkscape:label="Text"
     style="display:inline"
     sodipodi:insensitive="true">
    <text
       xml:space="preserve"
       style="color:#000000;font-style:normal;font-variant:normal;font-weight:normal;font-stretch:normal;line-height:0%;font-family:sans-serif;-inkscape-font-specification:sans-serif;text-indent:0;text-align:start;text-decoration:none;text-decoration-line:none;text-decoration-style:solid;text-decoration-color:#000000;letter-spacing:0px;word-spacing:0px;text-transform:none;writing-mode:lr-tb;direction:ltr;baseline-shift:baseline;text-anchor:start;white-space:normal;clip-rule:nonzero;display:inline;overflow:visible;visibility:visible;opacity:1;isolation:auto;mix-blend-mode:normal;color-interpolation:sRGB;color-interpolation-filters:linearRGB;solid-color:#000000;solid-opacity:1;fill:#000000;fill-opacity:1;fill-rule:nonzero;stroke:none;stroke-width:1px;stroke-linecap:butt;stroke-linejoin:miter;stroke-miterlimit:4;stroke-dasharray:none;stroke-dashoffset:0;stroke-opacity:1;marker:none;color-rendering:auto;image-rendering:auto;shape-rendering:auto;text-rendering:auto;enable-background:accumulate"
       x="376.63672"
       y="683.15118"
       id="text8166"><tspan
         sodipodi:role="line"
         x="376.63672"
         y="683.15118"
         style="font-style:italic;font-variant:normal;font-weight:600;font-stretch:normal;font-size:56px;line-height:110%;font-family:'Open Sans';-inkscape-font-specification:'Open Sans Semi-Bold Italic';text-align:center;text-anchor:middle"
         id="tspan8231">never means </tspan><tspan
         sodipodi:role="line"
         x="376.63672"
         y="752.45117"
         style="font-style:italic;font-variant:normal;font-weight:600;font-stretch:normal;font-size:56px;line-height:110%;font-family:'Open Sans';-inkscape-font-specification:'Open Sans Semi-Bold Italic';text-align:center;text-anchor:middle"
         id="tspan8235">&quot;Nothing to fear.&quot;</tspan></text>
    <text
       xml:space="preserve"
       style="color:#000000;font-style:normal;font-variant:normal;font-weight:normal;font-stretch:normal;line-height:0%;font-family:sans-serif;-inkscape-font-specification:sans-serif;text-indent:0;text-align:start;text-decoration:none;text-decoration-line:none;text-decoration-style:solid;text-decoration-color:#000000;letter-spacing:0px;word-spacing:0px;text-transform:none;writing-mode:lr-tb;direction:ltr;baseline-shift:baseline;text-anchor:start;white-space:normal;clip-rule:nonzero;display:inline;overflow:visible;visibility:visible;opacity:1;isolation:auto;mix-blend-mode:normal;color-interpolation:sRGB;color-interpolation-filters:linearRGB;solid-color:#000000;solid-opacity:1;fill:#000000;fill-opacity:1;fill-rule:nonzero;stroke:none;stroke-width:1px;stroke-linecap:butt;stroke-linejoin:miter;stroke-miterlimit:4;stroke-dasharray:none;stroke-dashoffset:0;stroke-opacity:1;marker:none;color-rendering:auto;image-rendering:auto;shape-rendering:auto;text-rendering:auto;enable-background:accumulate"
       x="380"
       y="822.36218"
       id="text8650"><tspan
         sodipodi:role="line"
         id="tspan8652"
         x="380"
         y="822.36218"
         style="font-style:normal;font-variant:normal;font-weight:bold;font-stretch:normal;font-size:40px;line-height:10;font-family:'Open Sans';-inkscape-font-specification:'Open Sans';text-align:center;text-anchor:middle">Stand against mass surveillance.</tspan></text>
    <rect
       style="opacity:1;fill:#000000;fill-opacity:1;fill-rule:evenodd;stroke:none;stroke-width:0.37795275;stroke-linecap:round;stroke-linejoin:round;stroke-miterlimit:4;stroke-dasharray:0.37795275, 1.13385826;stroke-dashoffset:0;stroke-opacity:1"
       id="rect8135"
       width="380"
       height="100.00001"
       x="167.43871"
       y="252.3622" />
    <text
       xml:space="preserve"
       style="color:#000000;font-style:normal;font-variant:normal;font-weight:normal;font-stretch:normal;line-height:0%;font-family:sans-serif;-inkscape-font-specification:sans-serif;text-indent:0;text-align:start;text-decoration:none;text-decoration-line:none;text-decoration-style:solid;text-decoration-color:#000000;letter-spacing:0px;word-spacing:0px;text-transform:none;writing-mode:lr-tb;direction:ltr;baseline-shift:baseline;text-anchor:start;white-space:normal;clip-rule:nonzero;display:inline;overflow:visible;visibility:visible;opacity:1;isolation:auto;mix-blend-mode:normal;color-interpolation:sRGB;color-interpolation-filters:linearRGB;solid-color:#000000;solid-opacity:1;fill:#ffffff;fill-opacity:1;fill-rule:nonzero;stroke:none;stroke-width:1px;stroke-linecap:butt;stroke-linejoin:miter;stroke-miterlimit:4;stroke-dasharray:none;stroke-dashoffset:0;stroke-opacity:1;marker:none;color-rendering:auto;image-rendering:auto;shape-rendering:auto;text-rendering:auto;enable-background:accumulate"
       x="357.28244"
       y="325.25284"
       id="text8139"><tspan
         sodipodi:role="line"
         id="tspan8141"
         x="357.28244"
         y="325.25284"
         style="font-style:italic;font-variant:normal;font-weight:800;font-stretch:normal;font-size:64px;line-height:10;font-family:'Open Sans';-inkscape-font-specification:'Open Sans Ultra-Bold Italic';text-align:center;text-anchor:middle;fill:#ffffff">&quot;NOTHING</tspan></text>
    <text
       xml:space="preserve"
       style="color:#000000;font-style:normal;font-variant:normal;font-weight:normal;font-stretch:normal;line-height:0%;font-family:sans-serif;-inkscape-font-specification:sans-serif;text-indent:0;text-align:start;text-decoration:none;text-decoration-line:none;text-decoration-style:solid;text-decoration-color:#000000;letter-spacing:0px;word-spacing:0px;text-transform:none;writing-mode:lr-tb;direction:ltr;baseline-shift:baseline;text-anchor:start;white-space:normal;clip-rule:nonzero;display:inline;overflow:visible;visibility:visible;opacity:1;isolation:auto;mix-blend-mode:normal;color-interpolation:sRGB;color-interpolation-filters:linearRGB;solid-color:#000000;solid-opacity:1;fill:#000000;fill-opacity:1;fill-rule:nonzero;stroke:none;stroke-width:1px;stroke-linecap:butt;stroke-linejoin:miter;stroke-miterlimit:4;stroke-dasharray:none;stroke-dashoffset:0;stroke-opacity:1;marker:none;color-rendering:auto;image-rendering:auto;shape-rendering:auto;text-rendering:auto;enable-background:accumulate"
       x="316.84494"
       y="435.25284"
       id="text8143"><tspan
         sodipodi:role="line"
         id="tspan8145"
         x="316.84494"
         y="435.25284"
         style="font-style:italic;font-variant:normal;font-weight:800;font-stretch:normal;font-size:64px;line-height:10;font-family:'Open Sans';-inkscape-font-specification:'Open Sans Ultra-Bold Italic'">TO</tspan></text>
    <rect
       y="462.36221"
       x="190"
       height="99.999992"
       width="310"
       id="rect8154"
       style="opacity:1;fill:#000000;fill-opacity:1;fill-rule:evenodd;stroke:none;stroke-width:0.37795275;stroke-linecap:round;stroke-linejoin:round;stroke-miterlimit:4;stroke-dasharray:0.37795275, 1.13385826;stroke-dashoffset:0;stroke-opacity:1" />
    <text
       id="text8156"
       y="534.81531"
       x="346.40744"
       style="color:#000000;font-style:normal;font-variant:normal;font-weight:normal;font-stretch:normal;line-height:0%;font-family:sans-serif;-inkscape-font-specification:sans-serif;text-indent:0;text-align:center;text-decoration:none;text-decoration-line:none;text-decoration-style:solid;text-decoration-color:#000000;letter-spacing:0px;word-spacing:0px;text-transform:none;writing-mode:lr-tb;direction:ltr;baseline-shift:baseline;text-anchor:middle;white-space:normal;clip-rule:nonzero;display:inline;overflow:visible;visibility:visible;opacity:1;isolation:auto;mix-blend-mode:normal;color-interpolation:sRGB;color-interpolation-filters:linearRGB;solid-color:#000000;solid-opacity:1;fill:#ffffff;fill-opacity:1;fill-rule:nonzero;stroke:none;stroke-width:1px;stroke-linecap:butt;stroke-linejoin:miter;stroke-miterlimit:4;stroke-dasharray:none;stroke-dashoffset:0;stroke-opacity:1;marker:none;color-rendering:auto;image-rendering:auto;shape-rendering:auto;text-rendering:auto;enable-background:accumulate"
       xml:space="preserve"><tspan
         style="font-style:italic;font-variant:normal;font-weight:800;font-stretch:normal;font-size:64px;line-height:10;font-family:'Open Sans';-inkscape-font-specification:'Open Sans Ultra-Bold Italic';text-align:center;text-anchor:middle;fill:#ffffff"
         y="534.81531"
         x="346.40744"
         id="tspan8158"
         sodipodi:role="line">HIDE&quot;</tspan></text>
  </g>
  <g
     inkscape:groupmode="layer"
     id="layer3"
     inkscape:label="Logos"
     style="display:inline">
    <g
       inkscape:groupmode="layer"
       id="layer6"
       inkscape:label="website_bw">
      <g
         id="g9091"
         transform="translate(98.182048,849.08538)">
        <g
           id="Text-4">
          <g
             id="g8984">
            <path
               id="path8986"
               d="m 167.668,79.513 v 16.65 H 156.404 V 42.084 h 11.264 v 3.428 c 1.936,-1.936 3.754,-3.148 5.457,-3.638 1.702,-0.49 3.778,-0.735 6.226,-0.735 4.314,0 7.882,1.924 10.704,5.771 2.822,3.848 4.221,8.78 4.198,14.796 -0.023,6.04 -1.458,10.646 -4.302,13.817 -2.729,3.055 -6.25,5.025 -10.564,5.912 -0.7,0.14 -3.032,0.082 -6.996,-0.175 -1.633,-0.114 -3.207,-0.698 -4.723,-1.747 z m 7.486,-29.278 c -2.402,0 -4.256,0.991 -5.562,2.974 -1.282,1.958 -1.924,4.792 -1.924,8.5 v 9.725 c 0.443,1.166 2.938,1.749 7.486,1.749 2.425,0 4.272,-0.979 5.545,-2.938 1.269,-1.959 1.905,-4.804 1.905,-8.536 0,-3.731 -0.641,-6.576 -1.924,-8.535 -1.282,-1.96 -3.124,-2.939 -5.526,-2.939 z"
               inkscape:connector-curvature="0" />
            <path
               id="path8988"
               d="m 202.686,26.833 h 11.264 v 10.214 h -11.264 z m 0,15.251 h 11.264 v 39.178 h -11.264 z"
               inkscape:connector-curvature="0" />
            <path
               id="path8990"
               d="m 238.51,56.496 c -1.562,2.519 -2.344,4.757 -2.344,6.716 v 18.05 H 224.903 V 42.084 h 11.263 v 6.437 c 1.446,-2.565 3.113,-4.431 5.002,-5.597 1.866,-1.189 4.116,-1.784 6.751,-1.784 0.374,0 0.781,0.012 1.225,0.035 0.163,0 0.804,0.082 1.924,0.245 v 8.535 c -5.411,-0.42 -9.597,1.761 -12.558,6.541 z"
               inkscape:connector-curvature="0" />
            <path
               id="path8992"
               d="m 289.865,78.988 c -4.454,2.286 -9.958,3.428 -16.51,3.428 -8.045,0 -13.292,-1.224 -15.741,-3.672 -2.285,-2.286 -3.428,-5.364 -3.428,-9.235 0,-4.594 1.422,-7.964 4.267,-10.109 2.845,-2.146 7.309,-3.218 13.395,-3.218 h 6.646 v -0.979 c 0,-1.982 -0.704,-3.435 -2.115,-4.354 -1.411,-0.923 -3.598,-1.383 -6.56,-1.383 -2.425,0 -4.673,0.268 -6.749,0.805 -2.076,0.536 -4.011,1.341 -5.807,2.414 v -9.55 c 2.425,-0.653 4.851,-1.143 7.276,-1.469 2.588,-0.35 5.023,-0.524 7.308,-0.524 6.39,0 10.984,1.388 13.782,4.163 2.822,2.798 4.235,7.334 4.235,13.607 v 20.076 z m -17.21,-15.356 c -2.332,0 -4.104,0.443 -5.317,1.329 -1.236,0.909 -1.833,2.215 -1.786,3.918 0.047,1.539 0.527,2.775 1.437,3.708 0.723,0.746 2.052,1.201 3.988,1.364 3.545,0.303 6.026,0.082 7.448,-0.665 0.047,-0.023 0.07,-2.764 0.07,-8.22 v -1.434 z"
               inkscape:connector-curvature="0" />
            <path
               id="path8994"
               d="m 295.883,51.04 v -1.61 l 15.146,-18.469 h 1.749 v 11.124 h 11.613 v 8.955 h -11.613 v 16.615 c 0,1.819 0.315,3.043 0.945,3.673 0.652,0.653 1.947,0.979 3.882,0.979 h 5.807 v 8.955 h -9.654 c -4.454,0 -7.614,-1.026 -9.479,-3.079 -1.866,-2.052 -2.798,-5.562 -2.798,-10.529 V 51.04 Z"
               inkscape:connector-curvature="0" />
            <path
               id="path8996"
               d="m 366.615,61.568 v 3.568 h -26.34 c 0.256,2.938 1.208,5.142 2.85,6.611 1.646,1.469 3.937,2.204 6.875,2.204 2.378,0 4.808,-0.389 7.294,-1.173 2.481,-0.779 5.03,-1.964 7.642,-3.549 v 9.654 c -2.659,1.12 -5.324,1.966 -7.992,2.537 -2.672,0.569 -5.335,0.856 -7.994,0.856 -6.389,0 -11.352,-1.803 -14.882,-5.403 -3.536,-3.605 -5.301,-8.658 -5.301,-15.165 0,-6.39 1.737,-11.415 5.212,-15.076 3.475,-3.661 8.255,-5.492 14.342,-5.492 5.55,0 9.986,1.854 13.311,5.562 3.321,3.708 4.983,8.663 4.983,14.866 z m -11.578,-4.162 c 0,-2.379 -0.625,-4.295 -1.87,-5.755 -1.25,-1.455 -2.887,-2.185 -4.916,-2.185 -2.168,0 -3.936,0.683 -5.298,2.045 -1.367,1.366 -2.223,3.33 -2.572,5.895 z"
               inkscape:connector-curvature="0" />
          </g>
          <g
             id="g8998">
            <path
               id="path9000"
               d="m 382.347,79.233 v 16.93 h -6.471 V 42.084 h 6.471 v 5.492 c 1.749,-2.588 3.556,-4.309 5.422,-5.16 1.866,-0.851 4.232,-1.277 7.102,-1.277 4.757,0 8.621,1.889 11.597,5.667 2.971,3.778 4.459,8.745 4.459,14.901 0,6.157 -1.488,10.972 -4.459,14.447 -2.976,3.475 -6.84,5.212 -11.597,5.212 -2.869,0 -4.921,-0.1 -6.157,-0.296 -1.237,-0.197 -3.359,-0.811 -6.367,-1.837 z m 21.897,-17.525 c 0,-4.734 -0.975,-8.448 -2.922,-11.14 -1.947,-2.696 -4.622,-4.041 -8.026,-4.041 -2.915,0 -5.375,0.781 -7.381,2.343 -1.959,1.539 -3.148,4.291 -3.568,8.255 v 15.811 c 3.335,2.029 6.984,3.043 10.949,3.043 3.404,0 6.079,-1.206 8.026,-3.622 1.948,-2.41 2.922,-5.961 2.922,-10.649 z"
               style="fill:#231f20"
               inkscape:connector-curvature="0" />
            <path
               id="path9002"
               d="m 434.889,81.926 c -5.224,0.094 -9.293,-1.084 -12.208,-3.533 -2.262,-1.912 -3.393,-4.757 -3.393,-8.535 0,-4.408 1.474,-7.731 4.424,-9.97 2.95,-2.239 7.353,-3.358 13.206,-3.358 h 9.024 v -0.629 c 0,-2.962 -0.975,-5.254 -2.922,-6.873 -1.947,-1.623 -4.681,-2.432 -8.201,-2.432 -2.239,0 -4.42,0.268 -6.542,0.804 -2.122,0.536 -4.162,1.341 -6.121,2.414 v -5.946 c 2.355,-0.91 4.641,-1.592 6.856,-2.046 2.215,-0.455 4.372,-0.682 6.471,-0.682 5.667,0 9.899,1.469 12.698,4.408 2.798,2.938 4.197,7.345 4.197,13.222 v 0.14 l -0.035,19.659 c -4.477,2.145 -10.295,3.264 -17.454,3.357 z m 4.652,-20.358 c -5.2,0 -8.803,0.595 -10.809,1.784 -2.006,1.189 -3.009,3.218 -3.009,6.087 0,2.262 0.781,4.116 2.345,5.562 1.562,1.445 3.579,2.168 6.051,2.168 0.07,0 0.141,0 0.21,0 5.527,0 9.398,-0.618 11.613,-1.854 0,-6.623 0,-10.727 0,-12.313 v -1.434 z"
               style="fill:#231f20"
               inkscape:connector-curvature="0" />
            <path
               id="path9004"
               d="m 485.194,47.506 c -0.723,-0.419 -1.504,-0.66 -2.344,-0.716 -0.84,-0.061 -1.771,-0.03 -2.798,0.086 -3.521,0.443 -6.285,2.168 -8.29,5.177 -2.006,3.008 -3.009,6.728 -3.009,11.159 v 18.05 h -6.472 V 42.084 h 6.472 v 5.771 c 1.353,-2.378 3.113,-4.092 5.282,-5.142 2.169,-1.05 4.804,-1.574 7.905,-1.574 0.443,0 0.933,0.029 1.47,0.087 0.536,0.058 1.131,0.146 1.783,0.262 v 6.018 z"
               style="fill:#231f20"
               inkscape:connector-curvature="0" />
            <path
               id="path9006"
               d="m 490.549,47.087 v -5.072 h 4.723 v -4.932 l 6.471,-6.122 V 42.085 H 515 v 5.002 h -13.258 v 21.268 c 0,3.195 0.437,5.247 1.312,6.157 0.873,0.909 2.652,1.364 5.334,1.364 H 515 v 5.387 h -6.611 c -4.968,0 -8.396,-0.928 -10.284,-2.78 -1.889,-1.856 -2.833,-5.231 -2.833,-10.128 V 47.087 Z"
               style="fill:#231f20"
               inkscape:connector-curvature="0" />
            <path
               id="path9008"
               d="m 527.842,98.437 6.996,-17.805 -15.846,-38.548 h 6.821 l 12.243,30.643 12.242,-30.643 h 6.821 l -22.457,56.353 z"
               style="fill:#231f20"
               inkscape:connector-curvature="0" />
          </g>
        </g>
        <g
           id="Signet-8">
          <polygon
             id="polygon9075"
             points="77.016,65.269 75.431,67.153 75.301,64.695 72.836,64.629 74.682,62.996 73.194,61.03 75.622,61.449 76.23,59.064 77.416,61.223 79.662,60.211 78.711,62.486 80.903,63.611 78.534,64.283 79.021,66.699 "
             style="fill:#ffffff" />
          <polygon
             id="polygon9077"
             points="89.093,50.65 87.507,52.534 87.378,50.076 84.913,50.01 86.758,48.377 85.271,46.411 87.699,46.83 88.307,44.445 89.493,46.604 91.738,45.592 90.789,47.867 92.979,48.992 90.61,49.664 91.098,52.08 "
             style="fill:#ffffff" />
          <polygon
             id="polygon9079"
             points="102.441,61.455 100.855,63.34 100.726,60.881 98.261,60.815 100.106,59.183 98.619,57.217 101.047,57.635 101.655,55.25 102.841,57.409 105.086,56.397 104.136,58.672 106.328,59.798 103.958,60.47 104.446,62.885 "
             style="fill:#ffffff" />
          <polygon
             id="polygon9081"
             points="91,85.609 89.415,87.494 89.285,85.036 86.82,84.969 88.665,83.336 87.178,81.37 89.605,81.789 90.213,79.404 91.4,81.563 93.646,80.551 92.695,82.827 94.886,83.952 92.518,84.624 93.005,87.04 "
             style="fill:#ffffff" />
          <polygon
             id="polygon9083"
             points="96.059,67.312 97.73,67.266 96.75,68.619 97.313,70.197 95.718,69.683 94.393,70.705 94.39,69.033 93.012,68.088 94.599,67.566 95.071,65.961 "
             style="fill:#ffffff" />
          <polygon
             id="polygon9049"
             points="92.997,85.655 90.834,86.85 91.599,84.499 89.317,83.552 91.63,82.684 90.946,80.311 93.067,81.579 94.499,79.564 94.83,82.013 97.298,81.873 95.59,83.659 97.234,85.504 94.774,85.282 94.359,87.717 "
             style="fill:#ffffff" />
          <polygon
             id="polygon9051"
             points="104.224,60.838 102.062,62.033 102.825,59.684 100.542,58.737 102.855,57.87 102.173,55.494 104.294,56.762 105.725,54.748 106.056,57.196 108.524,57.061 106.815,58.845 108.46,60.689 106,60.465 105.585,62.9 "
             style="fill:#ffffff" />
          <polygon
             id="polygon9053"
             points="91.817,50.205 89.652,51.398 90.417,49.048 88.134,48.101 90.448,47.233 89.765,44.859 91.886,46.128 93.316,44.112 93.647,46.562 96.115,46.422 94.407,48.208 96.053,50.051 93.593,49.832 93.177,52.266 "
             style="fill:#ffffff" />
          <polygon
             id="polygon9055"
             points="78.818,64.976 76.654,66.169 77.418,63.819 75.135,62.874 77.45,62.004 76.766,59.63 78.887,60.899 80.318,58.884 80.649,61.333 83.118,61.193 81.408,62.979 83.055,64.826 80.594,64.603 80.178,67.037 "
             style="fill:#ffffff" />
          <polygon
             id="polygon9057"
             points="98.91,67.16 100.559,67.466 99.312,68.59 99.527,70.255 98.076,69.411 96.562,70.134 96.911,68.492 95.758,67.275 97.427,67.1 98.229,65.626 "
             style="fill:#ffffff" />
          <g
             id="g9059">
            <path
               id="path9061"
               d="M 135.039,89.912 C 128.733,125.113 95.081,148.545 59.874,142.237 24.667,135.931 1.237,102.28 7.544,67.079 13.848,31.873 47.5,8.449 82.709,14.756 c 35.206,6.305 58.634,39.954 52.33,75.156 z"
               style="fill:#ffffff"
               inkscape:connector-curvature="0" />
            <path
               id="path9063"
               d="m 81.105,23.712 c -30.26,-5.419 -59.186,14.72 -64.604,44.976 -5.42,30.26 14.716,59.188 44.976,64.61 30.259,5.415 59.183,-14.727 64.602,-44.984 5.42,-30.255 -14.715,-59.182 -44.974,-64.602 z m 53.932,66.206 C 128.731,125.124 95.08,148.556 59.872,142.252 24.664,135.944 1.235,102.291 7.543,67.083 13.847,31.877 47.501,8.448 82.709,14.755 c 35.206,6.306 58.634,39.959 52.328,75.163 z"
               inkscape:connector-curvature="0" />
            <g
               id="g9065">
              <polygon
                 id="polygon9067"
                 points="46.998,33.014 46.998,33.014 47.327,98.379 54.451,95.273 53.188,92.129 51.237,33.772 " />
              <path
                 id="path9069"
                 d="m 41.057,45.816 c 0,0 60.699,-23.026 69.619,18.67 0,0 5.716,19.558 -22.992,26.528 0,0 -19.617,4.877 -21.554,4.893 -1.947,0.02 -1.947,0.02 -1.947,0.02 0,0 -19.291,3.84 -14.798,27.627 0,0 -14.917,-21.275 12.979,-38.168 0,0 10.796,-9.016 7.42,-22.749 -0.001,0 -3.343,-16.313 -28.727,-16.821 z"
                 inkscape:connector-curvature="0" />
              <polygon
                 id="polygon9071"
                 points="47.251,104.929 54.873,96.991 47.304,93.659 " />
              <path
                 id="path9073"
                 d="m 81.912,92.428 c 0,0 -29.423,4.918 -32.373,17.679 -2.95,12.763 -3.591,-19.303 15.273,-20.748 18.864,-1.433 1.617,-0.877 1.617,-0.877 l 17.984,-1.609 -2.268,4.242"
                 inkscape:connector-curvature="0" />
            </g>
          </g>
          <text
             xml:space="preserve"
             style="font-style:normal;font-weight:normal;font-size:50px;line-height:1.25;font-family:sans-serif;letter-spacing:0px;word-spacing:0px;display:inline;fill:#000000;fill-opacity:1;stroke:none;stroke-width:0.937502"
             x="152.55563"
             y="132.6111"
             id="text459"><tspan
               sodipodi:role="line"
               id="tspan457"
               style="font-style:normal;font-variant:normal;font-weight:normal;font-stretch:normal;font-size:50px;font-family:Arial;-inkscape-font-specification:Arial;fill:#000000;stroke-width:0.937502"
               x="152.55563"
               y="132.6111">ukpirate.party</tspan></text>
        </g>
      </g>
    </g>
    <g
       inkscape:groupmode="layer"
       id="layer5"
       inkscape:label="website_blue"
       style="display:none">
      <g
         style="display:inline"
         id="g8596"
         transform="translate(98.182048,849.08538)">
        <g
           id="Text">
          <g
             id="g8489">
            <path
               id="path8491"
               d="m 167.668,79.513 v 16.65 H 156.404 V 42.084 h 11.264 v 3.428 c 1.936,-1.936 3.754,-3.148 5.457,-3.638 1.702,-0.49 3.778,-0.735 6.226,-0.735 4.314,0 7.882,1.924 10.704,5.771 2.822,3.848 4.221,8.78 4.198,14.796 -0.023,6.04 -1.458,10.646 -4.302,13.817 -2.729,3.055 -6.25,5.025 -10.564,5.912 -0.7,0.14 -3.032,0.082 -6.996,-0.175 -1.633,-0.114 -3.207,-0.698 -4.723,-1.747 z m 7.486,-29.278 c -2.402,0 -4.256,0.991 -5.562,2.974 -1.282,1.958 -1.924,4.792 -1.924,8.5 v 9.725 c 0.443,1.166 2.938,1.749 7.486,1.749 2.425,0 4.272,-0.979 5.545,-2.938 1.269,-1.959 1.905,-4.804 1.905,-8.536 0,-3.731 -0.641,-6.576 -1.924,-8.535 -1.282,-1.96 -3.124,-2.939 -5.526,-2.939 z"
               style="fill:#0073ae"
               inkscape:connector-curvature="0" />
            <path
               id="path8493"
               d="m 202.686,26.833 h 11.264 v 10.214 h -11.264 z m 0,15.251 h 11.264 v 39.178 h -11.264 z"
               style="fill:#0073ae"
               inkscape:connector-curvature="0" />
            <path
               id="path8495"
               d="m 238.51,56.496 c -1.562,2.519 -2.344,4.757 -2.344,6.716 v 18.05 H 224.903 V 42.084 h 11.263 v 6.437 c 1.446,-2.565 3.113,-4.431 5.002,-5.597 1.866,-1.189 4.116,-1.784 6.751,-1.784 0.374,0 0.781,0.012 1.225,0.035 0.163,0 0.804,0.082 1.924,0.245 v 8.535 c -5.411,-0.42 -9.597,1.761 -12.558,6.541 z"
               style="fill:#0073ae"
               inkscape:connector-curvature="0" />
            <path
               id="path8497"
               d="m 289.865,78.988 c -4.454,2.286 -9.958,3.428 -16.51,3.428 -8.045,0 -13.292,-1.224 -15.741,-3.672 -2.285,-2.286 -3.428,-5.364 -3.428,-9.235 0,-4.594 1.422,-7.964 4.267,-10.109 2.845,-2.146 7.309,-3.218 13.395,-3.218 h 6.646 v -0.979 c 0,-1.982 -0.704,-3.435 -2.115,-4.354 -1.411,-0.923 -3.598,-1.383 -6.56,-1.383 -2.425,0 -4.673,0.268 -6.749,0.805 -2.076,0.536 -4.011,1.341 -5.807,2.414 v -9.55 c 2.425,-0.653 4.851,-1.143 7.276,-1.469 2.588,-0.35 5.023,-0.524 7.308,-0.524 6.39,0 10.984,1.388 13.782,4.163 2.822,2.798 4.235,7.334 4.235,13.607 v 20.076 z m -17.21,-15.356 c -2.332,0 -4.104,0.443 -5.317,1.329 -1.236,0.909 -1.833,2.215 -1.786,3.918 0.047,1.539 0.527,2.775 1.437,3.708 0.723,0.746 2.052,1.201 3.988,1.364 3.545,0.303 6.026,0.082 7.448,-0.665 0.047,-0.023 0.07,-2.764 0.07,-8.22 v -1.434 z"
               style="fill:#0073ae"
               inkscape:connector-curvature="0" />
            <path
               id="path8499"
               d="m 295.883,51.04 v -1.61 l 15.146,-18.469 h 1.749 v 11.124 h 11.613 v 8.955 h -11.613 v 16.615 c 0,1.819 0.315,3.043 0.945,3.673 0.652,0.653 1.947,0.979 3.882,0.979 h 5.807 v 8.955 h -9.654 c -4.454,0 -7.614,-1.026 -9.479,-3.079 -1.866,-2.052 -2.798,-5.562 -2.798,-10.529 V 51.04 Z"
               style="fill:#0073ae"
               inkscape:connector-curvature="0" />
            <path
               id="path8501"
               d="m 366.615,61.568 v 3.568 h -26.34 c 0.256,2.938 1.208,5.142 2.85,6.611 1.646,1.469 3.937,2.204 6.875,2.204 2.378,0 4.808,-0.389 7.294,-1.173 2.481,-0.779 5.03,-1.964 7.642,-3.549 v 9.654 c -2.659,1.12 -5.324,1.966 -7.992,2.537 -2.672,0.569 -5.335,0.856 -7.994,0.856 -6.389,0 -11.352,-1.803 -14.882,-5.403 -3.536,-3.605 -5.301,-8.658 -5.301,-15.165 0,-6.39 1.737,-11.415 5.212,-15.076 3.475,-3.661 8.255,-5.492 14.342,-5.492 5.55,0 9.986,1.854 13.311,5.562 3.321,3.708 4.983,8.663 4.983,14.866 z m -11.578,-4.162 c 0,-2.379 -0.625,-4.295 -1.87,-5.755 -1.25,-1.455 -2.887,-2.185 -4.916,-2.185 -2.168,0 -3.936,0.683 -5.298,2.045 -1.367,1.366 -2.223,3.33 -2.572,5.895 z"
               style="fill:#0073ae"
               inkscape:connector-curvature="0" />
          </g>
          <g
             id="g8503">
            <path
               id="path8505"
               d="m 382.347,79.233 v 16.93 h -6.471 V 42.084 h 6.471 v 5.492 c 1.749,-2.588 3.556,-4.309 5.422,-5.16 1.866,-0.851 4.232,-1.277 7.102,-1.277 4.757,0 8.621,1.889 11.597,5.667 2.971,3.778 4.459,8.745 4.459,14.901 0,6.157 -1.488,10.972 -4.459,14.447 -2.976,3.475 -6.84,5.212 -11.597,5.212 -2.869,0 -4.921,-0.1 -6.157,-0.296 -1.237,-0.197 -3.359,-0.811 -6.367,-1.837 z m 21.897,-17.525 c 0,-4.734 -0.975,-8.448 -2.922,-11.14 -1.947,-2.696 -4.622,-4.041 -8.026,-4.041 -2.915,0 -5.375,0.781 -7.381,2.343 -1.959,1.539 -3.148,4.291 -3.568,8.255 v 15.811 c 3.335,2.029 6.984,3.043 10.949,3.043 3.404,0 6.079,-1.206 8.026,-3.622 1.948,-2.41 2.922,-5.961 2.922,-10.649 z"
               style="fill:#231f20"
               inkscape:connector-curvature="0" />
            <path
               id="path8507"
               d="m 434.889,81.926 c -5.224,0.094 -9.293,-1.084 -12.208,-3.533 -2.262,-1.912 -3.393,-4.757 -3.393,-8.535 0,-4.408 1.474,-7.731 4.424,-9.97 2.95,-2.239 7.353,-3.358 13.206,-3.358 h 9.024 v -0.629 c 0,-2.962 -0.975,-5.254 -2.922,-6.873 -1.947,-1.623 -4.681,-2.432 -8.201,-2.432 -2.239,0 -4.42,0.268 -6.542,0.804 -2.122,0.536 -4.162,1.341 -6.121,2.414 v -5.946 c 2.355,-0.91 4.641,-1.592 6.856,-2.046 2.215,-0.455 4.372,-0.682 6.471,-0.682 5.667,0 9.899,1.469 12.698,4.408 2.798,2.938 4.197,7.345 4.197,13.222 v 0.14 l -0.035,19.659 c -4.477,2.145 -10.295,3.264 -17.454,3.357 z m 4.652,-20.358 c -5.2,0 -8.803,0.595 -10.809,1.784 -2.006,1.189 -3.009,3.218 -3.009,6.087 0,2.262 0.781,4.116 2.345,5.562 1.562,1.445 3.579,2.168 6.051,2.168 0.07,0 0.141,0 0.21,0 5.527,0 9.398,-0.618 11.613,-1.854 0,-6.623 0,-10.727 0,-12.313 v -1.434 z"
               style="fill:#231f20"
               inkscape:connector-curvature="0" />
            <path
               id="path8509"
               d="m 485.194,47.506 c -0.723,-0.419 -1.504,-0.66 -2.344,-0.716 -0.84,-0.061 -1.771,-0.03 -2.798,0.086 -3.521,0.443 -6.285,2.168 -8.29,5.177 -2.006,3.008 -3.009,6.728 -3.009,11.159 v 18.05 h -6.472 V 42.084 h 6.472 v 5.771 c 1.353,-2.378 3.113,-4.092 5.282,-5.142 2.169,-1.05 4.804,-1.574 7.905,-1.574 0.443,0 0.933,0.029 1.47,0.087 0.536,0.058 1.131,0.146 1.783,0.262 v 6.018 z"
               style="fill:#231f20"
               inkscape:connector-curvature="0" />
            <path
               id="path8511"
               d="m 490.549,47.087 v -5.072 h 4.723 v -4.932 l 6.471,-6.122 V 42.085 H 515 v 5.002 h -13.258 v 21.268 c 0,3.195 0.437,5.247 1.312,6.157 0.873,0.909 2.652,1.364 5.334,1.364 H 515 v 5.387 h -6.611 c -4.968,0 -8.396,-0.928 -10.284,-2.78 -1.889,-1.856 -2.833,-5.231 -2.833,-10.128 V 47.087 Z"
               style="fill:#231f20"
               inkscape:connector-curvature="0" />
            <path
               id="path8513"
               d="m 527.842,98.437 6.996,-17.805 -15.846,-38.548 h 6.821 l 12.243,30.643 12.242,-30.643 h 6.821 l -22.457,56.353 z"
               style="fill:#231f20"
               inkscape:connector-curvature="0" />
          </g>
          <g
             id="g8515">
            <path
               id="path8517"
               d="m 159.598,122.975 v 7.09 h -2.71 v -22.646 h 2.71 v 2.299 c 0.732,-1.084 1.489,-1.804 2.271,-2.16 0.782,-0.356 1.772,-0.535 2.974,-0.535 1.992,0 3.611,0.791 4.856,2.373 1.245,1.582 1.868,3.662 1.868,6.24 0,2.578 -0.623,4.596 -1.868,6.051 -1.245,1.455 -2.864,2.182 -4.856,2.182 -1.201,0 -2.061,-0.041 -2.578,-0.123 -0.518,-0.085 -1.407,-0.341 -2.667,-0.771 z m 9.17,-7.34 c 0,-1.982 -0.408,-3.537 -1.223,-4.664 -0.815,-1.129 -1.936,-1.693 -3.362,-1.693 -1.221,0 -2.251,0.328 -3.091,0.982 -0.82,0.645 -1.318,1.797 -1.494,3.457 v 6.621 c 1.396,0.85 2.925,1.273 4.585,1.273 1.426,0 2.546,-0.504 3.362,-1.516 0.815,-1.009 1.223,-2.497 1.223,-4.46 z"
               style="fill:#231f20"
               inkscape:connector-curvature="0" />
            <path
               id="path8519"
               d="m 176.034,101.032 h 2.695 v 3.412 h -2.695 z m 0,6.386 h 2.695 v 16.406 h -2.695 z"
               style="fill:#231f20"
               inkscape:connector-curvature="0" />
            <path
               id="path8521"
               d="m 193.699,109.688 c -0.303,-0.176 -0.63,-0.275 -0.981,-0.299 -0.352,-0.025 -0.742,-0.014 -1.172,0.035 -1.475,0.186 -2.632,0.908 -3.472,2.168 -0.84,1.26 -1.26,2.818 -1.26,4.674 v 7.559 h -2.71 v -16.406 h 2.71 v 2.416 c 0.566,-0.996 1.304,-1.713 2.212,-2.152 0.908,-0.439 2.012,-0.66 3.311,-0.66 0.186,0 0.391,0.013 0.615,0.037 0.224,0.024 0.474,0.061 0.747,0.109 z"
               style="fill:#231f20"
               inkscape:connector-curvature="0" />
            <path
               id="path8523"
               d="m 203.411,124.102 c -2.188,0.039 -3.892,-0.453 -5.112,-1.479 -0.947,-0.801 -1.421,-1.992 -1.421,-3.574 0,-1.846 0.618,-3.238 1.853,-4.176 1.235,-0.938 3.079,-1.406 5.53,-1.406 h 3.779 v -0.264 c 0,-1.24 -0.408,-2.199 -1.223,-2.877 -0.815,-0.68 -1.96,-1.02 -3.435,-1.02 -0.938,0 -1.851,0.113 -2.739,0.338 -0.888,0.225 -1.743,0.561 -2.563,1.01 v -2.49 c 0.986,-0.381 1.943,-0.666 2.871,-0.856 0.928,-0.19 1.831,-0.286 2.71,-0.286 2.373,0 4.146,0.615 5.317,1.846 1.171,1.231 1.758,3.076 1.758,5.537 v 0.059 l -0.015,8.232 c -1.876,0.898 -4.312,1.367 -7.31,1.406 z m 1.948,-8.525 c -2.178,0 -3.687,0.25 -4.526,0.748 -0.839,0.498 -1.26,1.348 -1.26,2.549 0,0.947 0.327,1.723 0.981,2.328 0.654,0.605 1.499,0.908 2.534,0.908 0.029,0 0.059,0 0.088,0 2.314,0 3.936,-0.258 4.863,-0.775 0,-2.773 0,-4.492 0,-5.156 v -0.602 z"
               style="fill:#231f20"
               inkscape:connector-curvature="0" />
            <path
               id="path8525"
               d="m 214.265,109.512 v -2.123 h 1.978 v -2.066 l 2.71,-2.562 v 4.658 h 5.552 v 2.094 h -5.552 v 8.906 c 0,1.338 0.183,2.197 0.549,2.578 0.366,0.381 1.111,0.572 2.234,0.572 h 2.769 v 2.256 h -2.769 c -2.08,0 -3.516,-0.389 -4.307,-1.164 -0.791,-0.777 -1.187,-2.191 -1.187,-4.242 v -8.906 h -1.977 z"
               style="fill:#231f20"
               inkscape:connector-curvature="0" />
            <path
               id="path8527"
               d="m 242.083,114.948 v 1.318 H 229.69 c 0.117,1.855 0.676,3.27 1.677,4.24 1.001,0.973 2.395,1.457 4.182,1.457 1.035,0 2.039,-0.127 3.01,-0.381 0.971,-0.254 1.936,-0.635 2.893,-1.143 v 2.549 c -0.967,0.41 -1.958,0.723 -2.974,0.938 -1.016,0.215 -2.046,0.322 -3.091,0.322 -2.617,0 -4.69,-0.762 -6.218,-2.285 -1.528,-1.523 -2.292,-3.584 -2.292,-6.182 0,-2.686 0.725,-4.816 2.175,-6.393 1.45,-1.578 3.406,-2.367 5.867,-2.367 2.207,0 3.953,0.711 5.237,2.133 1.284,1.421 1.927,3.352 1.927,5.794 z m -2.696,-0.791 c -0.02,-1.475 -0.432,-2.652 -1.238,-3.531 -0.806,-0.879 -1.873,-1.318 -3.201,-1.318 -1.504,0 -2.708,0.426 -3.611,1.275 -0.903,0.849 -1.423,2.045 -1.56,3.588 z"
               style="fill:#231f20"
               inkscape:connector-curvature="0" />
            <path
               id="path8529"
               d="m 249.114,122.975 v 7.09 h -2.71 v -22.646 h 2.71 v 2.299 c 0.732,-1.084 1.489,-1.804 2.271,-2.16 0.782,-0.356 1.772,-0.535 2.974,-0.535 1.992,0 3.611,0.791 4.856,2.373 1.245,1.582 1.868,3.662 1.868,6.24 0,2.578 -0.623,4.596 -1.868,6.051 -1.245,1.455 -2.864,2.182 -4.856,2.182 -1.201,0 -2.061,-0.041 -2.578,-0.123 -0.519,-0.085 -1.407,-0.341 -2.667,-0.771 z m 9.17,-7.34 c 0,-1.982 -0.408,-3.537 -1.223,-4.664 -0.815,-1.129 -1.936,-1.693 -3.362,-1.693 -1.221,0 -2.251,0.328 -3.091,0.982 -0.82,0.645 -1.318,1.797 -1.494,3.457 v 6.621 c 1.396,0.85 2.925,1.273 4.585,1.273 1.426,0 2.546,-0.504 3.362,-1.516 0.815,-1.009 1.223,-2.497 1.223,-4.46 z"
               style="fill:#231f20"
               inkscape:connector-curvature="0" />
            <path
               id="path8531"
               d="m 271.057,124.102 c -2.188,0.039 -3.892,-0.453 -5.112,-1.479 -0.947,-0.801 -1.421,-1.992 -1.421,-3.574 0,-1.846 0.618,-3.238 1.853,-4.176 1.235,-0.938 3.079,-1.406 5.53,-1.406 h 3.779 v -0.264 c 0,-1.24 -0.408,-2.199 -1.223,-2.877 -0.815,-0.68 -1.96,-1.02 -3.435,-1.02 -0.938,0 -1.851,0.113 -2.739,0.338 -0.888,0.225 -1.743,0.561 -2.563,1.01 v -2.49 c 0.986,-0.381 1.943,-0.666 2.871,-0.856 0.928,-0.19 1.831,-0.286 2.71,-0.286 2.373,0 4.146,0.615 5.317,1.846 1.171,1.231 1.758,3.076 1.758,5.537 v 0.059 l -0.015,8.232 c -1.875,0.898 -4.312,1.367 -7.31,1.406 z m 1.948,-8.525 c -2.178,0 -3.687,0.25 -4.526,0.748 -0.839,0.498 -1.26,1.348 -1.26,2.549 0,0.947 0.327,1.723 0.981,2.328 0.654,0.605 1.499,0.908 2.534,0.908 0.029,0 0.059,0 0.088,0 2.314,0 3.936,-0.258 4.863,-0.775 0,-2.773 0,-4.492 0,-5.156 v -0.602 z"
               style="fill:#231f20"
               inkscape:connector-curvature="0" />
            <path
               id="path8533"
               d="m 292.063,109.688 c -0.303,-0.176 -0.63,-0.275 -0.981,-0.299 -0.352,-0.025 -0.742,-0.014 -1.172,0.035 -1.475,0.186 -2.632,0.908 -3.472,2.168 -0.84,1.26 -1.26,2.818 -1.26,4.674 v 7.559 h -2.71 v -16.406 h 2.71 v 2.416 c 0.566,-0.996 1.304,-1.713 2.212,-2.152 0.908,-0.439 2.012,-0.66 3.311,-0.66 0.186,0 0.391,0.013 0.615,0.037 0.224,0.024 0.474,0.061 0.747,0.109 z"
               style="fill:#231f20"
               inkscape:connector-curvature="0" />
            <path
               id="path8535"
               d="m 294.246,109.512 v -2.123 h 1.978 v -2.066 l 2.71,-2.562 v 4.658 h 5.552 v 2.094 h -5.552 v 8.906 c 0,1.338 0.183,2.197 0.549,2.578 0.366,0.381 1.111,0.572 2.234,0.572 h 2.769 v 2.256 h -2.769 c -2.08,0 -3.516,-0.389 -4.307,-1.164 -0.791,-0.777 -1.187,-2.191 -1.187,-4.242 v -8.906 h -1.977 z"
               style="fill:#231f20"
               inkscape:connector-curvature="0" />
            <path
               id="path8537"
               d="m 309.802,131.016 2.93,-7.455 -6.636,-16.143 h 2.856 l 5.127,12.832 5.127,-12.832 h 2.856 l -9.404,23.598 z"
               style="fill:#231f20"
               inkscape:connector-curvature="0" />
            <path
               id="path8539"
               d="m 321.887,120.104 h 3.091 v 3.721 h -3.091 z"
               style="fill:#231f20"
               inkscape:connector-curvature="0" />
            <path
               id="path8541"
               d="m 337.4,107.022 c 2.344,0 4.185,0.762 5.522,2.285 1.337,1.523 2.007,3.633 2.007,6.328 0,2.686 -0.669,4.793 -2.007,6.322 -1.338,1.527 -3.179,2.291 -5.522,2.291 -2.354,0 -4.197,-0.764 -5.53,-2.291 -1.333,-1.529 -2,-3.637 -2,-6.322 0,-2.695 0.667,-4.805 2,-6.328 1.333,-1.523 3.176,-2.285 5.53,-2.285 z m 0,2.285 c -1.445,0 -2.588,0.564 -3.428,1.693 -0.84,1.127 -1.26,2.672 -1.26,4.635 0,1.963 0.417,3.51 1.252,4.637 0.835,1.129 1.98,1.691 3.435,1.691 1.436,0 2.573,-0.566 3.413,-1.699 0.84,-1.133 1.26,-2.676 1.26,-4.629 0,-1.943 -0.42,-3.482 -1.26,-4.621 -0.839,-1.137 -1.977,-1.707 -3.412,-1.707 z"
               style="fill:#231f20"
               inkscape:connector-curvature="0" />
            <path
               id="path8543"
               d="m 357.527,109.688 c -0.303,-0.176 -0.63,-0.275 -0.981,-0.299 -0.352,-0.025 -0.742,-0.014 -1.172,0.035 -1.475,0.186 -2.632,0.908 -3.472,2.168 -0.84,1.26 -1.26,2.818 -1.26,4.674 v 7.559 h -2.71 v -16.406 h 2.71 v 2.416 c 0.566,-0.996 1.304,-1.713 2.212,-2.152 0.908,-0.439 2.012,-0.66 3.311,-0.66 0.186,0 0.391,0.013 0.615,0.037 0.224,0.024 0.474,0.061 0.747,0.109 z"
               style="fill:#231f20"
               inkscape:connector-curvature="0" />
            <path
               id="path8545"
               d="m 374.695,121.788 c 0,2.793 -0.62,4.871 -1.86,6.234 -1.24,1.361 -3.14,2.043 -5.698,2.043 -0.947,0 -1.841,-0.072 -2.681,-0.213 -0.84,-0.143 -1.655,-0.359 -2.446,-0.652 v -2.621 c 0.791,0.43 1.572,0.746 2.344,0.951 0.772,0.205 1.558,0.309 2.358,0.309 1.768,0 3.091,-0.461 3.97,-1.385 0.879,-0.922 1.318,-2.316 1.318,-4.182 v -1.334 c -0.557,0.967 -1.27,1.689 -2.139,2.168 -0.869,0.479 -1.909,0.719 -3.12,0.719 -2.012,0 -3.633,-0.768 -4.863,-2.301 -1.23,-1.533 -1.846,-3.564 -1.846,-6.094 0,-2.539 0.615,-4.574 1.846,-6.107 1.231,-1.533 2.852,-2.301 4.863,-2.301 1.211,0 2.251,0.24 3.12,0.719 0.869,0.479 1.582,1.201 2.139,2.168 v -2.49 h 2.695 z M 372,115.43 c 0,-1.953 -0.402,-3.467 -1.209,-4.541 -0.805,-1.074 -1.936,-1.611 -3.391,-1.611 -1.445,0 -2.57,0.537 -3.377,1.611 -0.805,1.074 -1.208,2.588 -1.208,4.541 0,1.943 0.403,3.453 1.208,4.527 0.807,1.074 1.932,1.611 3.377,1.611 1.455,0 2.586,-0.537 3.391,-1.611 0.806,-1.074 1.209,-2.583 1.209,-4.527 z"
               style="fill:#231f20"
               inkscape:connector-curvature="0" />
            <path
               id="path8547"
               d="m 380.627,120.104 h 3.091 v 3.721 h -3.091 z"
               style="fill:#231f20"
               inkscape:connector-curvature="0" />
            <path
               id="path8549"
               d="m 395.29,124.102 c -2.188,0.039 -3.891,-0.453 -5.111,-1.479 -0.948,-0.801 -1.421,-1.992 -1.421,-3.574 0,-1.846 0.617,-3.238 1.853,-4.176 1.234,-0.938 3.078,-1.406 5.529,-1.406 h 3.779 v -0.264 c 0,-1.24 -0.408,-2.199 -1.223,-2.877 -0.816,-0.68 -1.961,-1.02 -3.436,-1.02 -0.938,0 -1.85,0.113 -2.738,0.338 -0.888,0.225 -1.744,0.561 -2.564,1.01 v -2.49 c 0.986,-0.381 1.943,-0.666 2.871,-0.856 0.928,-0.19 1.832,-0.286 2.711,-0.286 2.373,0 4.145,0.615 5.316,1.846 1.171,1.231 1.758,3.076 1.758,5.537 v 0.059 l -0.014,8.232 c -1.874,0.898 -4.312,1.367 -7.31,1.406 z m 1.949,-8.525 c -2.178,0 -3.688,0.25 -4.527,0.748 -0.839,0.498 -1.26,1.348 -1.26,2.549 0,0.947 0.328,1.723 0.982,2.328 0.654,0.605 1.498,0.908 2.533,0.908 0.029,0 0.059,0 0.088,0 2.314,0 3.936,-0.258 4.863,-0.775 0,-2.773 0,-4.492 0,-5.156 v -0.602 z"
               style="fill:#231f20"
               inkscape:connector-curvature="0" />
            <path
               id="path8551"
               d="m 421.628,123.721 c -1.025,0.303 -2.326,0.492 -3.904,0.564 -1.576,0.074 -2.936,0.109 -4.078,0.109 -1.885,0 -3.316,-0.586 -4.293,-1.758 -0.977,-1.172 -1.465,-2.934 -1.465,-5.287 v -9.932 h 2.695 v 9.17 c 0,2.207 0.172,3.555 0.514,4.043 0.586,0.82 1.625,1.25 3.119,1.289 0.43,0.01 1.113,0.029 2.051,0.059 1.562,-0.02 2.451,-0.186 2.666,-0.498 0,-3.164 0,-4.752 0,-4.762 v -9.301 h 2.695 z"
               style="fill:#231f20"
               inkscape:connector-curvature="0" />
          </g>
        </g>
        <g
           id="Signet">
          <polygon
             id="polygon8554"
             points="94.83,82.013 97.298,81.873 95.59,83.659 97.234,85.504 94.774,85.282 94.359,87.717 92.997,85.655 90.834,86.85 91.599,84.499 89.317,83.552 91.63,82.684 90.946,80.311 93.067,81.579 94.499,79.564 "
             style="fill:#ffffff" />
          <polygon
             id="polygon8556"
             points="106.056,57.196 108.524,57.061 106.815,58.845 108.46,60.689 106,60.465 105.585,62.9 104.224,60.838 102.062,62.033 102.825,59.684 100.542,58.737 102.855,57.87 102.173,55.494 104.294,56.762 105.725,54.748 "
             style="fill:#ffffff" />
          <polygon
             id="polygon8558"
             points="93.647,46.562 96.115,46.422 94.407,48.208 96.053,50.051 93.593,49.832 93.177,52.266 91.817,50.205 89.652,51.398 90.417,49.048 88.134,48.101 90.448,47.233 89.765,44.859 91.886,46.128 93.316,44.112 "
             style="fill:#ffffff" />
          <polygon
             id="polygon8560"
             points="80.649,61.333 83.118,61.193 81.408,62.979 83.055,64.826 80.594,64.603 80.178,67.037 78.818,64.976 76.654,66.169 77.418,63.819 75.135,62.874 77.45,62.004 76.766,59.63 78.887,60.899 80.318,58.884 "
             style="fill:#ffffff" />
          <polygon
             id="polygon8562"
             points="96.911,68.492 95.758,67.275 97.427,67.1 98.229,65.626 98.91,67.16 100.559,67.466 99.312,68.59 99.527,70.255 98.076,69.411 96.562,70.134 "
             style="fill:#ffffff" />
          <g
             id="g8564">
            <path
               id="path8566"
               d="M 135.039,89.912 C 128.733,125.113 95.081,148.545 59.874,142.237 24.667,135.931 1.237,102.28 7.544,67.079 13.848,31.873 47.5,8.449 82.709,14.756 c 35.206,6.305 58.634,39.954 52.33,75.156 z"
               style="fill:#ffffff"
               inkscape:connector-curvature="0" />
            <path
               id="path8568"
               d="m 81.105,23.712 c -30.26,-5.419 -59.186,14.72 -64.604,44.976 -5.42,30.26 14.716,59.188 44.976,64.61 30.259,5.415 59.183,-14.727 64.602,-44.984 5.42,-30.255 -14.715,-59.182 -44.974,-64.602 z m 53.932,66.206 C 128.731,125.124 95.08,148.556 59.872,142.252 24.664,135.944 1.235,102.291 7.543,67.083 13.847,31.877 47.501,8.448 82.709,14.755 c 35.206,6.306 58.634,39.959 52.328,75.163 z"
               inkscape:connector-curvature="0" />
            <g
               id="g8570">
              <polygon
                 id="polygon8572"
                 points="46.998,33.014 46.998,33.014 47.327,98.379 54.451,95.273 53.188,92.129 51.237,33.772 " />
              <path
                 id="path8574"
                 d="m 41.057,45.816 c 0,0 60.699,-23.026 69.619,18.67 0,0 5.716,19.558 -22.992,26.528 0,0 -19.617,4.877 -21.554,4.893 -1.947,0.02 -1.947,0.02 -1.947,0.02 0,0 -19.291,3.84 -14.798,27.627 0,0 -14.917,-21.275 12.979,-38.168 0,0 10.796,-9.016 7.42,-22.749 -0.001,0 -3.343,-16.313 -28.727,-16.821 z"
                 inkscape:connector-curvature="0" />
              <polygon
                 id="polygon8576"
                 points="47.251,104.929 54.873,96.991 47.304,93.659 " />
              <path
                 id="path8578"
                 d="m 81.912,92.428 c 0,0 -29.423,4.918 -32.373,17.679 -2.95,12.763 -3.591,-19.303 15.273,-20.748 18.864,-1.433 1.617,-0.877 1.617,-0.877 l 17.984,-1.609 -2.268,4.242"
                 inkscape:connector-curvature="0" />
            </g>
          </g>
          <polygon
             id="polygon8580"
             points="77.416,61.223 79.662,60.211 78.711,62.486 80.903,63.611 78.534,64.283 79.021,66.699 77.016,65.269 75.431,67.153 75.301,64.695 72.836,64.629 74.682,62.996 73.194,61.03 75.622,61.449 76.23,59.064 "
             style="fill:#ffffff" />
          <polygon
             id="polygon8582"
             points="89.493,46.604 91.738,45.592 90.789,47.867 92.979,48.992 90.61,49.664 91.098,52.08 89.093,50.65 87.507,52.534 87.378,50.076 84.913,50.01 86.758,48.377 85.271,46.411 87.699,46.83 88.307,44.445 "
             style="fill:#ffffff" />
          <polygon
             id="polygon8584"
             points="102.841,57.409 105.086,56.397 104.136,58.672 106.328,59.798 103.958,60.47 104.446,62.885 102.441,61.455 100.855,63.34 100.726,60.881 98.261,60.815 100.106,59.183 98.619,57.217 101.047,57.635 101.655,55.25 "
             style="fill:#ffffff" />
          <polygon
             id="polygon8586"
             points="91.4,81.563 93.646,80.551 92.695,82.827 94.886,83.952 92.518,84.624 93.005,87.04 91,85.609 89.415,87.494 89.285,85.036 86.82,84.969 88.665,83.336 87.178,81.37 89.605,81.789 90.213,79.404 "
             style="fill:#ffffff" />
          <polygon
             id="polygon8588"
             points="94.39,69.033 93.012,68.088 94.599,67.566 95.071,65.961 96.059,67.312 97.73,67.266 96.75,68.619 97.313,70.197 95.718,69.683 94.393,70.705 "
             style="fill:#ffffff" />
        </g>
      </g>
    </g>
  </g>
  <g
     inkscape:groupmode="layer"
     id="layer4"
     inkscape:label="Tags"
     style="display:inline"
     sodipodi:insensitive="true">
    <text
       xml:space="preserve"
       style="color:#000000;font-style:normal;font-variant:normal;font-weight:normal;font-stretch:normal;line-height:0%;font-family:sans-serif;-inkscape-font-specification:sans-serif;text-indent:0;text-align:center;text-decoration:none;text-decoration-line:none;text-decoration-style:solid;text-decoration-color:#000000;letter-spacing:0px;word-spacing:0px;text-transform:none;writing-mode:lr-tb;direction:ltr;baseline-shift:baseline;text-anchor:middle;white-space:normal;clip-rule:nonzero;display:inline;overflow:visible;visibility:visible;opacity:1;isolation:auto;mix-blend-mode:normal;color-interpolation:sRGB;color-interpolation-filters:linearRGB;solid-color:#000000;solid-opacity:1;fill:#b3b3b3;fill-opacity:1;fill-rule:nonzero;stroke:none;stroke-width:1px;stroke-linecap:butt;stroke-linejoin:miter;stroke-miterlimit:4;stroke-dasharray:none;stroke-dashoffset:0;stroke-opacity:1;marker:none;color-rendering:auto;image-rendering:auto;shape-rendering:auto;text-rendering:auto;enable-background:accumulate"
       x="370.95996"
       y="1042.3622"
       id="text8762"><tspan
         sodipodi:role="line"
         id="tspan8764"
         x="370.95996"
         y="1042.3622"
         style="font-style:normal;font-variant:normal;font-weight:300;font-stretch:condensed;font-size:11px;line-height:10;font-family:'Open Sans Condensed';-inkscape-font-specification:'Open Sans Condensed, Light Condensed';text-align:center;text-anchor:middle;fill:#b3b3b3">Woman artwork from the Pioneer 11 plaque. Public Domain, https://commons.wikimedia.org/w/index.php?curid=598075</tspan></text>
    <text
       id="text8770"
       y="1027.3622"
       x="370.95996"
       style="color:#000000;font-style:normal;font-variant:normal;font-weight:normal;font-stretch:normal;line-height:0%;font-family:sans-serif;-inkscape-font-specification:sans-serif;text-indent:0;text-align:center;text-decoration:none;text-decoration-line:none;text-decoration-style:solid;text-decoration-color:#000000;letter-spacing:0px;word-spacing:0px;text-transform:none;writing-mode:lr-tb;direction:ltr;baseline-shift:baseline;text-anchor:middle;white-space:normal;clip-rule:nonzero;display:inline;overflow:visible;visibility:visible;opacity:1;isolation:auto;mix-blend-mode:normal;color-interpolation:sRGB;color-interpolation-filters:linearRGB;solid-color:#000000;solid-opacity:1;fill:#b3b3b3;fill-opacity:1;fill-rule:nonzero;stroke:none;stroke-width:1px;stroke-linecap:butt;stroke-linejoin:miter;stroke-miterlimit:4;stroke-dasharray:none;stroke-dashoffset:0;stroke-opacity:1;marker:none;color-rendering:auto;image-rendering:auto;shape-rendering:auto;text-rendering:auto;enable-background:accumulate"
       xml:space="preserve"><tspan
         style="font-style:normal;font-variant:normal;font-weight:300;font-stretch:condensed;font-size:11px;line-height:10;font-family:'Open Sans Condensed';-inkscape-font-specification:'Open Sans Condensed, Light Condensed';text-align:center;text-anchor:middle;fill:#b3b3b3"
         y="1027.3622"
         x="370.95996"
         id="tspan8772"
         sodipodi:role="line">PPAU_PRINT_TAG</tspan></text>
    <text
       xml:space="preserve"
       style="color:#000000;font-style:normal;font-variant:normal;font-weight:normal;font-stretch:normal;line-height:0%;font-family:sans-serif;-inkscape-font-specification:sans-serif;text-indent:0;text-align:center;text-decoration:none;text-decoration-line:none;text-decoration-style:solid;text-decoration-color:#000000;letter-spacing:0px;word-spacing:0px;text-transform:none;writing-mode:lr-tb;direction:ltr;baseline-shift:baseline;text-anchor:middle;white-space:normal;clip-rule:nonzero;display:inline;overflow:visible;visibility:visible;opacity:1;isolation:auto;mix-blend-mode:normal;color-interpolation:sRGB;color-interpolation-filters:linearRGB;solid-color:#000000;solid-opacity:1;fill:#b3b3b3;fill-opacity:1;fill-rule:nonzero;stroke:none;stroke-width:1px;stroke-linecap:butt;stroke-linejoin:miter;stroke-miterlimit:4;stroke-dasharray:none;stroke-dashoffset:0;stroke-opacity:1;marker:none;color-rendering:auto;image-rendering:auto;shape-rendering:auto;text-rendering:auto;enable-background:accumulate"
       x="370.95996"
       y="1012.3622"
       id="text8774"><tspan
         sodipodi:role="line"
         id="tspan8776"
         x="370.95996"
         y="1012.3622"
         style="font-style:normal;font-variant:normal;font-weight:300;font-stretch:condensed;font-size:11px;line-height:10;font-family:'Open Sans Condensed';-inkscape-font-specification:'Open Sans Condensed, Light Condensed';text-align:center;text-anchor:middle;fill:#b3b3b3">PPAU_AUTH_TAG</tspan></text>
  </g>
</svg>
