<?xml version="1.0" encoding="UTF-8" standalone="no"?>
<!-- Created with Inkscape (http://www.inkscape.org/) -->

<svg
   width="210mm"
   height="297mm"
   viewBox="0 0 210 297"
   version="1.1"
   id="svg8"
   inkscape:version="1.2.2 (1:1.2.2+202305151915+b0a8486541)"
   sodipodi:docname="your-body-your-choices.svg"
   xml:space="preserve"
   xmlns:inkscape="http://www.inkscape.org/namespaces/inkscape"
   xmlns:sodipodi="http://sodipodi.sourceforge.net/DTD/sodipodi-0.dtd"
   xmlns:xlink="http://www.w3.org/1999/xlink"
   xmlns="http://www.w3.org/2000/svg"
   xmlns:svg="http://www.w3.org/2000/svg"
   xmlns:rdf="http://www.w3.org/1999/02/22-rdf-syntax-ns#"
   xmlns:cc="http://creativecommons.org/ns#"
   xmlns:dc="http://purl.org/dc/elements/1.1/"><defs
     id="defs2"><linearGradient
       inkscape:collect="always"
       id="linearGradient4868"><stop
         style="stop-color:#0073ae;stop-opacity:1"
         offset="0"
         id="stop4864" /><stop
         id="stop5192"
         offset="0.5"
         style="stop-color:#8518ca;stop-opacity:1" /><stop
         style="stop-color:#ef243c;stop-opacity:1"
         offset="1"
         id="stop4866" /></linearGradient><linearGradient
       inkscape:collect="always"
       xlink:href="#linearGradient4868"
       id="linearGradient4870"
       x1="72"
       y1="177"
       x2="51.999992"
       y2="229"
       gradientUnits="userSpaceOnUse"
       gradientTransform="translate(6.019998e-6,-6.0000056)" /></defs><sodipodi:namedview
     inkscape:snap-object-midpoints="true"
     inkscape:snap-nodes="true"
     inkscape:snap-smooth-nodes="true"
     id="base"
     pagecolor="#ffffff"
     bordercolor="#666666"
     borderopacity="1.0"
     inkscape:pageopacity="0.0"
     inkscape:pageshadow="2"
     inkscape:zoom="0.64252674"
     inkscape:cx="67.701462"
     inkscape:cy="468.46299"
     inkscape:document-units="mm"
     inkscape:current-layer="layer1"
     showgrid="false"
     inkscape:snap-text-baseline="true"
     inkscape:snap-page="true"
     inkscape:window-width="1920"
     inkscape:window-height="1032"
     inkscape:window-x="0"
     inkscape:window-y="0"
     inkscape:window-maximized="1"
     inkscape:snap-midpoints="true"
     inkscape:showpageshadow="2"
     inkscape:pagecheckerboard="0"
     inkscape:deskcolor="#d1d1d1"><inkscape:grid
       type="xygrid"
       id="grid4747"
       units="mm"
       spacingx="0.1"
       spacingy="0.1"
       empspacing="10" /></sodipodi:namedview><metadata
     id="metadata5"><rdf:RDF><cc:Work
         rdf:about=""><dc:format>image/svg+xml</dc:format><dc:type
           rdf:resource="http://purl.org/dc/dcmitype/StillImage" /><dc:title /></cc:Work></rdf:RDF></metadata><rect
     style="opacity:1;fill:#ffffff;fill-opacity:1;fill-rule:evenodd;stroke:none;stroke-width:0.5;stroke-linecap:round;stroke-linejoin:round;stroke-miterlimit:4;stroke-dasharray:none;stroke-dashoffset:0;stroke-opacity:1"
     id="rect5198"
     width="210"
     height="297"
     x="0"
     y="-8.3923342e-06" /><g
     inkscape:label="Frame"
     inkscape:groupmode="layer"
     id="layer1"><text
       xml:space="preserve"
       style="color:#000000;font-style:normal;font-variant:normal;font-weight:bold;font-stretch:normal;font-size:31.75px;line-height:1ex;font-family:'Open Sans';-inkscape-font-specification:'Open Sans';text-indent:0;text-align:center;text-decoration:none;text-decoration-line:none;text-decoration-style:solid;text-decoration-color:#000000;letter-spacing:0.79375px;word-spacing:0px;text-transform:none;writing-mode:lr-tb;direction:ltr;baseline-shift:baseline;text-anchor:middle;white-space:normal;clip-rule:nonzero;display:inline;overflow:visible;visibility:visible;opacity:1;isolation:auto;mix-blend-mode:normal;color-interpolation:sRGB;color-interpolation-filters:linearRGB;solid-color:#000000;solid-opacity:1;fill:#ef243c;fill-opacity:1;fill-rule:nonzero;stroke:none;stroke-width:0.264583px;stroke-linecap:butt;stroke-linejoin:miter;stroke-miterlimit:4;stroke-dasharray:none;stroke-dashoffset:0;stroke-opacity:1;marker:none;color-rendering:auto;image-rendering:auto;shape-rendering:auto;text-rendering:auto;enable-background:accumulate"
       x="105.02145"
       y="120"
       id="text4753"><tspan
         sodipodi:role="line"
         id="tspan4751"
         x="105.41832"
         y="120"
         style="font-style:normal;font-variant:normal;font-weight:bold;font-stretch:normal;line-height:20ex;font-family:'Open Sans';-inkscape-font-specification:'Open Sans';text-align:center;letter-spacing:0.79375px;text-anchor:middle;fill:#ef243c;fill-opacity:1;stroke-width:0.264583px">YOUR BODY</tspan></text><text
       xml:space="preserve"
       style="color:#000000;font-style:normal;font-variant:normal;font-weight:bold;font-stretch:normal;font-size:25.4px;line-height:1ex;font-family:'Open Sans';-inkscape-font-specification:'Open Sans';text-indent:0;text-align:center;text-decoration:none;text-decoration-line:none;text-decoration-style:solid;text-decoration-color:#000000;letter-spacing:0px;word-spacing:0px;text-transform:none;writing-mode:lr-tb;direction:ltr;baseline-shift:baseline;text-anchor:middle;white-space:normal;clip-rule:nonzero;display:inline;overflow:visible;visibility:visible;opacity:1;isolation:auto;mix-blend-mode:normal;color-interpolation:sRGB;color-interpolation-filters:linearRGB;solid-color:#000000;solid-opacity:1;fill:#ee6417;fill-opacity:1;fill-rule:nonzero;stroke:none;stroke-width:0.264583px;stroke-linecap:butt;stroke-linejoin:miter;stroke-miterlimit:4;stroke-dasharray:none;stroke-dashoffset:0;stroke-opacity:1;marker:none;color-rendering:auto;image-rendering:auto;shape-rendering:auto;text-rendering:auto;enable-background:accumulate"
       x="104.00595"
       y="148"
       id="text4757"><tspan
         sodipodi:role="line"
         id="tspan4755"
         x="104.00594"
         y="148"
         style="font-style:normal;font-variant:normal;font-weight:bold;font-stretch:normal;line-height:20ex;font-family:'Open Sans';-inkscape-font-specification:'Open Sans';text-align:center;letter-spacing:0px;text-anchor:middle;fill:#ee6417;fill-opacity:1;stroke-width:0.264583px">YOUR CHOICES</tspan></text><text
       xml:space="preserve"
       style="color:#000000;font-style:italic;font-variant:normal;font-weight:normal;font-stretch:normal;font-size:5.82083px;line-height:1000%;font-family:'Open Sans';-inkscape-font-specification:'Open Sans Italic';text-indent:0;text-align:center;text-decoration:none;text-decoration-line:none;text-decoration-style:solid;text-decoration-color:#000000;letter-spacing:0px;word-spacing:0px;text-transform:none;writing-mode:lr-tb;direction:ltr;baseline-shift:baseline;text-anchor:middle;white-space:normal;clip-rule:nonzero;display:inline;overflow:visible;visibility:visible;opacity:1;isolation:auto;mix-blend-mode:normal;color-interpolation:sRGB;color-interpolation-filters:linearRGB;solid-color:#000000;solid-opacity:1;fill:#000000;fill-opacity:1;fill-rule:nonzero;stroke:none;stroke-width:0.264583px;stroke-linecap:butt;stroke-linejoin:miter;stroke-miterlimit:4;stroke-dasharray:none;stroke-dashoffset:0;stroke-opacity:1;marker:none;color-rendering:auto;image-rendering:auto;shape-rendering:auto;text-rendering:auto;enable-background:accumulate"
       x="52.562016"
       y="78.999657"
       id="text4786"><tspan
         sodipodi:role="line"
         id="tspan4784"
         x="52.562016"
         y="78.999657"
         style="font-style:italic;font-variant:normal;font-weight:normal;font-stretch:normal;font-size:5.82083px;font-family:'Open Sans';-inkscape-font-specification:'Open Sans Italic';text-align:center;text-anchor:middle;stroke-width:0.264583px">Abortion</tspan></text><text
       xml:space="preserve"
       style="color:#000000;font-style:italic;font-variant:normal;font-weight:normal;font-stretch:normal;font-size:5.82083px;line-height:1000%;font-family:'Open Sans';-inkscape-font-specification:'Open Sans Italic';text-indent:0;text-align:center;text-decoration:none;text-decoration-line:none;text-decoration-style:solid;text-decoration-color:#000000;letter-spacing:0px;word-spacing:0px;text-transform:none;writing-mode:lr-tb;direction:ltr;baseline-shift:baseline;text-anchor:middle;white-space:normal;clip-rule:nonzero;display:inline;overflow:visible;visibility:visible;opacity:1;isolation:auto;mix-blend-mode:normal;color-interpolation:sRGB;color-interpolation-filters:linearRGB;solid-color:#000000;solid-opacity:1;fill:#000000;fill-opacity:1;fill-rule:nonzero;stroke:none;stroke-width:0.264583px;stroke-linecap:butt;stroke-linejoin:miter;stroke-miterlimit:4;stroke-dasharray:none;stroke-dashoffset:0;stroke-opacity:1;marker:none;color-rendering:auto;image-rendering:auto;shape-rendering:auto;text-rendering:auto;enable-background:accumulate"
       x="157.44884"
       y="79.000267"
       id="text4790"><tspan
         sodipodi:role="line"
         id="tspan4788"
         x="157.44884"
         y="79.000267"
         style="font-style:italic;font-variant:normal;font-weight:normal;font-stretch:normal;font-size:5.82083px;font-family:'Open Sans';-inkscape-font-specification:'Open Sans Italic';text-align:center;text-anchor:middle;stroke-width:0.264583px">Voluntary Euthanasia</tspan></text><text
       xml:space="preserve"
       style="color:#000000;font-style:italic;font-variant:normal;font-weight:normal;font-stretch:normal;font-size:5.82083px;line-height:1000%;font-family:'Open Sans';-inkscape-font-specification:'Open Sans Italic';text-indent:0;text-align:center;text-decoration:none;text-decoration-line:none;text-decoration-style:solid;text-decoration-color:#000000;letter-spacing:0px;word-spacing:0px;text-transform:none;writing-mode:lr-tb;direction:ltr;baseline-shift:baseline;text-anchor:middle;white-space:normal;clip-rule:nonzero;display:inline;overflow:visible;visibility:visible;opacity:1;isolation:auto;mix-blend-mode:normal;color-interpolation:sRGB;color-interpolation-filters:linearRGB;solid-color:#000000;solid-opacity:1;fill:#000000;fill-opacity:1;fill-rule:nonzero;stroke:none;stroke-width:0.264583px;stroke-linecap:butt;stroke-linejoin:miter;stroke-miterlimit:4;stroke-dasharray:none;stroke-dashoffset:0;stroke-opacity:1;marker:none;color-rendering:auto;image-rendering:auto;shape-rendering:auto;text-rendering:auto;enable-background:accumulate"
       x="52.233353"
       y="239.00026"
       id="text4794"><tspan
         sodipodi:role="line"
         id="tspan4792"
         x="52.233353"
         y="239.00026"
         style="font-style:italic;font-variant:normal;font-weight:normal;font-stretch:normal;font-size:5.82083px;font-family:'Open Sans';-inkscape-font-specification:'Open Sans Italic';text-align:center;text-anchor:middle;stroke-width:0.264583px">Gender Identity</tspan></text><text
       xml:space="preserve"
       style="color:#000000;font-style:italic;font-variant:normal;font-weight:normal;font-stretch:normal;font-size:5.82083px;line-height:1000%;font-family:'Open Sans';-inkscape-font-specification:'Open Sans Italic';text-indent:0;text-align:center;text-decoration:none;text-decoration-line:none;text-decoration-style:solid;text-decoration-color:#000000;letter-spacing:0px;word-spacing:0px;text-transform:none;writing-mode:lr-tb;direction:ltr;baseline-shift:baseline;text-anchor:middle;white-space:normal;clip-rule:nonzero;display:inline;overflow:visible;visibility:visible;opacity:1;isolation:auto;mix-blend-mode:normal;color-interpolation:sRGB;color-interpolation-filters:linearRGB;solid-color:#000000;solid-opacity:1;fill:#000000;fill-opacity:1;fill-rule:nonzero;stroke:none;stroke-width:0.264583px;stroke-linecap:butt;stroke-linejoin:miter;stroke-miterlimit:4;stroke-dasharray:none;stroke-dashoffset:0;stroke-opacity:1;marker:none;color-rendering:auto;image-rendering:auto;shape-rendering:auto;text-rendering:auto;enable-background:accumulate"
       x="157.269"
       y="238.99965"
       id="text4798"><tspan
         sodipodi:role="line"
         id="tspan4796"
         x="157.269"
         y="238.99965"
         style="font-style:italic;font-variant:normal;font-weight:normal;font-stretch:normal;font-size:5.82083px;font-family:'Open Sans';-inkscape-font-specification:'Open Sans Italic';text-align:center;text-anchor:middle;stroke-width:0.264583px">Decriminalised sex work</tspan></text><path
       id="path13656"
       style="fill:none;fill-rule:evenodd;stroke:#0073ae;stroke-width:1;stroke-linecap:round;stroke-linejoin:miter;stroke-miterlimit:4;stroke-dasharray:none;stroke-opacity:0.837255"
       d="M 4,88 H 206 M 4,158 H 206 M 4,91 H 206 M 4,155 H 206 M 105,88 V 4 m 0,154 v 84"
       inkscape:connector-curvature="0"
       sodipodi:nodetypes="cccccccccccc" /><g
       id="g10483"
       transform="matrix(0.24193162,0,0,0.24193162,38.085874,251.94204)"><g
         id="Text"><g
           id="g290"><path
             id="path278"
             d="m 167.668,79.513 v 16.65 H 156.404 V 42.084 h 11.264 v 3.428 c 1.936,-1.936 3.754,-3.148 5.457,-3.638 1.702,-0.49 3.778,-0.735 6.226,-0.735 4.314,0 7.882,1.924 10.704,5.771 2.822,3.848 4.221,8.78 4.198,14.796 -0.023,6.04 -1.458,10.646 -4.302,13.817 -2.729,3.055 -6.25,5.025 -10.564,5.912 -0.7,0.14 -3.032,0.082 -6.996,-0.175 -1.633,-0.114 -3.207,-0.698 -4.723,-1.747 z m 7.486,-29.278 c -2.402,0 -4.256,0.991 -5.562,2.974 -1.282,1.958 -1.924,4.792 -1.924,8.5 v 9.725 c 0.443,1.166 2.938,1.749 7.486,1.749 2.425,0 4.272,-0.979 5.545,-2.938 1.269,-1.959 1.905,-4.804 1.905,-8.536 0,-3.731 -0.641,-6.576 -1.924,-8.535 -1.282,-1.96 -3.124,-2.939 -5.526,-2.939 z"
             style="fill:#0073ae"
             inkscape:connector-curvature="0" /><path
             id="path280"
             d="m 202.686,26.833 h 11.264 v 10.214 h -11.264 z m 0,15.251 h 11.264 v 39.178 h -11.264 z"
             style="fill:#0073ae"
             inkscape:connector-curvature="0" /><path
             id="path282"
             d="m 238.51,56.496 c -1.562,2.519 -2.344,4.757 -2.344,6.716 v 18.05 H 224.903 V 42.084 h 11.263 v 6.437 c 1.446,-2.565 3.113,-4.431 5.002,-5.597 1.866,-1.189 4.116,-1.784 6.751,-1.784 0.374,0 0.781,0.012 1.225,0.035 0.163,0 0.804,0.082 1.924,0.245 v 8.535 c -5.411,-0.42 -9.597,1.761 -12.558,6.541 z"
             style="fill:#0073ae"
             inkscape:connector-curvature="0" /><path
             id="path284"
             d="m 289.865,78.988 c -4.454,2.286 -9.958,3.428 -16.51,3.428 -8.045,0 -13.292,-1.224 -15.741,-3.672 -2.285,-2.286 -3.428,-5.364 -3.428,-9.235 0,-4.594 1.422,-7.964 4.267,-10.109 2.845,-2.146 7.309,-3.218 13.395,-3.218 h 6.646 v -0.979 c 0,-1.982 -0.704,-3.435 -2.115,-4.354 -1.411,-0.923 -3.598,-1.383 -6.56,-1.383 -2.425,0 -4.673,0.268 -6.749,0.805 -2.076,0.536 -4.011,1.341 -5.807,2.414 v -9.55 c 2.425,-0.653 4.851,-1.143 7.276,-1.469 2.588,-0.35 5.023,-0.524 7.308,-0.524 6.39,0 10.984,1.388 13.782,4.163 2.822,2.798 4.235,7.334 4.235,13.607 v 20.076 z m -17.21,-15.356 c -2.332,0 -4.104,0.443 -5.317,1.329 -1.236,0.909 -1.833,2.215 -1.786,3.918 0.047,1.539 0.527,2.775 1.437,3.708 0.723,0.746 2.052,1.201 3.988,1.364 3.545,0.303 6.026,0.082 7.448,-0.665 0.047,-0.023 0.07,-2.764 0.07,-8.22 v -1.434 z"
             style="fill:#0073ae"
             inkscape:connector-curvature="0" /><path
             id="path286"
             d="m 295.883,51.04 v -1.61 l 15.146,-18.469 h 1.749 v 11.124 h 11.613 v 8.955 h -11.613 v 16.615 c 0,1.819 0.315,3.043 0.945,3.673 0.652,0.653 1.947,0.979 3.882,0.979 h 5.807 v 8.955 h -9.654 c -4.454,0 -7.614,-1.026 -9.479,-3.079 -1.866,-2.052 -2.798,-5.562 -2.798,-10.529 V 51.04 Z"
             style="fill:#0073ae"
             inkscape:connector-curvature="0" /><path
             id="path288"
             d="m 366.615,61.568 v 3.568 h -26.34 c 0.256,2.938 1.208,5.142 2.85,6.611 1.646,1.469 3.937,2.204 6.875,2.204 2.378,0 4.808,-0.389 7.294,-1.173 2.481,-0.779 5.03,-1.964 7.642,-3.549 v 9.654 c -2.659,1.12 -5.324,1.966 -7.992,2.537 -2.672,0.569 -5.335,0.856 -7.994,0.856 -6.389,0 -11.352,-1.803 -14.882,-5.403 -3.536,-3.605 -5.301,-8.658 -5.301,-15.165 0,-6.39 1.737,-11.415 5.212,-15.076 3.475,-3.661 8.255,-5.492 14.342,-5.492 5.55,0 9.986,1.854 13.311,5.562 3.321,3.708 4.983,8.663 4.983,14.866 z m -11.578,-4.162 c 0,-2.379 -0.625,-4.295 -1.87,-5.755 -1.25,-1.455 -2.887,-2.185 -4.916,-2.185 -2.168,0 -3.936,0.683 -5.298,2.045 -1.367,1.366 -2.223,3.33 -2.572,5.895 z"
             style="fill:#0073ae"
             inkscape:connector-curvature="0" /></g><g
           id="g302"><path
             id="path292"
             d="m 382.347,79.233 v 16.93 h -6.471 V 42.084 h 6.471 v 5.492 c 1.749,-2.588 3.556,-4.309 5.422,-5.16 1.866,-0.851 4.232,-1.277 7.102,-1.277 4.757,0 8.621,1.889 11.597,5.667 2.971,3.778 4.459,8.745 4.459,14.901 0,6.157 -1.488,10.972 -4.459,14.447 -2.976,3.475 -6.84,5.212 -11.597,5.212 -2.869,0 -4.921,-0.1 -6.157,-0.296 -1.237,-0.197 -3.359,-0.811 -6.367,-1.837 z m 21.897,-17.525 c 0,-4.734 -0.975,-8.448 -2.922,-11.14 -1.947,-2.696 -4.622,-4.041 -8.026,-4.041 -2.915,0 -5.375,0.781 -7.381,2.343 -1.959,1.539 -3.148,4.291 -3.568,8.255 v 15.811 c 3.335,2.029 6.984,3.043 10.949,3.043 3.404,0 6.079,-1.206 8.026,-3.622 1.948,-2.41 2.922,-5.961 2.922,-10.649 z"
             style="fill:#231f20"
             inkscape:connector-curvature="0" /><path
             id="path294"
             d="m 434.889,81.926 c -5.224,0.094 -9.293,-1.084 -12.208,-3.533 -2.262,-1.912 -3.393,-4.757 -3.393,-8.535 0,-4.408 1.474,-7.731 4.424,-9.97 2.95,-2.239 7.353,-3.358 13.206,-3.358 h 9.024 v -0.629 c 0,-2.962 -0.975,-5.254 -2.922,-6.873 -1.947,-1.623 -4.681,-2.432 -8.201,-2.432 -2.239,0 -4.42,0.268 -6.542,0.804 -2.122,0.536 -4.162,1.341 -6.121,2.414 v -5.946 c 2.355,-0.91 4.641,-1.592 6.856,-2.046 2.215,-0.455 4.372,-0.682 6.471,-0.682 5.667,0 9.899,1.469 12.698,4.408 2.798,2.938 4.197,7.345 4.197,13.222 v 0.14 l -0.035,19.659 c -4.477,2.145 -10.295,3.264 -17.454,3.357 z m 4.652,-20.358 c -5.2,0 -8.803,0.595 -10.809,1.784 -2.006,1.189 -3.009,3.218 -3.009,6.087 0,2.262 0.781,4.116 2.345,5.562 1.562,1.445 3.579,2.168 6.051,2.168 0.07,0 0.141,0 0.21,0 5.527,0 9.398,-0.618 11.613,-1.854 0,-6.623 0,-10.727 0,-12.313 v -1.434 z"
             style="fill:#231f20"
             inkscape:connector-curvature="0" /><path
             id="path296"
             d="m 485.194,47.506 c -0.723,-0.419 -1.504,-0.66 -2.344,-0.716 -0.84,-0.061 -1.771,-0.03 -2.798,0.086 -3.521,0.443 -6.285,2.168 -8.29,5.177 -2.006,3.008 -3.009,6.728 -3.009,11.159 v 18.05 h -6.472 V 42.084 h 6.472 v 5.771 c 1.353,-2.378 3.113,-4.092 5.282,-5.142 2.169,-1.05 4.804,-1.574 7.905,-1.574 0.443,0 0.933,0.029 1.47,0.087 0.536,0.058 1.131,0.146 1.783,0.262 v 6.018 z"
             style="fill:#231f20"
             inkscape:connector-curvature="0" /><path
             id="path298"
             d="m 490.549,47.087 v -5.072 h 4.723 v -4.932 l 6.471,-6.122 V 42.085 H 515 v 5.002 h -13.258 v 21.268 c 0,3.195 0.437,5.247 1.312,6.157 0.873,0.909 2.652,1.364 5.334,1.364 H 515 v 5.387 h -6.611 c -4.968,0 -8.396,-0.928 -10.284,-2.78 -1.889,-1.856 -2.833,-5.231 -2.833,-10.128 V 47.087 Z"
             style="fill:#231f20"
             inkscape:connector-curvature="0" /><path
             id="path300"
             d="m 527.842,98.437 6.996,-17.805 -15.846,-38.548 h 6.821 l 12.243,30.643 12.242,-30.643 h 6.821 l -22.457,56.353 z"
             style="fill:#231f20"
             inkscape:connector-curvature="0" /></g></g><g
         id="Signet"><polygon
           id="polygon369"
           points="75.622,61.449 76.23,59.064 77.416,61.223 79.662,60.211 78.711,62.486 80.903,63.611 78.534,64.283 79.021,66.699 77.016,65.269 75.431,67.153 75.301,64.695 72.836,64.629 74.682,62.996 73.194,61.03 "
           style="fill:#ffffff" /><polygon
           id="polygon371"
           points="87.699,46.83 88.307,44.445 89.493,46.604 91.738,45.592 90.789,47.867 92.979,48.992 90.61,49.664 91.098,52.08 89.093,50.65 87.507,52.534 87.378,50.076 84.913,50.01 86.758,48.377 85.271,46.411 "
           style="fill:#ffffff" /><polygon
           id="polygon373"
           points="101.047,57.635 101.655,55.25 102.841,57.409 105.086,56.397 104.136,58.672 106.328,59.798 103.958,60.47 104.446,62.885 102.441,61.455 100.855,63.34 100.726,60.881 98.261,60.815 100.106,59.183 98.619,57.217 "
           style="fill:#ffffff" /><polygon
           id="polygon375"
           points="89.605,81.789 90.213,79.404 91.4,81.563 93.646,80.551 92.695,82.827 94.886,83.952 92.518,84.624 93.005,87.04 91,85.609 89.415,87.494 89.285,85.036 86.82,84.969 88.665,83.336 87.178,81.37 "
           style="fill:#ffffff" /><polygon
           id="polygon377"
           points="96.75,68.619 97.313,70.197 95.718,69.683 94.393,70.705 94.39,69.033 93.012,68.088 94.599,67.566 95.071,65.961 96.059,67.312 97.73,67.266 "
           style="fill:#ffffff" /><polygon
           id="polygon343"
           points="93.067,81.579 94.499,79.564 94.83,82.013 97.298,81.873 95.59,83.659 97.234,85.504 94.774,85.282 94.359,87.717 92.997,85.655 90.834,86.85 91.599,84.499 89.317,83.552 91.63,82.684 90.946,80.311 "
           style="fill:#ffffff" /><polygon
           id="polygon345"
           points="104.294,56.762 105.725,54.748 106.056,57.196 108.524,57.061 106.815,58.845 108.46,60.689 106,60.465 105.585,62.9 104.224,60.838 102.062,62.033 102.825,59.684 100.542,58.737 102.855,57.87 102.173,55.494 "
           style="fill:#ffffff" /><polygon
           id="polygon347"
           points="91.886,46.128 93.316,44.112 93.647,46.562 96.115,46.422 94.407,48.208 96.053,50.051 93.593,49.832 93.177,52.266 91.817,50.205 89.652,51.398 90.417,49.048 88.134,48.101 90.448,47.233 89.765,44.859 "
           style="fill:#ffffff" /><polygon
           id="polygon349"
           points="78.887,60.899 80.318,58.884 80.649,61.333 83.118,61.193 81.408,62.979 83.055,64.826 80.594,64.603 80.178,67.037 78.818,64.976 76.654,66.169 77.418,63.819 75.135,62.874 77.45,62.004 76.766,59.63 "
           style="fill:#ffffff" /><polygon
           id="polygon351"
           points="99.312,68.59 99.527,70.255 98.076,69.411 96.562,70.134 96.911,68.492 95.758,67.275 97.427,67.1 98.229,65.626 98.91,67.16 100.559,67.466 "
           style="fill:#ffffff" /><g
           id="g367"><path
             id="path353"
             d="M 135.039,89.912 C 128.733,125.113 95.081,148.545 59.874,142.237 24.667,135.931 1.237,102.28 7.544,67.079 13.848,31.873 47.5,8.449 82.709,14.756 c 35.206,6.305 58.634,39.954 52.33,75.156 z"
             style="fill:#ffffff"
             inkscape:connector-curvature="0" /><path
             id="path355"
             d="m 81.105,23.712 c -30.26,-5.419 -59.186,14.72 -64.604,44.976 -5.42,30.26 14.716,59.188 44.976,64.61 30.259,5.415 59.183,-14.727 64.602,-44.984 5.42,-30.255 -14.715,-59.182 -44.974,-64.602 z m 53.932,66.206 C 128.731,125.124 95.08,148.556 59.872,142.252 24.664,135.944 1.235,102.291 7.543,67.083 13.847,31.877 47.501,8.448 82.709,14.755 c 35.206,6.306 58.634,39.959 52.328,75.163 z"
             inkscape:connector-curvature="0" /><g
             id="g365"><polygon
               id="polygon357"
               points="51.237,33.772 46.998,33.014 47.327,98.379 54.451,95.273 53.188,92.129 " /><path
               id="path359"
               d="m 41.057,45.816 c 0,0 60.699,-23.026 69.619,18.67 0,0 5.716,19.558 -22.992,26.528 0,0 -19.617,4.877 -21.554,4.893 -1.947,0.02 -1.947,0.02 -1.947,0.02 0,0 -19.291,3.84 -14.798,27.627 0,0 -14.917,-21.275 12.979,-38.168 0,0 10.796,-9.016 7.42,-22.749 -0.001,0 -3.343,-16.313 -28.727,-16.821 z"
               inkscape:connector-curvature="0" /><polygon
               id="polygon361"
               points="47.251,104.929 54.873,96.991 47.304,93.659 " /><path
               id="path363"
               d="m 81.912,92.428 c 0,0 -29.423,4.918 -32.373,17.679 -2.95,12.763 -3.591,-19.303 15.273,-20.748 18.864,-1.433 1.617,-0.877 1.617,-0.877 l 17.984,-1.609 -2.268,4.242"
               inkscape:connector-curvature="0" /></g></g></g><text
         xml:space="preserve"
         style="font-style:normal;font-weight:normal;font-size:36.7068px;line-height:1.25;font-family:sans-serif;letter-spacing:0px;word-spacing:0px;display:inline;fill:#000000;fill-opacity:1;stroke:none;stroke-width:0.688254"
         x="154.1347"
         y="123.3858"
         id="text459"><tspan
           sodipodi:role="line"
           id="tspan457"
           style="font-style:normal;font-variant:normal;font-weight:normal;font-stretch:normal;font-size:36.7068px;font-family:Arial;-inkscape-font-specification:Arial;fill:#000000;stroke-width:0.688254"
           x="154.1347"
           y="123.3858">ukpirate.party</tspan></text></g><g
       id="g603"
       transform="matrix(0.09214423,0,0,0.09214423,27.716594,18.251502)"
       style="fill:#ff0000"><path
         d="M 456.771,283.457 C 452.068,264.119 440.558,235.167 432.148,218.349 405.923,164.294 393.086,144.725 380.146,105.897 371.033,78.559 370.154,46.861 377.737,18.93 378.961,14.421 378.013,9.599 375.175,5.888 372.337,2.177 367.932,0 363.26,0 H 146.364 c -4.672,0 -9.078,2.177 -11.916,5.889 -2.838,3.712 -3.785,8.533 -2.56,13.042 7.07,26.037 6.813,55.808 -0.702,81.709 -13.522,42.645 -28.146,64.725 -53.712,117.709 -8.624,17.247 -20.017,46.169 -24.622,65.109 -19.458,80.013 -19.178,155.431 0.809,218.1 1.984,6.22 7.763,10.442 14.291,10.442 h 157.113 c 3.984,0 7.805,-1.585 10.62,-4.406 2.814,-2.821 4.39,-6.646 4.38,-10.63 l -0.146,-60.221 c -0.012,-4.949 -0.335,-9.871 -0.946,-14.743 h 31.67 c -0.62,4.956 -0.941,9.965 -0.941,15 v 60 c 0,8.284 6.716,15 15,15 h 161.283 c 6.557,0 12.354,-4.259 14.314,-10.516 18.748,-59.847 17.594,-131.164 -3.528,-218.027 z M 159.842,109.525 c 0.035,-0.109 0.068,-0.219 0.1,-0.329 7.396,-25.377 9.05,-52.889 4.929,-79.196 h 179.917 c -4.368,28.405 -2.021,58.631 6.897,85.383 13.867,41.607 27.805,63.067 53.631,116.383 1.962,3.923 4.141,8.655 6.362,13.802 C 373.965,262.236 316.679,272 254.702,272 192.848,272 135.631,262.266 97.91,245.647 c 2.233,-5.178 4.424,-9.938 6.396,-13.882 24.824,-51.543 40.98,-76.259 55.536,-122.24 z M 79.151,482 C 67.377,439.024 65.315,389.684 72.971,336.918 l 60.708,10.118 c 35.304,5.884 62.885,31.294 72.522,64.136 0.046,0.159 0.091,0.318 0.142,0.475 2.304,8.012 3.555,16.456 3.576,25.168 l 0.11,45.185 z m 152.078,-90 c -4.832,-12.079 -11.602,-23.394 -20.135,-33.443 -18.52,-21.808 -44.261,-36.409 -72.483,-41.112 l -60.41,-10.068 c 1.163,-5.578 2.431,-11.193 3.802,-16.83 1.214,-4.99 2.988,-10.813 5.075,-16.926 41.668,17.915 102.636,28.379 167.624,28.379 65.108,0 126.143,-10.493 167.815,-28.461 2.099,6.143 3.884,11.995 5.103,17.008 1.379,5.67 2.667,11.261 3.866,16.783 l -60.475,10.079 c -28.274,4.712 -54.05,19.353 -72.578,41.224 -8.499,10.033 -15.24,21.322 -20.054,33.367 z m 203.47,90 H 299.702 v -45 c 0,-8.758 1.242,-17.244 3.545,-25.295 0.071,-0.216 0.134,-0.436 0.195,-0.656 9.651,-32.803 37.199,-58.164 72.501,-64.048 l 61.209,-10.202 c 9.28,55.887 8.451,103.778 -2.453,145.201 z"
         id="path599"
         style="fill:#ff0000" /><path
         d="m 214.096,207.607 c 5.857,5.857 15.355,5.858 21.213,0 l 19.394,-19.394 19.394,19.394 c 5.857,5.857 15.355,5.858 21.213,0 5.858,-5.858 5.858,-15.355 0,-21.213 L 275.915,167 295.308,147.607 c 5.858,-5.858 5.858,-15.355 0,-21.213 -5.857,-5.858 -15.355,-5.858 -21.213,0 l -19.394,19.394 -19.394,-19.394 c -5.857,-5.858 -15.355,-5.858 -21.213,0 -5.858,5.858 -5.858,15.355 0,21.213 L 233.489,167 214.096,186.393 c -5.858,5.858 -5.858,15.356 0,21.214 z"
         id="path601"
         style="fill:#ff0000" /></g></g><g
     inkscape:groupmode="layer"
     id="layer2"
     inkscape:label="Symbols"><g
       id="g4832"
       transform="rotate(45,161.54901,40.739609)"
       style="stroke:#ef243c;stroke-width:2;stroke-opacity:1"><rect
         ry="16"
         y="13"
         x="140"
         height="56"
         width="32"
         id="rect4823"
         style="opacity:1;fill:#ffffff;fill-opacity:1;fill-rule:evenodd;stroke:#ef243c;stroke-width:2;stroke-linecap:round;stroke-linejoin:round;stroke-miterlimit:4;stroke-dasharray:0.1, 0.29999999;stroke-dashoffset:0;stroke-opacity:1" /><path
         inkscape:connector-curvature="0"
         id="path4825"
         d="m 140,41 h 32 l -0.44365,15.556349 -4.94975,7.778175 -7.07107,4.24264 h -7.07106 l -7.07107,-4.24264 -4.24264,-5.656854 z"
         style="fill:#ef243c;fill-opacity:1;fill-rule:evenodd;stroke:none;stroke-width:2;stroke-linecap:butt;stroke-linejoin:miter;stroke-opacity:1"
         sodipodi:nodetypes="ccccccccc" /><rect
         style="opacity:1;fill:none;fill-opacity:1;fill-rule:evenodd;stroke:#ef243c;stroke-width:2;stroke-linecap:round;stroke-linejoin:round;stroke-miterlimit:4;stroke-dasharray:0.1, 0.29999999;stroke-dashoffset:0;stroke-opacity:1"
         id="rect4827"
         width="32"
         height="56"
         x="140"
         y="13"
         ry="16" /></g><path
       id="path4850"
       style="fill:none;fill-opacity:1;fill-rule:evenodd;stroke:url(#linearGradient4870);stroke-width:4;stroke-linecap:butt;stroke-linejoin:miter;stroke-miterlimit:4;stroke-dasharray:none;stroke-opacity:1"
       d="M 44.000001,210.99999 H 60 m -7.999999,-8 -10e-7,22 m 20,-54 -12,12 m 12.000002,0 -2e-6,-12 H 60.000002 m 4.038236,20 c 2e-6,6.64854 -5.3897,12.03824 -12.038236,12.03824 -6.648536,0 -12.038238,-5.3897 -12.038236,-12.03824 -2e-6,-6.64854 5.3897,-12.03824 12.038236,-12.03824 6.648536,0 12.038238,5.3897 12.038236,12.03824 z"
       inkscape:connector-curvature="0"
       sodipodi:nodetypes="cccccccccsssss" /><g
       id="g5178"
       transform="translate(3.4411277,2.5890397)"><g
         id="g5157"><path
           style="fill:none;fill-rule:evenodd;stroke:#ef243c;stroke-width:4;stroke-linecap:butt;stroke-linejoin:miter;stroke-opacity:1"
           d="m 154,202.99999 v 12"
           id="path5151"
           inkscape:connector-curvature="0"
           sodipodi:nodetypes="cc" /><path
           style="opacity:1;fill:none;fill-opacity:1;fill-rule:evenodd;stroke:#ef243c;stroke-width:4;stroke-linecap:round;stroke-linejoin:round;stroke-miterlimit:4;stroke-dasharray:none;stroke-dashoffset:0;stroke-opacity:1"
           id="path5153"
           sodipodi:type="arc"
           sodipodi:cx="158"
           sodipodi:cy="214.99998"
           sodipodi:rx="3.9999931"
           sodipodi:ry="3.9999931"
           sodipodi:start="0"
           sodipodi:end="3.1415927"
           d="m 161.99999,214.99998 a 3.9999931,3.9999931 0 0 1 -1.99999,3.4641 3.9999931,3.9999931 0 0 1 -4,0 3.9999931,3.9999931 0 0 1 -1.99999,-3.4641"
           sodipodi:open="true" /></g><path
         sodipodi:nodetypes="ccccccccc"
         inkscape:connector-curvature="0"
         d="m 134.00001,199.64094 c 4.4641,0.26796 6.30117,1.0289 9.64723,3.99603 4.38134,-0.89656 6.35276,-0.63702 10.35276,1.36297 4.00002,-2 5.97144,-2.25954 10.35277,-1.36295 3.34608,-2.96712 5.18315,-3.72807 9.64724,-3.99599 2.46412,-3.73204 4.04164,-4.94253 8.28428,-6.35676 l -28.28428,-28.28431 -28.28427,28.28427 c 4.24264,1.41421 5.82017,2.62469 8.28427,6.35674 z"
         style="fill:#ef253d;fill-opacity:1;fill-rule:evenodd;stroke:#f7919d;stroke-width:0.5;stroke-linecap:butt;stroke-linejoin:miter;stroke-opacity:1"
         id="path5135" /><path
         d="M 174.00001,199.641 154,165 M 164.35277,203.63702 154,165 m 0,39.99999 V 165 M 143.64724,203.63702 154,165 m 0,0 -20,34.64101"
         style="fill:#ef253d;fill-opacity:1;fill-rule:evenodd;stroke:#f7939f;stroke-width:0.5;stroke-linecap:butt;stroke-linejoin:miter;stroke-opacity:1"
         id="path5114"
         inkscape:connector-curvature="0" /></g></g><g
     inkscape:groupmode="layer"
     id="layer3"
     inkscape:label="Tags" /></svg>
