<?xml version="1.0" encoding="UTF-8" standalone="no"?>
<svg
   width="1200"
   height="1200"
   viewBox="0 0 317.49999 317.50001"
   version="1.1"
   id="svg8"
   inkscape:version="1.3 (1:1.3+202307231459+0e150ed6c4)"
   sodipodi:docname="basics-card-basic-income.svg"
   xmlns:inkscape="http://www.inkscape.org/namespaces/inkscape"
   xmlns:sodipodi="http://sodipodi.sourceforge.net/DTD/sodipodi-0.dtd"
   xmlns="http://www.w3.org/2000/svg"
   xmlns:svg="http://www.w3.org/2000/svg"
   xmlns:rdf="http://www.w3.org/1999/02/22-rdf-syntax-ns#"
   xmlns:cc="http://creativecommons.org/ns#"
   xmlns:dc="http://purl.org/dc/elements/1.1/">
  <defs
     id="defs2">
    <rect
       x="713.80879"
       y="876.95424"
       width="178.8295"
       height="49.333982"
       id="rect5268" />
  </defs>
  <sodipodi:namedview
     id="base"
     pagecolor="#000000"
     bordercolor="#666666"
     borderopacity="1.0"
     inkscape:pageopacity="1"
     inkscape:pageshadow="2"
     inkscape:zoom="0.69999999"
     inkscape:cx="399.28572"
     inkscape:cy="683.57144"
     inkscape:document-units="mm"
     inkscape:current-layer="layer1"
     inkscape:document-rotation="0"
     showgrid="false"
     units="px"
     inkscape:window-width="1920"
     inkscape:window-height="1032"
     inkscape:window-x="0"
     inkscape:window-y="0"
     inkscape:window-maximized="1"
     inkscape:snap-page="true"
     inkscape:showpageshadow="2"
     inkscape:pagecheckerboard="0"
     inkscape:deskcolor="#000000">
    <inkscape:grid
       type="xygrid"
       id="grid1184"
       originx="0"
       originy="0"
       spacingy="1"
       spacingx="1"
       units="px"
       visible="false" />
  </sodipodi:namedview>
  <metadata
     id="metadata5">
    <rdf:RDF>
      <cc:Work
         rdf:about="">
        <dc:format>image/svg+xml</dc:format>
        <dc:type
           rdf:resource="http://purl.org/dc/dcmitype/StillImage" />
        <dc:title />
      </cc:Work>
    </rdf:RDF>
  </metadata>
  <g
     inkscape:label="Layer 1"
     inkscape:groupmode="layer"
     id="layer1">
    <rect
       style="opacity:1;fill:#000000;stroke-width:1;stroke-linecap:round;stroke-linejoin:round;stroke-dasharray:1, 1"
       id="rect905"
       width="317.5"
       height="317.5"
       x="0"
       y="0" />
    <text
       xml:space="preserve"
       style="font-style:normal;font-weight:normal;font-size:33.8667px;line-height:1.1;font-family:sans-serif;fill:#000000;fill-opacity:1;stroke:none;stroke-width:0.264583"
       x="157.97279"
       y="75.886986"
       id="text835"><tspan
         sodipodi:role="line"
         x="157.97279"
         y="75.886986"
         style="font-style:normal;font-variant:normal;font-weight:bold;font-stretch:normal;font-size:33.8667px;font-family:'Open Sans';-inkscape-font-specification:'Open Sans Bold';text-align:center;text-anchor:middle;fill:#ffffff;stroke-width:0.264583"
         id="tspan841">Jobseeker's</tspan><tspan
         sodipodi:role="line"
         x="157.97279"
         y="113.14036"
         style="font-style:normal;font-variant:normal;font-weight:bold;font-stretch:normal;font-size:33.8667px;font-family:'Open Sans';-inkscape-font-specification:'Open Sans Bold';text-align:center;text-anchor:middle;fill:#ffffff;stroke-width:0.264583"
         id="tspan847" /><tspan
         sodipodi:role="line"
         x="157.97279"
         y="150.39372"
         style="font-style:normal;font-variant:normal;font-weight:bold;font-stretch:normal;font-size:33.8667px;font-family:'Open Sans';-inkscape-font-specification:'Open Sans Bold';text-align:center;text-anchor:middle;fill:#ffffff;stroke-width:0.264583"
         id="tspan843">Basic Income.</tspan></text>
    <path
       style="fill:#cc4756;stroke-width:7.99999"
       id="path855"
       d="m 49.041597,80.200436 c 2.130896,-0.28814 4.258633,-0.600693 6.392688,-0.864424 6.623537,-0.818558 16.856884,-1.91193 23.192327,-2.650723 16.457509,-1.919161 32.901618,-3.954619 49.357478,-5.888757 30.57297,-3.614367 61.19284,-6.840897 91.91416,-8.875599 9.67043,-0.485486 19.33761,-1.250884 29.02607,-1.27228 4.37317,-0.0097 6.20304,0.120589 10.38471,0.315761 3.44273,0.04414 6.86931,0.333087 10.28889,0.704411 0,0 17.25333,-12.350821 17.25333,-12.350821 v 0 c -3.72076,-0.135697 -7.44279,-0.301895 -11.16735,-0.220665 -6.01613,0.116932 -12.05073,0.110651 -18.06263,0.355232 -7.99246,0.325157 -15.95932,1.159147 -23.88596,2.205416 -31.47193,4.039576 -62.97516,7.855958 -94.56937,10.822656 -15.76904,1.671323 -31.52884,3.438666 -47.357564,4.459735 -5.689368,0.367006 -14.286921,0.838941 -20.281966,0.621432 -1.474343,-0.05349 -2.931531,-0.33515 -4.397296,-0.502724 0,0 -18.087517,13.14135 -18.087517,13.14135 z" />
    <g
       id="g1178"
       transform="matrix(0.38268599,0,0,0.38268599,50.357629,193.06043)">
      <g
         id="Background__x28_for_preview_purposes_x29_"
         style="display:none">
        <rect
           x="-20.205999"
           y="-23.559"
           style="display:inline;fill:#231f20"
           width="628.67603"
           height="205.882"
           id="rect1008" />
      </g>
      <g
         id="Text">
        <g
           id="g1023">
          <path
             style="fill:#ffffff"
             d="m 170.345,78.778 v 16.65 H 159.081 V 41.349 h 11.264 v 3.428 c 1.936,-1.936 3.754,-3.148 5.457,-3.638 1.702,-0.49 3.778,-0.735 6.226,-0.735 4.314,0 7.882,1.924 10.704,5.771 2.822,3.848 4.221,8.78 4.198,14.796 -0.023,6.04 -1.458,10.646 -4.302,13.817 -2.729,3.055 -6.25,5.025 -10.564,5.912 -0.7,0.14 -3.032,0.082 -6.996,-0.175 -1.633,-0.115 -3.208,-0.698 -4.723,-1.747 z M 177.831,49.5 c -2.402,0 -4.256,0.991 -5.562,2.974 -1.282,1.958 -1.924,4.792 -1.924,8.5 v 9.725 c 0.443,1.166 2.938,1.749 7.486,1.749 2.425,0 4.272,-0.979 5.545,-2.938 1.269,-1.959 1.905,-4.804 1.905,-8.536 0,-3.731 -0.641,-6.576 -1.924,-8.535 -1.282,-1.96 -3.125,-2.939 -5.526,-2.939 z"
             id="path1011" />
          <path
             style="fill:#ffffff"
             d="m 205.362,26.098 h 11.264 v 10.214 h -11.264 z m 0,15.251 h 11.264 v 39.178 h -11.264 z"
             id="path1013" />
          <path
             style="fill:#ffffff"
             d="m 241.186,55.761 c -1.562,2.519 -2.344,4.757 -2.344,6.716 v 18.05 H 227.579 V 41.349 h 11.263 v 6.437 c 1.446,-2.565 3.113,-4.431 5.002,-5.597 1.866,-1.189 4.116,-1.784 6.751,-1.784 0.374,0 0.781,0.012 1.225,0.035 0.163,0 0.804,0.082 1.924,0.245 v 8.535 c -5.411,-0.42 -9.597,1.76 -12.558,6.541 z"
             id="path1015" />
          <path
             style="fill:#ffffff"
             d="m 292.541,78.253 c -4.454,2.286 -9.958,3.428 -16.51,3.428 -8.045,0 -13.292,-1.224 -15.741,-3.672 -2.285,-2.286 -3.428,-5.364 -3.428,-9.235 0,-4.594 1.422,-7.964 4.267,-10.109 2.845,-2.146 7.309,-3.218 13.395,-3.218 h 6.646 v -0.979 c 0,-1.982 -0.704,-3.435 -2.115,-4.354 -1.411,-0.923 -3.598,-1.383 -6.56,-1.383 -2.425,0 -4.673,0.268 -6.749,0.805 -2.076,0.536 -4.011,1.341 -5.807,2.414 V 42.4 c 2.425,-0.653 4.851,-1.143 7.276,-1.469 2.588,-0.35 5.023,-0.524 7.308,-0.524 6.39,0 10.984,1.388 13.782,4.163 2.822,2.798 4.235,7.334 4.235,13.607 v 20.076 z m -17.21,-15.356 c -2.332,0 -4.104,0.443 -5.317,1.329 -1.236,0.909 -1.833,2.215 -1.786,3.918 0.047,1.539 0.527,2.775 1.437,3.708 0.723,0.746 2.052,1.201 3.988,1.364 3.545,0.303 6.026,0.082 7.448,-0.665 0.047,-0.023 0.07,-2.764 0.07,-8.22 v -1.434 z"
             id="path1017" />
          <path
             style="fill:#ffffff"
             d="m 298.56,50.304 v -1.609 l 15.146,-18.469 h 1.749 V 41.35 h 11.613 v 8.955 H 315.455 V 66.92 c 0,1.819 0.315,3.043 0.945,3.673 0.652,0.653 1.947,0.979 3.882,0.979 h 5.807 v 8.955 h -9.654 c -4.454,0 -7.614,-1.026 -9.479,-3.079 -1.866,-2.052 -2.798,-5.562 -2.798,-10.529 V 50.304 Z"
             id="path1019" />
          <path
             style="fill:#ffffff"
             d="m 369.292,60.833 v 3.568 h -26.34 c 0.256,2.938 1.208,5.142 2.85,6.611 1.646,1.469 3.937,2.204 6.875,2.204 2.378,0 4.808,-0.389 7.294,-1.173 2.481,-0.779 5.03,-1.964 7.642,-3.549 v 9.654 c -2.659,1.12 -5.324,1.966 -7.992,2.537 -2.672,0.569 -5.335,0.856 -7.994,0.856 -6.389,0 -11.352,-1.803 -14.882,-5.403 -3.536,-3.605 -5.301,-8.658 -5.301,-15.165 0,-6.39 1.737,-11.415 5.212,-15.076 3.475,-3.661 8.255,-5.492 14.342,-5.492 5.55,0 9.986,1.854 13.311,5.562 3.32,3.707 4.983,8.663 4.983,14.866 z M 357.713,56.67 c 0,-2.379 -0.625,-4.295 -1.87,-5.755 -1.25,-1.455 -2.887,-2.185 -4.916,-2.185 -2.168,0 -3.936,0.683 -5.298,2.045 -1.367,1.366 -2.223,3.33 -2.572,5.895 z"
             id="path1021" />
        </g>
        <g
           id="g1035">
          <path
             style="fill:#ffffff"
             d="m 385.023,78.498 v 16.93 h -6.471 V 41.349 h 6.471 v 5.492 c 1.749,-2.588 3.556,-4.309 5.422,-5.16 1.866,-0.851 4.232,-1.277 7.102,-1.277 4.757,0 8.621,1.889 11.597,5.667 2.971,3.778 4.459,8.745 4.459,14.901 0,6.157 -1.488,10.972 -4.459,14.447 -2.976,3.475 -6.84,5.212 -11.597,5.212 -2.869,0 -4.921,-0.1 -6.157,-0.296 -1.237,-0.198 -3.359,-0.811 -6.367,-1.837 z M 406.92,60.973 c 0,-4.734 -0.975,-8.448 -2.922,-11.14 -1.947,-2.696 -4.622,-4.041 -8.026,-4.041 -2.915,0 -5.375,0.781 -7.381,2.343 -1.959,1.539 -3.148,4.291 -3.568,8.255 v 15.811 c 3.335,2.029 6.984,3.043 10.949,3.043 3.404,0 6.079,-1.206 8.026,-3.622 1.948,-2.41 2.922,-5.962 2.922,-10.649 z"
             id="path1025" />
          <path
             style="fill:#ffffff"
             d="m 437.565,81.191 c -5.224,0.094 -9.293,-1.084 -12.208,-3.533 -2.262,-1.912 -3.393,-4.757 -3.393,-8.535 0,-4.408 1.474,-7.731 4.424,-9.97 2.95,-2.239 7.353,-3.358 13.206,-3.358 h 9.024 v -0.629 c 0,-2.962 -0.975,-5.254 -2.922,-6.873 -1.947,-1.623 -4.681,-2.432 -8.201,-2.432 -2.239,0 -4.42,0.268 -6.542,0.804 -2.122,0.536 -4.162,1.341 -6.121,2.414 v -5.946 c 2.355,-0.91 4.641,-1.592 6.856,-2.046 2.215,-0.455 4.372,-0.682 6.471,-0.682 5.667,0 9.899,1.469 12.698,4.408 2.798,2.938 4.197,7.345 4.197,13.222 v 0.14 l -0.035,19.659 c -4.477,2.145 -10.295,3.264 -17.454,3.357 z m 4.652,-20.358 c -5.2,0 -8.803,0.595 -10.809,1.784 -2.006,1.189 -3.009,3.218 -3.009,6.087 0,2.262 0.781,4.116 2.345,5.562 1.562,1.445 3.579,2.168 6.051,2.168 0.07,0 0.141,0 0.21,0 5.527,0 9.398,-0.618 11.613,-1.854 0,-6.623 0,-10.727 0,-12.313 v -1.434 z"
             id="path1027" />
          <path
             style="fill:#ffffff"
             d="m 487.871,46.771 c -0.723,-0.419 -1.504,-0.66 -2.344,-0.716 -0.84,-0.061 -1.771,-0.03 -2.798,0.086 -3.521,0.443 -6.285,2.168 -8.29,5.177 -2.006,3.008 -3.009,6.728 -3.009,11.159 v 18.05 h -6.472 V 41.349 h 6.472 v 5.771 c 1.353,-2.378 3.113,-4.092 5.282,-5.142 2.169,-1.05 4.804,-1.574 7.905,-1.574 0.443,0 0.933,0.029 1.47,0.087 0.536,0.058 1.131,0.146 1.783,0.262 v 6.018 z"
             id="path1029" />
          <path
             style="fill:#ffffff"
             d="M 493.225,46.352 V 41.28 h 4.723 v -4.932 l 6.471,-6.122 V 41.35 h 13.258 v 5.002 H 504.419 V 67.62 c 0,3.195 0.437,5.247 1.312,6.157 0.873,0.909 2.652,1.364 5.334,1.364 h 6.611 v 5.387 h -6.611 c -4.968,0 -8.396,-0.928 -10.284,-2.78 -1.889,-1.856 -2.833,-5.231 -2.833,-10.128 V 46.352 Z"
             id="path1031" />
          <path
             style="fill:#ffffff"
             d="m 530.518,97.702 6.996,-17.805 -15.846,-38.548 h 6.821 l 12.243,30.643 12.242,-30.643 h 6.821 l -22.457,56.353 z"
             id="path1033" />
        </g>
      </g>
      <g
         id="Signet">
        <polygon
           style="fill:#ffffff"
           points="97.506,81.277 99.975,81.138 98.266,82.923 99.911,84.769 97.45,84.546 97.035,86.982 95.673,84.919 93.51,86.115 94.275,83.763 91.993,82.817 94.307,81.949 93.623,79.575 95.743,80.844 97.175,78.829 "
           id="polygon1056" />
        <polygon
           style="fill:#ffffff"
           points="108.732,56.46 111.201,56.325 109.492,58.109 111.137,59.954 108.676,59.73 108.261,62.165 106.9,60.103 104.738,61.297 105.501,58.949 103.218,58.002 105.532,57.135 104.85,54.758 106.971,56.027 108.401,54.012 "
           id="polygon1058" />
        <polygon
           style="fill:#ffffff"
           points="96.324,45.827 98.791,45.687 97.083,47.473 98.729,49.315 96.269,49.096 95.853,51.531 94.493,49.469 92.328,50.663 93.093,48.312 90.81,47.366 93.125,46.498 92.441,44.124 94.562,45.393 95.993,43.377 "
           id="polygon1060" />
        <polygon
           style="fill:#ffffff"
           points="83.325,60.597 85.794,60.458 84.084,62.244 85.731,64.091 83.271,63.867 82.854,66.301 81.495,64.24 79.331,65.434 80.094,63.083 77.811,62.139 80.126,61.269 79.442,58.895 81.563,60.164 82.994,58.149 "
           id="polygon1062" />
        <polygon
           style="fill:#ffffff"
           points="100.103,66.364 100.905,64.891 101.586,66.425 103.235,66.731 101.988,67.854 102.204,69.52 100.752,68.675 99.238,69.398 99.587,67.757 98.434,66.54 "
           id="polygon1064" />
        <g
           id="g1084">
          <path
             style="fill:#ffffff;stroke:#ffffff;stroke-width:5;stroke-miterlimit:10"
             d="M 137.716,89.588 C 131.41,124.789 97.758,148.221 62.551,141.913 27.344,135.607 3.914,101.956 10.221,66.755 16.525,31.549 50.177,8.125 85.386,14.432 c 35.205,6.305 58.634,39.955 52.33,75.156 z"
             id="path1066" />
          <g
             id="g1072">
            <path
               d="m 83.782,23.389 c -30.26,-5.419 -59.186,14.72 -64.604,44.976 -5.42,30.26 14.716,59.188 44.976,64.61 30.259,5.415 59.183,-14.727 64.602,-44.984 5.42,-30.256 -14.715,-59.182 -44.974,-64.602 z m 53.931,66.206 C 131.407,124.801 97.756,148.233 62.548,141.929 27.34,135.622 3.912,101.968 10.22,66.76 16.524,31.554 50.178,8.125 85.386,14.432 c 35.205,6.305 58.634,39.959 52.327,75.163 z"
               id="path1068" />
            <path
               style="fill:#ffffff"
               d="m 74.038,145.454 c -3.973,0 -7.986,-0.357 -11.929,-1.063 C 44.423,141.222 29.029,131.357 18.765,116.612 8.499,101.866 4.591,84.004 7.759,66.319 13.508,34.211 41.32,10.907 73.89,10.907 c 3.976,0 7.992,0.358 11.937,1.065 17.684,3.167 33.076,13.032 43.341,27.776 10.265,14.745 14.173,32.604 11.006,50.288 -5.751,32.111 -33.566,55.418 -66.136,55.418 z M 73.89,15.907 c -30.145,0 -55.887,21.572 -61.209,51.294 -2.933,16.371 0.685,32.904 10.187,46.554 9.502,13.648 23.751,22.781 40.122,25.714 3.652,0.654 7.37,0.985 11.048,0.985 30.146,0 55.891,-21.574 61.215,-51.299 2.932,-16.37 -0.686,-32.901 -10.188,-46.55 -9.502,-13.649 -23.75,-22.78 -40.12,-25.711 -3.654,-0.655 -7.374,-0.987 -11.055,-0.987 z m 0.133,120.448 c -0.002,0 0.001,0 0,0 -3.435,0 -6.904,-0.31 -10.311,-0.919 C 32.143,129.78 11.061,99.494 16.715,67.924 21.687,40.159 45.738,20.007 73.903,20.007 c 3.437,0 6.908,0.31 10.318,0.92 15.292,2.739 28.601,11.27 37.478,24.021 8.876,12.75 12.255,28.193 9.516,43.483 -4.972,27.768 -29.027,47.924 -57.192,47.924 z M 73.905,25.007 c -25.74,0 -47.722,18.42 -52.267,43.798 -5.169,28.856 14.101,56.539 42.956,61.708 3.117,0.558 6.289,0.841 9.428,0.841 25.742,0 47.726,-18.422 52.272,-43.805 2.504,-13.976 -0.585,-28.091 -8.698,-39.746 C 109.483,36.15 97.318,28.353 83.341,25.85 80.221,25.291 77.046,25.007 73.905,25.007 Z"
               id="path1070" />
          </g>
          <g
             id="g1082">
            <polygon
               style="stroke:#ffffff;stroke-width:5;stroke-miterlimit:10"
               points="49.674,32.691 50.004,98.056 57.128,94.95 55.864,91.806 53.914,33.449 "
               id="polygon1074" />
            <path
               style="stroke:#ffffff;stroke-width:5;stroke-miterlimit:10"
               d="m 43.733,45.493 c 0,0 60.699,-23.026 69.619,18.67 0,0 5.716,19.558 -22.992,26.528 0,0 -19.617,4.877 -21.554,4.893 -1.947,0.02 -1.947,0.02 -1.947,0.02 0,0 -19.291,3.84 -14.798,27.627 0,0 -14.917,-21.275 12.979,-38.168 0,0 10.796,-9.016 7.42,-22.749 0,-10e-4 -3.342,-16.313 -28.727,-16.821 z"
               id="path1076" />
            <polygon
               style="stroke:#ffffff;stroke-width:5;stroke-miterlimit:10"
               points="49.928,104.606 57.549,96.667 49.981,93.335 "
               id="polygon1078" />
            <path
               style="stroke:#ffffff;stroke-width:5;stroke-miterlimit:10"
               d="m 84.589,92.105 c 0,0 -29.423,4.918 -32.373,17.679 -2.95,12.763 -3.591,-19.303 15.273,-20.748 18.864,-1.433 1.617,-0.877 1.617,-0.877 L 87.09,86.55 84.822,90.792"
               id="path1080" />
          </g>
        </g>
        <g
           id="g1102">
          <path
             style="fill:#ffffff"
             d="M 137.715,89.176 C 131.409,124.377 97.757,147.809 62.55,141.501 27.343,135.195 3.913,101.544 10.22,66.343 16.524,31.137 50.176,7.713 85.385,14.02 c 35.206,6.305 58.634,39.955 52.33,75.156 z"
             id="path1086" />
          <g
             id="g1090">
            <path
               d="m 83.781,22.977 c -30.26,-5.419 -59.186,14.72 -64.604,44.976 -5.42,30.26 14.716,59.188 44.976,64.61 30.259,5.415 59.183,-14.727 64.602,-44.984 5.42,-30.256 -14.715,-59.183 -44.974,-64.602 z m 53.932,66.206 C 131.407,124.389 97.756,147.821 62.548,141.517 27.34,135.209 3.912,101.556 10.22,66.348 16.524,31.142 50.178,7.713 85.386,14.02 c 35.205,6.305 58.633,39.959 52.327,75.163 z"
               id="path1088" />
          </g>
          <g
             id="g1100">
            <polygon
               points="49.674,32.279 50.003,97.644 57.127,94.538 55.864,91.394 53.913,33.037 "
               id="polygon1092" />
            <path
               d="m 43.733,45.081 c 0,0 60.699,-23.026 69.619,18.67 0,0 5.716,19.558 -22.992,26.528 0,0 -19.617,4.877 -21.554,4.893 -1.947,0.02 -1.947,0.02 -1.947,0.02 0,0 -19.291,3.84 -14.798,27.627 0,0 -14.917,-21.275 12.979,-38.168 0,0 10.796,-9.016 7.42,-22.749 C 72.459,61.901 69.118,45.589 43.733,45.081 Z"
               id="path1094" />
            <polygon
               points="49.928,104.194 57.549,96.255 49.98,92.923 "
               id="polygon1096" />
            <path
               d="m 84.588,91.693 c 0,0 -29.423,4.918 -32.373,17.679 -2.95,12.763 -3.591,-19.303 15.273,-20.748 18.864,-1.433 1.617,-0.877 1.617,-0.877 l 17.984,-1.609 -2.268,4.242"
               id="path1098" />
          </g>
        </g>
      </g>
    </g>
    <path
       style="fill:none;stroke:#0073ae;stroke-width:6;stroke-linecap:butt;stroke-linejoin:miter;stroke-opacity:1"
       d="M 42.333333,158.75 H 275.16666"
       id="path1186" />
    <text
       xml:space="preserve"
       style="font-style:normal;font-weight:normal;font-size:6.35px;line-height:1.25;font-family:sans-serif;fill:#000000;fill-opacity:1;stroke:none;stroke-width:0.264583"
       x="158.68024"
       y="309.5625"
       id="text1190"><tspan
         sodipodi:role="line"
         id="tspan1188"
         x="158.68024"
         y="309.5625"
         style="font-style:normal;font-variant:normal;font-weight:normal;font-stretch:normal;font-size:6.35px;font-family:'Open Sans Condensed';-inkscape-font-specification:'Open Sans Condensed, ';text-align:center;text-anchor:middle;fill:#808080;stroke-width:0.264583">PPAU_AUTH_TAG</tspan></text>
    <text
       xml:space="preserve"
       transform="matrix(0.26458333,0,0,0.26458333,-78.948186,-2.5006549)"
       id="text5266"
       style="font-style:normal;font-weight:normal;font-size:40px;line-height:1.25;font-family:sans-serif;letter-spacing:0px;word-spacing:0px;white-space:pre;shape-inside:url(#rect5268);display:inline;fill:#000000;fill-opacity:1;stroke:none"><tspan
         x="713.80859"
         y="912.3457"
         id="tspan8607"><tspan
           style="font-family:'Open Sans';-inkscape-font-specification:'Open Sans';fill:#ffffff"
           id="tspan8605">UK</tspan></tspan></text>
    <text
       xml:space="preserve"
       style="font-style:normal;font-weight:normal;font-size:16.9333px;line-height:1.25;font-family:sans-serif;letter-spacing:0px;word-spacing:0px;display:inline;fill:#000000;fill-opacity:1;stroke:none;stroke-width:0.171974;enable-background:new"
       x="106.92071"
       y="273.14105"
       id="text459"><tspan
         sodipodi:role="line"
         id="tspan457"
         style="font-style:normal;font-variant:normal;font-weight:normal;font-stretch:normal;font-size:16.9333px;font-family:Arial;-inkscape-font-specification:Arial;fill:#ffffff;stroke-width:0.171974"
         x="106.92071"
         y="273.14105">ukpirate.party</tspan></text>
    <text
       xml:space="preserve"
       style="font-style:normal;font-weight:normal;font-size:10.5833px;line-height:1.25;font-family:sans-serif;letter-spacing:0px;word-spacing:0px;fill:#000000;fill-opacity:1;stroke:none;stroke-width:0.264583"
       x="151.82605"
       y="154.21542"
       id="text1"><tspan
         sodipodi:role="line"
         id="tspan1"
         style="stroke-width:0.264583"
         x="151.82605"
         y="154.21542">c</tspan><tspan
         sodipodi:role="line"
         style="stroke-width:0.264583"
         x="151.82605"
         y="167.44455"
         id="tspan2" /></text>
    <text
       xml:space="preserve"
       style="font-style:normal;font-weight:normal;font-size:10.5833px;line-height:1.25;font-family:sans-serif;letter-spacing:0px;word-spacing:0px;fill:#000000;fill-opacity:1;stroke:none;stroke-width:0.264583"
       x="228.2504"
       y="146.16312"
       id="text3"><tspan
         sodipodi:role="line"
         id="tspan3"
         style="stroke-width:0.264583"
         x="228.2504"
         y="146.16312"></tspan><tspan
         sodipodi:role="line"
         style="stroke-width:0.264583"
         id="tspan4"
         x="228.2504"
         y="159.39224" /></text>
  </g>
</svg>
