<?xml version="1.0" encoding="UTF-8" standalone="no"?>
<!-- Created with Inkscape (http://www.inkscape.org/) -->

<svg
   width="1500"
   height="500"
   viewBox="0 0 1500 500"
   id="svg4310"
   version="1.1"
   inkscape:version="1.3 (1:1.3+202307231459+0e150ed6c4)"
   sodipodi:docname="cant-download-planet-twitter.svg"
   inkscape:export-filename="/Users/alexjago/Documents/_PPAU/Memes/cant-download-planet/cant-download-planet-twitter.png"
   inkscape:export-xdpi="90"
   inkscape:export-ydpi="90"
   xmlns:inkscape="http://www.inkscape.org/namespaces/inkscape"
   xmlns:sodipodi="http://sodipodi.sourceforge.net/DTD/sodipodi-0.dtd"
   xmlns="http://www.w3.org/2000/svg"
   xmlns:svg="http://www.w3.org/2000/svg"
   xmlns:rdf="http://www.w3.org/1999/02/22-rdf-syntax-ns#"
   xmlns:cc="http://creativecommons.org/ns#"
   xmlns:dc="http://purl.org/dc/elements/1.1/">
  <defs
     id="defs4312" />
  <sodipodi:namedview
     id="base"
     pagecolor="#000000"
     bordercolor="#666666"
     borderopacity="1.0"
     inkscape:pageopacity="1"
     inkscape:pageshadow="2"
     inkscape:zoom="1"
     inkscape:cx="1088.5"
     inkscape:cy="342.5"
     inkscape:document-units="px"
     inkscape:current-layer="g4513"
     showgrid="false"
     units="px"
     borderlayer="true"
     inkscape:showpageshadow="false"
     inkscape:snap-bbox="true"
     inkscape:bbox-nodes="true"
     inkscape:snap-bbox-edge-midpoints="true"
     inkscape:window-width="1432"
     inkscape:window-height="1028"
     inkscape:window-x="-200"
     inkscape:window-y="334"
     inkscape:window-maximized="0"
     inkscape:snap-page="true"
     inkscape:object-nodes="true"
     inkscape:pagecheckerboard="0"
     inkscape:deskcolor="#000000"
     showguides="false">
    <inkscape:grid
       type="xygrid"
       id="grid5218"
       originx="0"
       originy="0"
       spacingy="1"
       spacingx="1"
       units="px"
       visible="false" />
    <sodipodi:guide
       position="1377.1057,-351.07198"
       orientation="-0.70710678,-0.70710678"
       id="guide1"
       inkscape:locked="false" />
  </sodipodi:namedview>
  <metadata
     id="metadata4315">
    <rdf:RDF>
      <cc:Work
         rdf:about="">
        <dc:format>image/svg+xml</dc:format>
        <dc:type
           rdf:resource="http://purl.org/dc/dcmitype/StillImage" />
        <dc:title />
      </cc:Work>
    </rdf:RDF>
  </metadata>
  <g
     inkscape:label="Layer 1"
     inkscape:groupmode="layer"
     id="layer1"
     transform="translate(0,-552.36219)">
    <rect
       style="opacity:1;fill:#000000;fill-opacity:1;fill-rule:nonzero;stroke:none;stroke-width:16;stroke-linecap:round;stroke-linejoin:round;stroke-miterlimit:4;stroke-dasharray:none;stroke-dashoffset:0;stroke-opacity:1"
       id="rect8177"
       width="1500"
       height="500"
       x="0"
       y="552.36218" />
    <text
       xml:space="preserve"
       style="color:#000000;font-style:normal;font-variant:normal;font-weight:normal;font-stretch:normal;font-size:10.9833px;line-height:0%;font-family:sans-serif;-inkscape-font-specification:sans-serif;text-indent:0;text-align:start;text-decoration:none;text-decoration-line:none;text-decoration-style:solid;text-decoration-color:#000000;letter-spacing:0px;word-spacing:0px;text-transform:none;writing-mode:lr-tb;direction:ltr;baseline-shift:baseline;text-anchor:start;white-space:normal;clip-rule:nonzero;display:inline;overflow:visible;visibility:visible;opacity:1;isolation:auto;mix-blend-mode:normal;color-interpolation:sRGB;color-interpolation-filters:linearRGB;solid-color:#000000;solid-opacity:1;fill:#ffffff;fill-opacity:1;fill-rule:nonzero;stroke:none;stroke-width:0.915276px;stroke-linecap:butt;stroke-linejoin:miter;stroke-miterlimit:4;stroke-dasharray:none;stroke-dashoffset:0;stroke-opacity:1;marker:none;color-rendering:auto;image-rendering:auto;shape-rendering:auto;text-rendering:auto;enable-background:accumulate"
       x="248.7478"
       y="681.35095"
       id="text4653"><tspan
         sodipodi:role="line"
         id="tspan4655"
         x="248.7478"
         y="681.35095"
         style="font-style:normal;font-variant:normal;font-weight:normal;font-stretch:normal;font-size:82.3748px;line-height:115%;font-family:'VIDEO PIRATE';-inkscape-font-specification:'VIDEO PIRATE';text-align:center;text-anchor:middle;stroke-width:0.915276px"
         dy="-13.729136 0 0 13.729136">you CAN'T</tspan><tspan
         sodipodi:role="line"
         x="248.7478"
         y="776.08203"
         style="font-style:normal;font-variant:normal;font-weight:normal;font-stretch:normal;font-size:82.3748px;line-height:115%;font-family:'VIDEO PIRATE';-inkscape-font-specification:'VIDEO PIRATE';text-align:center;text-anchor:middle;stroke-width:0.915276px"
         id="tspan4188">DOWNLOAD</tspan><tspan
         sodipodi:role="line"
         x="261.84009"
         y="870.81305"
         style="font-style:normal;font-variant:normal;font-weight:normal;font-stretch:normal;font-size:82.3748px;line-height:115%;font-family:'VIDEO PIRATE';-inkscape-font-specification:'VIDEO PIRATE';text-align:center;text-anchor:middle;stroke-width:0.915276px"
         id="tspan4190"
         dy="0 0 13.729136 0 0 0 0 0 -13.729136">a PLANET </tspan></text>
    <g
       id="g5155"
       transform="matrix(0.75,0,0,0.75,159.08299,312.01911)">
      <circle
         r="300"
         cy="653.79077"
         cx="735.71429"
         id="path4151"
         style="display:inline;opacity:1;fill:#004455;fill-opacity:1;stroke:#000080;stroke-width:6;stroke-linecap:round;stroke-linejoin:round;stroke-miterlimit:4;stroke-dasharray:none;stroke-dashoffset:0;stroke-opacity:1;enable-background:new" />
      <g
         transform="translate(-464.28574,653.79077)"
         style="display:inline;opacity:1;fill:#00aa00;enable-background:new"
         id="g4622">
        <path
           style="display:inline;opacity:1;fill:#00aa00;fill-opacity:1;fill-rule:evenodd;stroke:none;stroke-width:1px;stroke-linecap:butt;stroke-linejoin:miter;stroke-opacity:1"
           d="m 920,-92.85715 15,-30 5,-15 30,-40 15,-15 0,15 -5,10 5,0 10,-10 -10,40 0,5 5,10 0,15 15,10 5,-5 -5,-5 0,-15 -10,-10 -5,-5 10,-25 20,15 15,-15 5,0 5,-10 5,-10 -5,-10 -10,-10 15,-10 10,-5 0,5 -10,5 0,5 5,0 10,-5 0,-10 40,-15 15,-10 5,-5 15,-10 0,-5 0,-5 -8,-4 18,-6 0,-3 -5,0 -10,3 -2,-2 12,-5 3,0 -5,2 2,1 11,-3 5,0 -3,3 6,1 1,3 -5,3 10,0 12,-3 0,-5 -7,-3 10,-2 4,-3 16,0 26,-4 -21,-3 -40,1 -35,4 -70,25 -50,30 -55,55 -25,45 -5,10 z"
           id="path4153"
           inkscape:connector-curvature="0"
           sodipodi:nodetypes="cccccccccccccccccccccccccccccccccccccccccccccccccccccccccccccccccccccccccc" />
        <path
           style="display:inline;opacity:1;fill:#00aa00;fill-opacity:1;fill-rule:evenodd;stroke:none;stroke-width:1px;stroke-linecap:butt;stroke-linejoin:miter;stroke-opacity:1"
           d="m 1235,-292.85715 5,0 13,3 -8,2 -5,-2 -5,1 7,3 0,3 -3,1 0,5 -20,0 -4,2 -5,-2 -3,2 -5,-1 -4,4 -4,-3 -4,7 -6,0 -4,-6 0,-1 8,0 0,-2 9,-2 19,-1 2,-2 10,-1 4,-2 -1,-3 -3,-2 0,-1 7,0 z"
           id="path4183"
           inkscape:connector-curvature="0"
           sodipodi:nodetypes="ccccccccccccccccccccccccccccccccc" />
        <path
           style="display:inline;opacity:1;fill:#00aa00;fill-opacity:1;fill-rule:evenodd;stroke:none;stroke-width:1px;stroke-linecap:butt;stroke-linejoin:miter;stroke-opacity:1"
           d="m 1120,-237.85715 0,5 6,0 9,-10 -2,-3 -3,0 -10,8"
           id="path4185"
           inkscape:connector-curvature="0" />
        <path
           style="display:inline;opacity:1;fill:#00aa00;fill-opacity:1;fill-rule:evenodd;stroke:none;stroke-width:1px;stroke-linecap:butt;stroke-linejoin:miter;stroke-opacity:1"
           d="m 930,-107.85715 -2,5 -3,10 0,6 3,-6 2,-5 0,-10"
           id="path4187"
           inkscape:connector-curvature="0"
           sodipodi:nodetypes="ccccccc" />
        <path
           style="display:inline;opacity:1;fill:#00aa00;fill-opacity:1;fill-rule:evenodd;stroke:none;stroke-width:1px;stroke-linecap:butt;stroke-linejoin:miter;stroke-opacity:1"
           d="m 1120,-217.85715 10,0 0,10 -6,7 0,6 -4,2 -9,-10 0,-3 5,0 0,-7 z"
           id="path4189"
           inkscape:connector-curvature="0" />
        <path
           style="display:inline;opacity:1;fill:#00aa00;fill-opacity:1;fill-rule:evenodd;stroke:none;stroke-width:1px;stroke-linecap:butt;stroke-linejoin:miter;stroke-opacity:1"
           d="m 1118,-191.85715 -3,3 4,4 3,-3 -4,-4"
           id="path4191"
           inkscape:connector-curvature="0" />
        <path
           style="display:inline;opacity:1;fill:#00aa00;fill-opacity:1;fill-rule:evenodd;stroke:none;stroke-width:1px;stroke-linecap:butt;stroke-linejoin:miter;stroke-opacity:1"
           d="m 1126,-194.85715 4,-3 2,2 10,-1 -1,3 -3,1 1,1 0,4 -4,-3 -2,0 0,-2 -7,0 z"
           id="path4193"
           inkscape:connector-curvature="0" />
        <path
           style="display:inline;opacity:1;fill:#00aa00;fill-opacity:1;fill-rule:evenodd;stroke:none;stroke-width:1px;stroke-linecap:butt;stroke-linejoin:miter;stroke-opacity:1"
           d="m 1142,-186.85715 0,-2 3,-1 2,0 2,4 0,3 -1,1 -2,0 -1,0 -2,2 -2,0 0,-2 2,-2 0,-2 -1,-1"
           id="path4195"
           inkscape:connector-curvature="0" />
        <path
           style="display:inline;opacity:1;fill:#00aa00;fill-opacity:1;fill-rule:evenodd;stroke:none;stroke-width:1px;stroke-linecap:butt;stroke-linejoin:miter;stroke-opacity:1"
           d="m 1136,-188.85715 3,3 -4,1 0,-3 1,-1"
           id="path4197"
           inkscape:connector-curvature="0" />
        <path
           style="display:inline;opacity:1;fill:#00aa00;fill-opacity:1;fill-rule:evenodd;stroke:none;stroke-width:1px;stroke-linecap:butt;stroke-linejoin:miter;stroke-opacity:1"
           d="m 1125,-182.85715 8,0 -2,4 -4,3 -3,-2 0,-5 z"
           id="path4199"
           inkscape:connector-curvature="0"
           sodipodi:nodetypes="ccccccc" />
        <path
           style="display:inline;opacity:1;fill:#00aa00;fill-opacity:1;fill-rule:evenodd;stroke:none;stroke-width:1px;stroke-linecap:butt;stroke-linejoin:miter;stroke-opacity:1"
           d="m 1131,-177.85715 1,-1 2,0 0,2 -3,0 0,-1"
           id="path4201"
           inkscape:connector-curvature="0" />
        <path
           style="display:inline;opacity:1;fill:#00aa00;fill-opacity:1;fill-rule:evenodd;stroke:none;stroke-width:1px;stroke-linecap:butt;stroke-linejoin:miter;stroke-opacity:1"
           d="m 1130,-175.85715 -4,3 0,2 3,3 4,0 0,-5 2,-3 0,5 6,-1 2,-1 0,-2 3,0 0,-3 -1,-1 -2,0 0,4 -4,-1 0,-5 -3,0 0,3 0,2 -6,0"
           id="path4203"
           inkscape:connector-curvature="0"
           sodipodi:nodetypes="cccccccccccccccccccccc" />
        <path
           style="display:inline;opacity:1;fill:#00aa00;fill-opacity:1;fill-rule:evenodd;stroke:none;stroke-width:1px;stroke-linecap:butt;stroke-linejoin:miter;stroke-opacity:1"
           d="m 1125,-154.85715 -2,0 0,-6 4,-1 3,0 0,-3 5,0 0,2 5,-1 0,-3 5,0 0,-3 2,0 1,-4 2,0 3,4 2,4 0,8 -7,1 -1,3 2,3 0,2 -9,1 -3,-4 0,-8 -4,0 0,2 -5,0 -3,-2 0,5"
           id="path4205"
           inkscape:connector-curvature="0" />
        <path
           style="display:inline;opacity:1;fill:#00aa00;fill-opacity:1;fill-rule:evenodd;stroke:none;stroke-width:1px;stroke-linecap:butt;stroke-linejoin:miter;stroke-opacity:1"
           d="m 1109,-178.85715 -20,21 2,1 18,-17 0,-5"
           id="path4207"
           inkscape:connector-curvature="0" />
        <path
           style="display:inline;opacity:1;fill:#00aa00;fill-opacity:1;fill-rule:evenodd;stroke:none;stroke-width:1px;stroke-linecap:butt;stroke-linejoin:miter;stroke-opacity:1"
           d="m 970,-112.85715 10,0 0,5 25,15 0,10 5,0 0,5 5,0 0,20 -5,5 -5,0 -15,-15 -10,-25 -10,-15 z"
           id="path4209"
           inkscape:connector-curvature="0" />
        <path
           style="display:inline;opacity:1;fill:#00aa00;fill-opacity:1;fill-rule:evenodd;stroke:none;stroke-width:1px;stroke-linecap:butt;stroke-linejoin:miter;stroke-opacity:1"
           d="m 1015,-52.85715 0,5 10,5 15,0 5,2 10,0 5,-2 10,0 0,-5 -10,0 5,-5 -20,0 -10,5 -5,-5 -15,0"
           id="path4211"
           inkscape:connector-curvature="0"
           sodipodi:nodetypes="ccccccccccccccc" />
        <path
           style="display:inline;opacity:1;fill:#00aa00;fill-opacity:1;fill-rule:evenodd;stroke:none;stroke-width:1px;stroke-linecap:butt;stroke-linejoin:miter;stroke-opacity:1"
           d="m 1090,-152.85715 10,10 -10,15 10,15 -10,5 0,10 -10,5 0,15 -10,5 -5,-5 -10,0 -5,5 0,-5 -10,0 0,-10 -5,-10 0,-10 5,-5 10,5 0,-10 10,-5 5,-10 10,-5 15,-15"
           id="path4213"
           inkscape:connector-curvature="0" />
        <path
           style="display:inline;opacity:1;fill:#00aa00;fill-opacity:1;fill-rule:evenodd;stroke:none;stroke-width:1px;stroke-linecap:butt;stroke-linejoin:miter;stroke-opacity:1"
           d="m 1140,-122.85715 -5,5 -25,0 -5,5 0,10 -5,5 0,10 -5,0 0,5 10,0 -5,15 10,0 0,-20 5,0 0,5 10,15 5,-5 0,-5 -5,-5 0,-5 -5,-5 0,-5 10,-5 -10,0 -5,5 -5,-5 0,-5 5,-5 20,0 5,0 5,-10 -5,0"
           id="path4215"
           inkscape:connector-curvature="0" />
        <path
           style="display:inline;opacity:1;fill:#00aa00;fill-opacity:1;fill-rule:evenodd;stroke:none;stroke-width:1px;stroke-linecap:butt;stroke-linejoin:miter;stroke-opacity:1"
           d="m 1185,-107.85715 10,0 5,-5 10,5 0,10 10,10 15,-15 55,20 5,10 15,5 0,5 -5,5 25,25 0,5 -30,-15 0,-10 -20,0 -5,10 -10,0 -10,-10 -15,0 0,-5 5,-5 -10,-15 -20,-5 -10,-5 0,5 -5,0 0,-5 -5,-5 10,0 0,-5 -10,0 -10,-10"
           id="path4217"
           inkscape:connector-curvature="0" />
        <path
           style="display:inline;opacity:1;fill:#00aa00;fill-opacity:1;fill-rule:evenodd;stroke:none;stroke-width:1px;stroke-linecap:butt;stroke-linejoin:miter;stroke-opacity:1"
           d="m 1160,-47.85715 -15,0 -15,10 0,5 30,-15"
           id="path4156"
           inkscape:connector-curvature="0" />
        <path
           style="display:inline;opacity:1;fill:#00aa00;fill-opacity:1;fill-rule:evenodd;stroke:none;stroke-width:1px;stroke-linecap:butt;stroke-linejoin:miter;stroke-opacity:1"
           d="m 1110,-32.85715 5,-5 -10,-5 -5,5 10,5"
           id="path4158"
           inkscape:connector-curvature="0" />
        <path
           style="display:inline;opacity:1;fill:#00aa00;fill-opacity:1;fill-rule:evenodd;stroke:none;stroke-width:1px;stroke-linecap:butt;stroke-linejoin:miter;stroke-opacity:1"
           d="m 1100,-47.85715 -10,0 -10,5 20,0 5,-5 10,0 15,-5 15,0 -30,10 -10,0 z"
           id="path4160"
           inkscape:connector-curvature="0"
           sodipodi:nodetypes="ccccccccccc" />
        <path
           style="display:inline;opacity:1;fill:#00aa00;fill-opacity:1;fill-rule:evenodd;stroke:none;stroke-width:1px;stroke-linecap:butt;stroke-linejoin:miter;stroke-opacity:1"
           d="m 1315,-67.85715 20,0 0,-10 10,0 0,5 -10,10 -10,0 z"
           id="path4162"
           inkscape:connector-curvature="0" />
        <path
           style="display:inline;opacity:1;fill:#00aa00;fill-opacity:1;fill-rule:evenodd;stroke:none;stroke-width:1px;stroke-linecap:butt;stroke-linejoin:miter;stroke-opacity:1"
           d="m 1400,47.14285 0,5 10,15 0,-5 z"
           id="path4164"
           inkscape:connector-curvature="0" />
        <path
           style="display:inline;opacity:1;fill:#00aa00;fill-opacity:1;fill-rule:evenodd;stroke:none;stroke-width:1px;stroke-linecap:butt;stroke-linejoin:miter;stroke-opacity:1"
           d="m 1405,147.14285 5,0 0,20 5,-5 0,5 -20,15 0,-10 5,0 5,-10 0,-15"
           id="path4166"
           inkscape:connector-curvature="0" />
        <path
           style="display:inline;opacity:1;fill:#00aa00;fill-opacity:1;fill-rule:evenodd;stroke:none;stroke-width:1px;stroke-linecap:butt;stroke-linejoin:miter;stroke-opacity:1"
           d="m 1390,177.14285 0,5 5,0 -35,30 -10,-5 40,-30"
           id="path4168"
           inkscape:connector-curvature="0"
           sodipodi:nodetypes="cccccc" />
        <path
           style="display:inline;opacity:1;fill:#00aa00;fill-opacity:1;fill-rule:evenodd;stroke:none;stroke-width:1px;stroke-linecap:butt;stroke-linejoin:miter;stroke-opacity:1"
           d="m 1275,-32.85715 0,5 5,5 0,15 10,5 5,15 0,15 20,15 0,10 5,0 15,30 0,20 -15,30 -5,0 0,5 -15,25 -10,0 -10,5 -10,-5 -5,5 -20,-5 0,-10 -5,-5 -5,-5 -5,5 0,-5 5,-10 -15,10 -10,-15 -15,-5 -15,0 -10,5 -10,0 -10,5 -5,5 -20,0 -10,10 -10,0 -10,-5 0,-5 5,-5 -5,-10 -5,-10 -15,-25 5,0 -5,-10 0,-20 5,0 10,-10 5,0 10,-5 10,-5 5,-5 5,-5 0,-10 5,-5 15,-15 15,-10 10,10 10,0 -5,-5 5,-10 10,-5 10,0 -10,-10 10,0 20,10 5,-5 5,0 0,15 -10,10 35,20 5,0 5,-20 0,-10 5,-20 z"
           id="path4170"
           inkscape:connector-curvature="0"
           sodipodi:nodetypes="ccccccccccccccccccccccccccccccccccccccccccccccccccccccccccccccccccccccccccccc" />
        <path
           style="display:inline;opacity:1;fill:#00aa00;fill-opacity:1;fill-rule:evenodd;stroke:none;stroke-width:1px;stroke-linecap:butt;stroke-linejoin:miter;stroke-opacity:1"
           d="m 1270,177.14285 5,5 10,-5 0,10 -5,10 -10,0 -5,-15 5,-5"
           id="path4172"
           inkscape:connector-curvature="0" />
        <path
           style="display:inline;opacity:1;fill:#aaeeff;fill-opacity:1;fill-rule:evenodd;stroke:none;stroke-width:1px;stroke-linecap:butt;stroke-linejoin:miter;stroke-opacity:1"
           d="m 1090,277.14285 15,0 15,5 -5,-5 15,0 15,5 0,-5 25,5 5,-3 15,0 0,3 20,-5 5,5 25,0 0,5 40,0 -40,10 -35,5 -50,-5 -45,-10 -20,-10"
           id="path4174"
           inkscape:connector-curvature="0"
           sodipodi:nodetypes="ccccccccccccccccccccc" />
      </g>
      <circle
         style="display:inline;opacity:1;fill:none;fill-opacity:1;stroke:#00222b;stroke-width:6;stroke-linecap:round;stroke-linejoin:round;stroke-miterlimit:4;stroke-dasharray:none;stroke-dashoffset:0;stroke-opacity:1;enable-background:new"
         id="circle4176"
         cx="735.71429"
         cy="653.79077"
         r="300" />
      <circle
         r="60"
         cy="573.79071"
         cx="575.71429"
         id="path4416"
         style="display:inline;opacity:1;fill:#000000;fill-opacity:1;stroke:none;stroke-width:6;stroke-linecap:round;stroke-linejoin:round;stroke-miterlimit:4;stroke-dasharray:none;stroke-dashoffset:0;stroke-opacity:1;enable-background:new" />
      <circle
         style="display:inline;opacity:1;fill:#000000;fill-opacity:1;stroke:none;stroke-width:6;stroke-linecap:round;stroke-linejoin:round;stroke-miterlimit:4;stroke-dasharray:none;stroke-dashoffset:0;stroke-opacity:1;enable-background:new"
         id="circle4424"
         cx="895.71429"
         cy="573.79071"
         r="60" />
      <path
         inkscape:connector-curvature="0"
         id="circle4437"
         d="M 735.71428,713.79077 A 240,240 0 0 0 523.50918,842.01148 300,300 0 0 1 735.71428,753.79077 300,300 0 0 1 947.91159,841.97438 240,240 0 0 0 735.71428,713.79077 Z"
         style="display:inline;opacity:1;fill:#000000;fill-opacity:1;stroke:none;stroke-width:6;stroke-linecap:round;stroke-linejoin:round;stroke-miterlimit:4;stroke-dasharray:none;stroke-dashoffset:0;stroke-opacity:1;enable-background:new" />
      <path
         sodipodi:nodetypes="cc"
         inkscape:connector-curvature="0"
         id="path4456"
         d="m 575.71428,573.79077 0,120"
         style="display:inline;fill:none;fill-rule:evenodd;stroke:#000000;stroke-width:16;stroke-linecap:round;stroke-linejoin:miter;stroke-opacity:1;enable-background:new" />
      <path
         inkscape:connector-curvature="0"
         id="path4458"
         d="m 895.71428,573.79077 0,120"
         style="display:inline;fill:none;fill-rule:evenodd;stroke:#000000;stroke-width:16;stroke-linecap:round;stroke-linejoin:miter;stroke-opacity:1;enable-background:new" />
    </g>
    <text
       xml:space="preserve"
       style="color:#000000;font-style:normal;font-variant:normal;font-weight:normal;font-stretch:normal;font-size:11.1419px;line-height:0%;font-family:sans-serif;-inkscape-font-specification:sans-serif;text-indent:0;text-align:start;text-decoration:none;text-decoration-line:none;text-decoration-style:solid;text-decoration-color:#000000;letter-spacing:0px;word-spacing:0px;text-transform:none;writing-mode:lr-tb;direction:ltr;baseline-shift:baseline;text-anchor:start;white-space:normal;clip-rule:nonzero;display:inline;overflow:visible;visibility:visible;opacity:1;isolation:auto;mix-blend-mode:normal;color-interpolation:sRGB;color-interpolation-filters:linearRGB;solid-color:#000000;solid-opacity:1;fill:#000000;fill-opacity:1;fill-rule:nonzero;stroke:none;stroke-width:0.928496px;stroke-linecap:butt;stroke-linejoin:miter;stroke-miterlimit:4;stroke-dasharray:none;stroke-dashoffset:0;stroke-opacity:1;marker:none;color-rendering:auto;image-rendering:auto;shape-rendering:auto;text-rendering:auto;enable-background:accumulate"
       x="946.51312"
       y="666.16553"
       id="text4196"
       transform="scale(1.0018807,0.99812283)"><tspan
         sodipodi:role="line"
         id="tspan4198"
         x="946.51312"
         y="666.16553"
         style="font-style:normal;font-variant:normal;font-weight:600;font-stretch:normal;font-size:81.7076px;line-height:120%;font-family:'Open Sans';-inkscape-font-specification:'Open Sans Semi-Bold';text-align:start;text-anchor:start;fill:#ffffff;stroke-width:0.928496px">For action </tspan><tspan
         sodipodi:role="line"
         x="946.51312"
         y="764.21466"
         style="font-style:normal;font-variant:normal;font-weight:600;font-stretch:normal;font-size:81.7076px;line-height:120%;font-family:'Open Sans';-inkscape-font-specification:'Open Sans Semi-Bold';text-align:start;text-anchor:start;fill:#ffffff;stroke-width:0.928496px"
         id="tspan4202">on climate,</tspan><tspan
         sodipodi:role="line"
         x="946.51312"
         y="862.26379"
         style="font-style:normal;font-variant:normal;font-weight:600;font-stretch:normal;font-size:81.7076px;line-height:120%;font-family:'Open Sans';-inkscape-font-specification:'Open Sans Semi-Bold';text-align:start;text-anchor:start;fill:#ffffff;stroke-width:0.928496px"
         id="tspan4200">#votepirate</tspan></text>
    <g
       style="display:inline;enable-background:new"
       id="g4513"
       transform="matrix(0.9039953,0,0,0.9039953,976.36704,902.49375)">
      <g
         style="display:none"
         id="Background__x28_for_preview_purposes_x29_">
        <rect
           id="rect5"
           height="222.79401"
           width="619.85303"
           style="display:inline;fill:#231f20;stroke:#ffffff"
           y="-37.528999"
           x="-46.441002" />
      </g>
      <g
         id="Text"
         style="fill:#ffffff">
        <g
           id="g8"
           style="fill:#ffffff">
          <path
             id="path10"
             d="m 167.668,79.513 0,16.65 -11.264,0 0,-54.079 11.264,0 0,3.428 c 1.936,-1.936 3.754,-3.148 5.457,-3.638 1.702,-0.49 3.778,-0.735 6.226,-0.735 4.314,0 7.882,1.924 10.704,5.771 2.822,3.848 4.221,8.78 4.198,14.796 -0.023,6.04 -1.458,10.646 -4.302,13.817 -2.729,3.055 -6.25,5.025 -10.564,5.912 -0.7,0.14 -3.032,0.082 -6.996,-0.175 -1.633,-0.114 -3.207,-0.698 -4.723,-1.747 z m 7.486,-29.278 c -2.402,0 -4.256,0.991 -5.562,2.974 -1.282,1.958 -1.924,4.792 -1.924,8.5 l 0,9.725 c 0.443,1.166 2.938,1.749 7.486,1.749 2.425,0 4.272,-0.979 5.545,-2.938 1.269,-1.959 1.905,-4.804 1.905,-8.536 0,-3.731 -0.641,-6.576 -1.924,-8.535 -1.282,-1.96 -3.124,-2.939 -5.526,-2.939 z"
             style="fill:#ffffff"
             inkscape:connector-curvature="0" />
          <path
             id="path12"
             d="m 202.686,26.833 11.264,0 0,10.214 -11.264,0 0,-10.214 z m 0,15.251 11.264,0 0,39.178 -11.264,0 0,-39.178 z"
             style="fill:#ffffff"
             inkscape:connector-curvature="0" />
          <path
             id="path14"
             d="m 238.51,56.496 c -1.562,2.519 -2.344,4.757 -2.344,6.716 l 0,18.05 -11.263,0 0,-39.178 11.263,0 0,6.437 c 1.446,-2.565 3.113,-4.431 5.002,-5.597 1.866,-1.189 4.116,-1.784 6.751,-1.784 0.374,0 0.781,0.012 1.225,0.035 0.163,0 0.804,0.082 1.924,0.245 l 0,8.535 c -5.411,-0.42 -9.597,1.761 -12.558,6.541 z"
             style="fill:#ffffff"
             inkscape:connector-curvature="0" />
          <path
             id="path16"
             d="m 289.865,78.988 c -4.454,2.286 -9.958,3.428 -16.51,3.428 -8.045,0 -13.292,-1.224 -15.741,-3.672 -2.285,-2.286 -3.428,-5.364 -3.428,-9.235 0,-4.594 1.422,-7.964 4.267,-10.109 2.845,-2.146 7.309,-3.218 13.395,-3.218 l 6.646,0 0,-0.979 c 0,-1.982 -0.704,-3.435 -2.115,-4.354 -1.411,-0.923 -3.598,-1.383 -6.56,-1.383 -2.425,0 -4.673,0.268 -6.749,0.805 -2.076,0.536 -4.011,1.341 -5.807,2.414 l 0,-9.55 c 2.425,-0.653 4.851,-1.143 7.276,-1.469 2.588,-0.35 5.023,-0.524 7.308,-0.524 6.39,0 10.984,1.388 13.782,4.163 2.822,2.798 4.235,7.334 4.235,13.607 l 0,20.076 z m -17.21,-15.356 c -2.332,0 -4.104,0.443 -5.317,1.329 -1.236,0.909 -1.833,2.215 -1.786,3.918 0.047,1.539 0.527,2.775 1.437,3.708 0.723,0.746 2.052,1.201 3.988,1.364 3.545,0.303 6.026,0.082 7.448,-0.665 0.047,-0.023 0.07,-2.764 0.07,-8.22 l 0,-1.434 -5.84,0 z"
             style="fill:#ffffff"
             inkscape:connector-curvature="0" />
          <path
             id="path18"
             d="m 295.883,51.04 0,-1.61 15.146,-18.469 1.749,0 0,11.124 11.613,0 0,8.955 -11.613,0 0,16.615 c 0,1.819 0.315,3.043 0.945,3.673 0.652,0.653 1.947,0.979 3.882,0.979 l 5.807,0 0,8.955 -9.654,0 c -4.454,0 -7.614,-1.026 -9.479,-3.079 -1.866,-2.052 -2.798,-5.562 -2.798,-10.529 l 0,-16.614 -5.598,0 z"
             style="fill:#ffffff"
             inkscape:connector-curvature="0" />
          <path
             id="path20"
             d="m 366.615,61.568 0,3.568 -26.34,0 c 0.256,2.938 1.208,5.142 2.85,6.611 1.646,1.469 3.937,2.204 6.875,2.204 2.378,0 4.808,-0.389 7.294,-1.173 2.481,-0.779 5.03,-1.964 7.642,-3.549 l 0,9.654 c -2.659,1.12 -5.324,1.966 -7.992,2.537 -2.672,0.569 -5.335,0.856 -7.994,0.856 -6.389,0 -11.352,-1.803 -14.882,-5.403 -3.536,-3.605 -5.301,-8.658 -5.301,-15.165 0,-6.39 1.737,-11.415 5.212,-15.076 3.475,-3.661 8.255,-5.492 14.342,-5.492 5.55,0 9.986,1.854 13.311,5.562 3.321,3.708 4.983,8.663 4.983,14.866 z m -11.578,-4.162 c 0,-2.379 -0.625,-4.295 -1.87,-5.755 -1.25,-1.455 -2.887,-2.185 -4.916,-2.185 -2.168,0 -3.936,0.683 -5.298,2.045 -1.367,1.366 -2.223,3.33 -2.572,5.895 l 14.656,0 z"
             style="fill:#ffffff"
             inkscape:connector-curvature="0" />
        </g>
        <g
           id="g22"
           style="fill:#ffffff">
          <path
             id="path24"
             d="m 382.347,79.233 0,16.93 -6.471,0 0,-54.079 6.471,0 0,5.492 c 1.749,-2.588 3.556,-4.309 5.422,-5.16 1.866,-0.851 4.232,-1.277 7.102,-1.277 4.757,0 8.621,1.889 11.597,5.667 2.971,3.778 4.459,8.745 4.459,14.901 0,6.157 -1.488,10.972 -4.459,14.447 -2.976,3.475 -6.84,5.212 -11.597,5.212 -2.869,0 -4.921,-0.1 -6.157,-0.296 -1.237,-0.197 -3.359,-0.811 -6.367,-1.837 z m 21.897,-17.525 c 0,-4.734 -0.975,-8.448 -2.922,-11.14 -1.947,-2.696 -4.622,-4.041 -8.026,-4.041 -2.915,0 -5.375,0.781 -7.381,2.343 -1.959,1.539 -3.148,4.291 -3.568,8.255 l 0,15.811 c 3.335,2.029 6.984,3.043 10.949,3.043 3.404,0 6.079,-1.206 8.026,-3.622 1.948,-2.41 2.922,-5.961 2.922,-10.649 z"
             style="fill:#ffffff"
             inkscape:connector-curvature="0" />
          <path
             id="path26"
             d="m 434.889,81.926 c -5.224,0.094 -9.293,-1.084 -12.208,-3.533 -2.262,-1.912 -3.393,-4.757 -3.393,-8.535 0,-4.408 1.474,-7.731 4.424,-9.97 2.95,-2.239 7.353,-3.358 13.206,-3.358 l 9.024,0 0,-0.629 c 0,-2.962 -0.975,-5.254 -2.922,-6.873 -1.947,-1.623 -4.681,-2.432 -8.201,-2.432 -2.239,0 -4.42,0.268 -6.542,0.804 -2.122,0.536 -4.162,1.341 -6.121,2.414 l 0,-5.946 c 2.355,-0.91 4.641,-1.592 6.856,-2.046 2.215,-0.455 4.372,-0.682 6.471,-0.682 5.667,0 9.899,1.469 12.698,4.408 2.798,2.938 4.197,7.345 4.197,13.222 l 0,0.14 -0.035,19.659 c -4.477,2.145 -10.295,3.264 -17.454,3.357 z m 4.652,-20.358 c -5.2,0 -8.803,0.595 -10.809,1.784 -2.006,1.189 -3.009,3.218 -3.009,6.087 0,2.262 0.781,4.116 2.345,5.562 1.562,1.445 3.579,2.168 6.051,2.168 0.07,0 0.141,0 0.21,0 5.527,0 9.398,-0.618 11.613,-1.854 0,-6.623 0,-10.727 0,-12.313 l 0,-1.434 -6.401,0 z"
             style="fill:#ffffff"
             inkscape:connector-curvature="0" />
          <path
             id="path28"
             d="m 485.194,47.506 c -0.723,-0.419 -1.504,-0.66 -2.344,-0.716 -0.84,-0.061 -1.771,-0.03 -2.798,0.086 -3.521,0.443 -6.285,2.168 -8.29,5.177 -2.006,3.008 -3.009,6.728 -3.009,11.159 l 0,18.05 -6.472,0 0,-39.178 6.472,0 0,5.771 c 1.353,-2.378 3.113,-4.092 5.282,-5.142 2.169,-1.05 4.804,-1.574 7.905,-1.574 0.443,0 0.933,0.029 1.47,0.087 0.536,0.058 1.131,0.146 1.783,0.262 l 0,6.018 z"
             style="fill:#ffffff"
             inkscape:connector-curvature="0" />
          <path
             id="path30"
             d="m 490.549,47.087 0,-5.072 4.723,0 0,-4.932 6.471,-6.122 0,11.124 13.257,0 0,5.002 -13.258,0 0,21.268 c 0,3.195 0.437,5.247 1.312,6.157 0.873,0.909 2.652,1.364 5.334,1.364 l 6.612,0 0,5.387 -6.611,0 c -4.968,0 -8.396,-0.928 -10.284,-2.78 -1.889,-1.856 -2.833,-5.231 -2.833,-10.128 l 0,-21.268 -4.723,0 z"
             style="fill:#ffffff"
             inkscape:connector-curvature="0" />
          <path
             id="path32"
             d="m 527.842,98.437 6.996,-17.805 -15.846,-38.548 6.821,0 12.243,30.643 12.242,-30.643 6.821,0 -22.457,56.353 -6.82,0 z"
             style="fill:#ffffff"
             inkscape:connector-curvature="0" />
        </g>
        <g
           id="g34"
           style="fill:#ffffff" />
      </g>
      <g
         id="Signet">
        <polygon
           id="polygon73"
           points="91.63,82.684 90.946,80.311 93.067,81.579 94.499,79.564 94.83,82.013 97.298,81.873 95.59,83.659 97.234,85.504 94.774,85.282 94.359,87.717 92.997,85.655 90.834,86.85 91.599,84.499 89.317,83.552 "
           style="fill:#ffffff" />
        <polygon
           id="polygon75"
           points="102.855,57.87 102.173,55.494 104.294,56.762 105.725,54.748 106.056,57.196 108.524,57.061 106.815,58.845 108.46,60.689 106,60.465 105.585,62.9 104.224,60.838 102.062,62.033 102.825,59.684 100.542,58.737 "
           style="fill:#ffffff" />
        <polygon
           id="polygon77"
           points="90.448,47.233 89.765,44.859 91.886,46.128 93.316,44.112 93.647,46.562 96.115,46.422 94.407,48.208 96.053,50.051 93.593,49.832 93.177,52.266 91.817,50.205 89.652,51.398 90.417,49.048 88.134,48.101 "
           style="fill:#ffffff" />
        <polygon
           id="polygon79"
           points="77.45,62.004 76.766,59.63 78.887,60.899 80.318,58.884 80.649,61.333 83.118,61.193 81.408,62.979 83.055,64.826 80.594,64.603 80.178,67.037 78.818,64.976 76.654,66.169 77.418,63.819 75.135,62.874 "
           style="fill:#ffffff" />
        <polygon
           id="polygon81"
           points="97.427,67.1 98.229,65.626 98.91,67.16 100.559,67.466 99.312,68.59 99.527,70.255 98.076,69.411 96.562,70.134 96.911,68.492 95.758,67.275 "
           style="fill:#ffffff" />
        <g
           id="g83">
          <path
             id="path85"
             d="M 135.039,89.912 C 128.733,125.113 95.081,148.545 59.874,142.237 24.667,135.931 1.237,102.28 7.544,67.079 13.848,31.873 47.5,8.449 82.709,14.756 c 35.206,6.305 58.634,39.954 52.33,75.156 l 0,0 z"
             style="fill:#ffffff;stroke:#ffffff;stroke-width:5;stroke-miterlimit:10"
             inkscape:connector-curvature="0" />
          <path
             id="path87"
             d="m 81.105,23.712 c -30.26,-5.419 -59.186,14.72 -64.604,44.976 -5.42,30.26 14.716,59.188 44.976,64.61 30.259,5.415 59.183,-14.727 64.602,-44.984 5.42,-30.255 -14.715,-59.182 -44.974,-64.602 l 0,0 z m 53.932,66.206 C 128.731,125.124 95.08,148.556 59.872,142.252 24.664,135.944 1.235,102.291 7.543,67.083 13.847,31.877 47.501,8.448 82.709,14.755 c 35.206,6.306 58.634,39.959 52.328,75.163 l 0,0 z"
             style="stroke:#ffffff;stroke-width:5;stroke-miterlimit:10"
             inkscape:connector-curvature="0" />
          <g
             id="g89">
            <polygon
               id="polygon91"
               points="46.998,33.014 46.998,33.014 47.327,98.379 54.451,95.273 53.188,92.129 51.237,33.772 "
               style="stroke:#ffffff;stroke-width:5;stroke-miterlimit:10" />
            <path
               id="path93"
               d="m 41.057,45.816 c 0,0 60.699,-23.026 69.619,18.67 0,0 5.716,19.558 -22.992,26.528 0,0 -19.617,4.877 -21.554,4.893 -1.947,0.02 -1.947,0.02 -1.947,0.02 0,0 -19.291,3.84 -14.798,27.627 0,0 -14.917,-21.275 12.979,-38.168 0,0 10.796,-9.016 7.42,-22.749 -0.001,0 -3.343,-16.313 -28.727,-16.821 l 0,0 z"
               style="stroke:#ffffff;stroke-width:5;stroke-miterlimit:10"
               inkscape:connector-curvature="0" />
            <polygon
               id="polygon95"
               points="47.304,93.659 47.304,93.659 47.251,104.929 54.873,96.991 "
               style="stroke:#ffffff;stroke-width:5;stroke-miterlimit:10" />
            <path
               id="path97"
               d="m 81.912,92.428 c 0,0 -29.423,4.918 -32.373,17.679 -2.95,12.763 -3.591,-19.303 15.273,-20.748 18.864,-1.433 1.617,-0.877 1.617,-0.877 l 17.984,-1.609 -2.268,4.242"
               style="stroke:#ffffff;stroke-width:5;stroke-miterlimit:10"
               inkscape:connector-curvature="0" />
          </g>
        </g>
        <g
           id="g99">
          <path
             id="path101"
             d="M 135.039,89.912 C 128.733,125.113 95.081,148.545 59.874,142.237 24.667,135.931 1.237,102.28 7.544,67.079 13.848,31.873 47.5,8.449 82.709,14.756 c 35.206,6.305 58.634,39.954 52.33,75.156 l 0,0 z"
             style="fill:#ffffff"
             inkscape:connector-curvature="0" />
          <path
             id="path103"
             d="m 81.105,23.712 c -30.26,-5.419 -59.186,14.72 -64.604,44.976 -5.42,30.26 14.716,59.188 44.976,64.61 30.259,5.415 59.183,-14.727 64.602,-44.984 5.42,-30.255 -14.715,-59.182 -44.974,-64.602 l 0,0 z m 53.932,66.206 C 128.731,125.124 95.08,148.556 59.872,142.252 24.664,135.944 1.235,102.291 7.543,67.083 13.847,31.877 47.501,8.448 82.709,14.755 c 35.206,6.306 58.634,39.959 52.328,75.163 l 0,0 z"
             inkscape:connector-curvature="0" />
          <g
             id="g105">
            <polygon
               id="polygon107"
               points="46.998,33.014 46.998,33.014 47.327,98.379 54.451,95.273 53.188,92.129 51.237,33.772 " />
            <path
               id="path109"
               d="m 41.057,45.816 c 0,0 60.699,-23.026 69.619,18.67 0,0 5.716,19.558 -22.992,26.528 0,0 -19.617,4.877 -21.554,4.893 -1.947,0.02 -1.947,0.02 -1.947,0.02 0,0 -19.291,3.84 -14.798,27.627 0,0 -14.917,-21.275 12.979,-38.168 0,0 10.796,-9.016 7.42,-22.749 -0.001,0 -3.343,-16.313 -28.727,-16.821 l 0,0 z"
               inkscape:connector-curvature="0" />
            <polygon
               id="polygon111"
               points="47.304,93.659 47.304,93.659 47.251,104.929 54.873,96.991 " />
            <path
               id="path113"
               d="m 81.912,92.428 c 0,0 -29.423,4.918 -32.373,17.679 -2.95,12.763 -3.591,-19.303 15.273,-20.748 18.864,-1.433 1.617,-0.877 1.617,-0.877 l 17.984,-1.609 -2.268,4.242"
               inkscape:connector-curvature="0" />
          </g>
        </g>
        <text
           xml:space="preserve"
           style="font-style:normal;font-weight:normal;font-size:38.3471px;line-height:1.25;font-family:sans-serif;letter-spacing:0px;word-spacing:0px;display:inline;fill:#000000;fill-opacity:1;stroke:none;stroke-width:0.719009"
           x="152.72664"
           y="127.90596"
           id="text459"><tspan
             sodipodi:role="line"
             id="tspan457"
             style="font-style:normal;font-variant:normal;font-weight:normal;font-stretch:normal;font-size:38.3471px;font-family:Arial;-inkscape-font-specification:Arial;fill:#ffffff;stroke-width:0.719009"
             x="152.72664"
             y="127.90596">ukpirate.party</tspan></text>
      </g>
    </g>
    <text
       xml:space="preserve"
       style="color:#000000;font-style:normal;font-variant:normal;font-weight:normal;font-stretch:normal;line-height:0%;font-family:sans-serif;-inkscape-font-specification:sans-serif;text-indent:0;text-align:start;text-decoration:none;text-decoration-line:none;text-decoration-style:solid;text-decoration-color:#000000;letter-spacing:0px;word-spacing:0px;text-transform:none;writing-mode:lr-tb;direction:ltr;baseline-shift:baseline;text-anchor:start;white-space:normal;clip-rule:nonzero;display:inline;overflow:visible;visibility:visible;opacity:1;isolation:auto;mix-blend-mode:normal;color-interpolation:sRGB;color-interpolation-filters:linearRGB;solid-color:#000000;solid-opacity:1;fill:#b3b3b3;fill-opacity:1;fill-rule:nonzero;stroke:none;stroke-width:1px;stroke-linecap:butt;stroke-linejoin:miter;stroke-miterlimit:4;stroke-dasharray:none;stroke-dashoffset:0;stroke-opacity:1;marker:none;color-rendering:auto;image-rendering:auto;shape-rendering:auto;text-rendering:auto;enable-background:accumulate"
       x="9.0185547"
       y="1040.8241"
       id="text8183"><tspan
         sodipodi:role="line"
         id="tspan8185"
         x="9.0185547"
         y="1040.8241"
         style="font-style:normal;font-variant:normal;font-weight:normal;font-stretch:normal;font-size:10px;line-height:10;font-family:'Open Sans';-inkscape-font-specification:'Open Sans';fill:#b3b3b3">PPAU_AUTH_TAG</tspan></text>
  </g>
</svg>
